<?xml version="1.0" encoding="UTF-8"?>
<svg xmlns="http://www.w3.org/2000/svg" viewBox="0 0 2873.62 2379.81">
  <defs>
    <style>
      .cls-1 {
        fill: #cbcbcb;
      }

      .cls-2 {
        fill: #989898;
      }

      .cls-3 {
        stroke: #666;
      }

      .cls-3, .cls-4, .cls-5 {
        fill: none;
        stroke-miterlimit: 10;
      }

      .cls-6 {
        fill: #4d4d4d;
      }

      .cls-7 {
        fill: #333;
      }

      .cls-8 {
        fill: #e5e5e5;
      }

      .cls-4 {
        stroke: #4d4d4d;
      }

      .cls-5 {
        stroke: #1a1a1a;
      }

      .cls-9 {
        fill: #1a1a1a;
      }

      .cls-10 {
        fill: #666;
      }
    </style>
  </defs>
  <g id="Layer_1" data-name="Layer 1">
    <rect class="cls-1" x="608.15" y="950.62" width="1920" height="1080"/>
    <ellipse class="cls-1" cx="1518.34" cy="819.24" rx="1042.13" ry="500.95"/>
  </g>
  <g id="Sun">
    <path class="cls-8" d="M1562.3,997.32c-42.07,0-76.18,34.11-76.18,76.18s34.11,76.18,76.18,76.18,76.18-34.11,76.18-76.18-34.11-76.18-76.18-76.18Zm19.32,104.69c-22.61,0-40.94-20.66-40.94-46.15s18.33-46.15,40.94-46.15,40.94,20.66,40.94,46.15-18.33,46.15-40.94,46.15Z"/>
  </g>
  <g id="background">
    <path class="cls-2" d="M1437.6,1848.35l-10.31-97.59v-74.58l-7.93-30.15v-145.99l3.97-23.01-7.93-70.61,1.19-3.77,6.74,3.57,4.56,1.19,1.39-2.38s-5.55-8.33-6.15-8.93-5.55-2.58-6.15-2.58-.4-2.98-.4-2.98c0,0,4.96,.2,5.75-4.17s-1.39-32.93-1.39-32.93c0,0-6.94-3.57-9.92-1.59l-.79-24,7.74,1.59s2.18-4.56,2.18-5.16-4.96-6.74-4.96-6.74l-4.17-9.52-1.59-102.95,3.37-3.57-.2-168.2,3.77-1.59s-5.16-7.74-4.56-9.72,5.75-5.75,5.75-5.75l4.96-1.98-2.38-4.56h-3.77l-1.19,2.38s-31.34-2.38-30.94,3.37c0,0-11.11-1.59-14.88,5.36v-4.36s-38.8,15.88-89.66,29.75c-2.18,.6-10.91,8.73-31.34,10.51v-16.07s2.78-2.38,3.17-2.98,1.39-10.31,1.39-10.31l1.98-1.98v-14.68l-14.48,.4v10.51l.99,4.56-.99,16.07-10.91,.6-1.19-25.59-3.17-.2-.99,22.61v17.26l-2.98,5.16,.99,21.82,1.19,4.76,.4,2.18-2.58,.4v9.52l2.38,1.19,.4,11.11s-1.79,20.43-2.78,21.03-7.74,10.91-7.74,10.91c0,0,6.55,19.24,12.3,26.98s2.38,4.96,2.38,4.96c0,0-10.31-15.07-18.45-13.09,0,0,1.59,13.09,4.76,16.26l-6.74-.4,.79,13.49,16.26,.2-1.79,13.49,1.39,197.76,1.59,5.36-.2,85.89,1.79,2.18-.4,85.69-8.33,3.17-4.76,91.64-10.31,.2-1.98,172.17,235.84-2.58Z"/>
    <g>
      <g>
        <path class="cls-2" d="M1860.49,1889.4c0-1.69,3.38-98.71,3.38-98.71l-5.36-1.69v-11h-11.85l1.41-67.69h5.92l1.27-3.1v-38.92l-2.12-3.67v-22.85s22.85-3.95,23.97-5.92,2.26-117.89-1.13-122.12c0,0-7.05-2.82-8.46-1.41v-27.36h6.49s3.1-20.31,2.82-27.36c0,0,6.49,1.69,6.49,0v-16.92h-7.33s-1.41-10.72,3.1-18.33l-.42-33.14-.92,.42-.07,31.45s-2.12-.42-1.97-.63,.07-37.44,.07-37.44l-.92,1.27-.99,42.73-4.09-.49,.99-34.27s-5.15,10.08-5.15,10.36,.35,8.11,.35,8.11l-.99,2.68-1.9,.07-.78-28.77,8.74-7.47,.78-29.83-2.26-6.42-1.48-62.33-1.69-1.69,3.38-26.23,.85-8.04,6.13-5.29s1.06-1.69,.42-2.12-4.87,0-4.87,0l-1.48,2.54-1.9-2.73-1.06-33.23h-2.89l-1.55,1.06,1.55,35.11,1.41,3.38-2.96,2.96-.21,8.67-1.69-1.48-1.9-20.73-1.27-1.27-.21-5.08-29.4-10.36v-12.27s-3.6-2.33-4.65,0v-11.63l-2.75-1.27v2.33l-1.69,2.12v8.25l-2.96-1.48,1.27,2.33,1.27,.42,.63,7.19s-7.19-5.08-8.04-5.08-12.27-2.12-12.27-2.12c0,0-.85-3.6-9.73-2.96,0,0-5.08-9.94-10.79-11h-7.83v-42.94s-9.1-11.21-17.56-10.15l-21.15-11s-3.6-5.5-14.81-6.98l-2.96-2.54v-2.12h-6.77v2.12l-3.6,1.48s-1.06,50.98-1.06,52.46v32.79l-3.81-.42v13.11l3.6,.42-.85,148.49,3.81,3.81-.42,5.29s-3.81,.85-5.08,5.92l-1.06,48.02s3.38,17.13,12.69,14.81l-2.54,59.79s8.46-.71,8.67,0-4.65,16.57-4.65,16.57l-15.44-5.5v-11.07h-3.38v12.34l-5.61,5.08s-9.83-9.31-14.07-7.62v3.81l-9.31-.85s-2.12,8.46-5.92,2.54l-5.5-1.06s-2.75,5.92-13.75,5.92l-1.06-3.17h-6.98v2.12l-5.08-.63-1.27,23.48,2.33-.42,.42,8.25s-4.44,1.48-1.9,7.09l.21,17.24-19.46,.63s-.63-20.73-3.81-20.1l-2.33,2.22v21.26l-1.48,1.48v64.94s-6.13,6.56-4.87,10.15l4.44,.85,1.06,103.86s-38.64-10.11-26.86,31.09c.42,1.48,14.81,97.59,14.81,97.59h271.6Z"/>
        <polygon class="cls-2" points="1866.41 1637.4 1866.41 1659.68 1853.72 1668.98 1852.45 1667.29 1864.3 1657.84 1864.3 1637.4 1866.41 1637.4"/>
      </g>
      <path class="cls-2" d="M1590.37,1648.71s2.64-.32,2.96-1.69,0-19.67,0-19.67h9.1l-.85-4.97h-6.24l-2.54,2.43-.42-41.04,10.58-.63v-3.81l-15.55,1.59v2.43l.95,1.06,2.01,64.3Z"/>
    </g>
    <g>
      <path class="cls-2" d="M1184.18,1745.7l-3.06-184.86,8.04-4.59v-9.19s8.23-15.69,9.09-29.95c0,0-1.15-2.2-3.44-2.01l-.57-58.08s-2.68-1.24-4.55-.96l-12.49-6.7,.57-2.77-2.2-1.63-.19-68.99h1.53l1.44-1.34-1.63-8.04,10.09,.77,.81-.77-5.45-6.99s-7.08,3.83-7.65,2.2v-9.38l4.02,.57,.48-2.2-2.77-2.58,.29-2.2,3.73,2.87,1.63-1.24-.38-1.63-2.77-3.83s5.26,2.3,8.8-1.15c0,0-.96-1.34-1.15-1.53s-9.76-5.84-9.76-5.84l-.48-54.92,1.15-1.63,1.63,1.34,1.72-.19s1.72-3.83,2.39-7.85c0,0,1.63-1.82,1.53-2.11s.48-3.06,.48-3.06l1.34-3.83v-7.94l-1.05,1.44v5.93l-2.2,3.64v-5.84s.67-.86,.67-1.15-.29-2.97-.29-2.97l-4.4-2.77,.96-5.55,3.92-3.92-.19-1.82h-1.44l-4.4,4.5s-.67-89.27-.67-89.56,1.82-6.32,1.82-6.32l-2.2-86.6,2.11-.57,.96-2.58-.19-3.92-.86-59.04-25.74-30.43h-156.92l.64,25.99,1.91,.38v84.46l.77,1.02-.51,25.64,1.4,68.51-3.57-3.32-1.33,1.67v12.18l-.96,1.03-1.87-.07s-1.77-4.26-6.96-2.58c0,0,.07-5.43,0-5.43s-3.44-.12-3.44-.02,.12,2.66,.12,2.66l1.12-.02-.31,3.01-2.3,.57v7.92l-6.34,7.3s-.29,1.41-.22,1.46,.6,.41,.6,.41l1.84-.5,7.2-5.5s3.44-1.53,2.56,5.48c0,0-8.8,4.98-8.78,5.05s1.46,2.87,1.46,2.87l2.51-.07,11.03-8.28s.77,1.87,.86,2.2-.02,5.31-.02,5.31l-2.73,4.26,.1,1.99,1.34,.02-.07,2.66-4.43,3.11,.12,1.48s2.13-.17,2.2-.24,3.49-3.18,3.49-3.18c0,0,1.75,4.64-.98,7.61l.38,1.75,2.13-.12-.12,7.94-3.3,3.06,.22,1.44,1.12,.81s.62,10.79,7.89,4.76l-.45,31.72,1.7,1.34s-.05,2.54-.14,2.58-2.66,.5-2.66,.5l1.44,34.52-1.6,.24-.14,1.29,1.75,.69,.89,29.64,.1,28.2,4.38,5.72,.95,3.42,.19,10.65s2.36,7.4,10.91,16.65l.19,8.04s1.21,.26,1.21,.45v15.56l1.4,1.59v2.42l-1.79,.57s.32,79.1,.13,79.29-2.62,1.85-2.62,1.85l2.74,9.89s2.68-.19,2.87,0,8.87,13.65,8.17,15.5-7.27,4.78-7.27,4.78l-1.21,2.3,.96,3.89,.45,4.85-.96-.06-.19-3-2.87,.13,.57,12.38s4.47,2.23,5.1,9.89c.64,7.65,1.53,23.28,1.53,23.28l-.38,8.36-1.79,3.19,1.15,2.93,2.68-.38,.38,17.48-4.34,1.79-.89,2.42,1.4,2.17,1.66,1.02,.38,73.23-.51,8.93-8.29,.38s-1.53,4.34-1.79,4.85-.26,11.48-.26,11.48l168.02,4.47Z"/>
      <path class="cls-2" d="M1180.23,1612.63l5.23-3.7,3.44-1.02,9.35-.64s4.94,.64,5.45-11.74,1.02-32.28,1.02-32.28h-2.81l-.13,21.69s-5.36,12.25-5.23,11.86-18.37-34.45-18.37-34.45l.51,13.27s14.03,14.93,16.46,26.03l1.66,.26s4.85-12.89,4.98-12.5-.26,7.27-.26,7.27c0,0,1.79,8.8-11.1,8.17s-18.12,16.2-18.12,16.2l7.91-8.42Z"/>
    </g>
    <g>
      <path class="cls-2" d="M2165.06,1817.78l-4.29-259.02,11.26-6.44v-12.87s11.53-21.99,12.74-41.96c0,0-1.61-3.08-4.83-2.82l-.8-81.38s-3.75-1.74-6.37-1.34l-17.5-9.38,.8-3.89-3.08-2.28-.27-96.66h2.15l2.01-1.88-2.28-11.26,14.14,1.07,1.14-1.07-7.64-9.79s-9.92,5.36-10.73,3.08v-13.14l5.63,.8,.67-3.08-3.89-3.62,.4-3.08,5.23,4.02,2.28-1.74-.54-2.28-3.89-5.36s7.37,3.22,12.33-1.61c0,0-1.34-1.88-1.61-2.15s-13.68-8.18-13.68-8.18l-.67-76.96,1.61-2.28,2.28,1.88,2.41-.27s2.41-5.36,3.35-10.99c0,0,2.28-2.55,2.15-2.95s.67-4.29,.67-4.29l1.88-5.36v-11.13l-1.47,2.01v8.31l-3.08,5.09v-8.18s.94-1.21,.94-1.61-.4-4.16-.4-4.16l-6.17-3.89,1.34-7.78,5.5-5.5-.27-2.55h-2.01l-6.17,6.3s-.94-125.09-.94-125.49,2.55-8.85,2.55-8.85l-3.08-121.33,2.95-.8,1.34-3.62-.27-5.5-1.21-82.72-36.06-42.63h-219.87l.89,36.42,2.68,.54v118.34l1.07,1.43-.72,35.93,1.97,95.99-5.01-4.65-1.87,2.34v17.06l-1.34,1.44-2.61-.1s-2.48-5.97-9.75-3.62c0,0,.1-7.61,0-7.61s-4.83-.17-4.83-.03,.17,3.72,.17,3.72l1.58-.03-.44,4.22-3.22,.8v11.09l-8.88,10.22s-.4,1.98-.3,2.04,.84,.57,.84,.57l2.58-.7,10.09-7.71s4.83-2.15,3.59,7.68c0,0-12.33,6.97-12.3,7.07s2.04,4.02,2.04,4.02l3.52-.1,15.45-11.6s1.07,2.61,1.21,3.08-.03,7.44-.03,7.44l-3.82,5.97,.13,2.78,1.88,.03-.1,3.72-6.2,4.36,.17,2.08s2.98-.23,3.08-.34,4.89-4.46,4.89-4.46c0,0,2.45,6.5-1.37,10.66l.54,2.45,2.98-.17-.17,11.13-4.63,4.29,.3,2.01,1.58,1.14s.87,15.12,11.06,6.67l-.64,44.44,2.38,1.88s-.07,3.55-.2,3.62-3.72,.7-3.72,.7l2.01,48.37-2.25,.34-.2,1.81,2.45,.97,1.24,41.53,.13,39.52,6.13,8.01,1.33,4.79,.27,14.93s3.31,10.37,15.28,23.33l.27,11.26s1.7,.36,1.7,.63v21.81l1.97,2.23v3.4l-2.5,.8s.45,110.83,.18,111.1-3.66,2.59-3.66,2.59l3.84,13.85s3.75-.27,4.02,0,12.42,19.13,11.44,21.72c-.98,2.59-10.19,6.7-10.19,6.7l-1.7,3.22,1.34,5.45,.63,6.79-1.34-.09-.27-4.2-4.02,.18,.8,17.34s6.26,3.13,7.15,13.85,2.15,32.62,2.15,32.62l-.54,11.71-2.5,4.47,1.61,4.11,3.75-.54,.54,24.49-6.08,2.5-1.25,3.4,1.97,3.04,2.32,1.43,.54,102.61-.72,12.51-11.62,.54s-2.15,6.08-2.5,6.79-.36,16.09-.36,16.09l235.43,6.26Z"/>
      <path class="cls-2" d="M2185.88,1646.03l7.33-5.18,4.83-1.43,13.09-.89s6.93,.89,7.64-16.45c.72-17.34,1.43-45.23,1.43-45.23h-3.93l-.18,30.39s-7.51,17.16-7.33,16.62-25.74-48.27-25.74-48.27l.72,18.59s19.66,20.91,23.06,36.47l2.32,.36s6.79-18.05,6.97-17.52-.36,10.19-.36,10.19c0,0,2.5,12.33-15.55,11.44-18.05-.89-25.38,22.7-25.38,22.7l11.08-11.8Z"/>
    </g>
  </g>
  <g id="mid_ground">
    <g>
      <g>
        <g>
          <g>
            <g>
              <path class="cls-10" d="M1978.42,1958.01c.06-2.71-2.33-284.94-2.33-284.94l-30.49-3.36,.92-43.39,31.36-2.04-2.41-209.65s-29.58-10.13-29.51-13.52c.07-3.39,.94-44.07,.94-44.07l4.81-10.75,4.58,.1,3.21-7.39,20.62,.44-1.4-64.3-5.15-.11-1.04-5.11,6.59,.14-.6-25.7-7.06-.15-1.4-6.13,8.88,.19,.11-18.57-8.88-.19-.47,8.64s-4.57,12.62-9.79,15.82l.53-24.66-3.44-.07-1.1-2.31-3.72-.08-.06-37.65,4.8-10.07,24.34,.52-.65-9.68-5.12-1.64s-.65-36.64,.22-37.13,5.63-8.78,5.63-8.78l1.15-134.79-8.98-8.59,.26-12.2,7.73,.16,.07-3.05,1.17-11.74,.28-2.85,312.97,6.67,121.41,2.59-21.71,1018.31-417.3-8.89Z"/>
              <path class="cls-10" d="M1982.45,1164.06l-44.1-.94,.47-4.06s6.03-14.2,6.32-14.19l32.55,.69s.48,4.42,0,4.41-31.01-1.25-31.11-.92-4.24,10.68-3.95,10.68,41.52,.89,41.52,.89l-1.7,3.44Z"/>
            </g>
            <path class="cls-10" d="M1983.86,1075.48l-26.88-6.85,.05-2.54,27.12-4.51-.08,3.9s-22.38,1.64-21.81,1.91,22.99,5.58,22.99,5.58l-1.39,2.51Z"/>
          </g>
          <path class="cls-10" d="M1984.19,997.32c-1.85,.05,.82,1.8,.82,1.8l-2.27-.94-35.32-.75s-6.69,18.3-6.41,18.47,.84,.87,.84,.87l42.75,1.25-1.07-3.58-.5,1.26s-38.65-.99-38.55-1.33,3.92-13.74,4.49-13.72,34.75,.57,34.75,.57l.46-3.89Z"/>
        </g>
        <path class="cls-10" d="M1958.84,999.32l-6.2,13.26-1.12,52.46,1.63-.3s6.42-10.63,9.31-31.6l.36-16.78-.73-16.97-3.25-.07Z"/>
      </g>
      <polygon class="cls-10" points="1986.18 944.15 1983.04 939.34 2092.56 880.97 2435.48 921.21 2425.21 1967.53 2346.17 1965.85 1986.18 944.15"/>
    </g>
    <path class="cls-10" d="M1135.99,1966.63v-157.08s6.46-191.31,6.46-191.31l-3.19-3.34-31.1,.71-3.44-177.45,11.4-.26-1.49-65.61-7.07-11.25,30.66-.7-1.85-48.86-34.08,.18-.34-8.29,12.29-.28-.88-32.43s23.9-11.36,25.34-19.54c1.44-8.18,2.72-30.14,2.41-31.03s-5.48-6.25-5.48-6.25l-26.56-1.32-1.72,8.93-6.96,.31s-4.91-20.49-2.4-53.59l13.03-.3-.32-59.56-6.76-23.41-7.55,.17-.05-21.78,35.82-1.85,.78-37.21-3.97-11.76-20.29,.46-.02-7.41,23.1-13.71s5.62-.57,5.49-19.39l-.52-23.11-9.11-9.43-469.32-52.62-13.91,1090.52,491.58-11.16Z"/>
    <g>
      <g>
        <g>
          <g>
            <g>
              <g>
                <path class="cls-10" d="M1354.53,1170.78c-15.4,4.69-32.04,11.09-32.04,11.09l-5.16,3.92-41.03,12.91s-38.45,14.63-36.92,48.11l-1.1,23.72h-3.49l-.14-5.26,2.01-.07,.07-14.13-3.8-.43,.22-10.9s.43-3.66-11.98-2.22c0,0-5.31-.43-6.31,1.22l-.22,8.61-54.44,1v-28.12l-1.43-2.87-13.48-.29,.57,32.71-46.29,1.63v10.33l45.91-2.3s-3.06,29.84,0,30.22c3.06,.38,13.01,2.68,15.3,0,2.3-2.68,0-30.6,0-30.6l52.79-1.91v67.71l-53.56,1.53s.77-27.54-.77-29.84c-1.53-2.3-14.15-.38-14.15-.38,0,0-.77,28.69,.77,30.22l-.19,1.91h-32.71v9.37s31.94-.77,32.33,0c.38,.77-5.74,25.82,1.72,29.65s13.96,0,13.96,0c0,0,3.83-.96-.38-29.65l-.38-1.34,53.37-.96-1.91,150.92h-5.16l-.19-7.65,1.72-1.53s1.53-2.49-.19-3.25c-1.72-.77-4.4-4.59-4.4-4.59l-2.49-.19,.57-11.09s-5.93-3.83-7.65-.19l-1.34,11.09-17.41,.38s-5.16,1.34-4.97,8.8c.19,7.46,.77,56.81,.77,56.81,0,0,1.34,5.55,6.12,3.83l23.72,.33s4.97,1.96,5.55-4.92v-7.08l5.16-.27-2.1,185.23h-3.83s-5.36,5.36,.19,8.22h2.49l.57,13.77,19.89-1.15v-12.62h3.83s2.1-3.44,.96-4.78l-4.21-.19,.38-155.7,5.36,.19v-5.93h-5.16l-.19-2.87,4.21,.19v-13.39l-3.63-.38-.38-11.48,5.16,.19v8.99s-.96,3.83,3.44,4.02c4.4,.19,28.31,.96,28.31,.96,0,0,3.63,.57,3.44-4.78l1.91-48.39h3.63s4.02-2.87,2.1-4.21c-1.91-1.34-4.78-.57-4.78-.57l.19-3.63s.38-7.08-3.63-7.46c-4.02-.38-18.55-.96-18.55-.96l.19-12.24s-7.08-1.91-7.08,.19l-.57,12.43s-6.12-.19-6.5,5.74l-.42,10.52h-5.7l1.15-179.61s2.68-10.71,2.68-11.29-.19-22.95-.19-22.95h3.06l-.19,21.81,8.8,.38,.38-36.53-3.06-.19s-7.84-38.64,38.06-55.85l35.58-11.48s1.63,2.3,8.32,0c0,0,50.4-17.88,51.45-19.32v-1.53s-7.08-4.02-22.47,.67Zm-149.39,346.3v-24.1h6.69l-.27,24.1h-6.42Zm16.88,187.16h-3.73v-26.68h3.73v26.68Zm0-57.96h-3.73v-26.68h3.73v26.68Zm0-48.2h-3.73v-26.68h3.73v26.68Zm0-53.37h-3.73v-26.68h3.73v26.68Zm1.86-53.37h-3.73v-26.68h3.73v26.68Zm0-53.37h-3.73v-26.68h3.73v26.68Zm12.5,55.77l-1.02,25.62-5.16-.38,.38-25.44,5.8,.2Z"/>
                <polygon class="cls-10" points="1171.96 1256.8 1171.96 1261.39 1179.56 1261.39 1215.14 1286.21 1215.14 1281.05 1178.41 1256.8 1171.96 1256.8"/>
              </g>
              <path class="cls-10" d="M1241.39,1293.96l-2.62-1.15-2.98,3.73v9.18c0,.43,2.3,2.87,4.59,2.01,2.3-.86,1-13.77,1-13.77Zm-1.86,10.9s-.86,1.15-1.24,0c-.38-1.15,0-8.61,0-8.61h1.82l-.57,8.61Z"/>
              <path class="cls-10" d="M1236.94,1300.56l-2.62-1.15-2.98,3.73v9.18c0,.43,2.3,2.87,4.59,2.01,2.3-.86,1-13.77,1-13.77Zm-1.86,10.9s-.86,1.15-1.24,0c-.38-1.15,0-8.61,0-8.61h1.82l-.57,8.61Z"/>
            </g>
            <polygon class="cls-10" points="1170.95 1334.7 1170.95 1339.72 1178.56 1339.72 1214.13 1364.4 1214.13 1359.23 1176.84 1334.7 1170.95 1334.7"/>
          </g>
          <path class="cls-10" d="M1249.28,1458.22v-2.04s-.79-.22-.79-.32v-1.72s-1.36-28.05,2.8-33.35c4.16-5.31,3.16-10.47,3.16-10.9s-1.15-7.17-3.87-8.03-14.19,0-14.19,0c0,0-6.76-3.3-8.34-3.44l2.15,1.86s6.17,1.79,5.81,2.44c0,0,12.19-1.36,13.92,.07,0,0,5.59,1.65,3.23,13.56,0,0-4.88,4.23-5.31,17.29l.29,20.94-.79-.36s-1.51-4.23-8.61-2.58-8.68,.29-8.68,.29c0,0-.29,.93-.07,.93s5.24,1.43,8.68-.29,7.39-.72,8.25,2.37l-.22,1-.79,.72-.07,1.22,3.44,.36Z"/>
        </g>
        <path class="cls-10" d="M1196.85,1456.78v-2.37l1-.72s2.08,6.24,6.1-28.62c4.02-34.86,11.62-24.96,11.62-24.96l-1.43,.22-1.39-.94s-5.07-5.74-9.52,36.23c0,0-2.73,15.35-3.23,16.93,0,0,3.08-4.23,13.41-2.87s-.14,.79-.36,.79-7.1-3.37-13.13,3.51l-1.36,.93,.5,2.37-2.22-.5Z"/>
      </g>
      <path class="cls-3" d="M1274.67,1483.32s1.15-5.16,5.74-1.86c4.59,3.3-.72,51.5-.72,51.5,0,0-2.02,11.98-7.46,20.37-2.63,4.06-6.07,7.28-10.47,7.89-13.48,1.86-19.65-1.86-19.65-1.86l-10.62-10.04v-5.88s30.41,22.09,42.75-8.18c0,0,5.45-43.18,2.87-51.21,0,0,3.3,69.58-5.02,74.02-8.32,4.45-16.35-7.89-16.35-7.89l1.15-.29s-1.72,12.15-14.49,10.9c0,0-12.34-8.32-13.34-16.07s1.15-3.73,1.15-3.73l-3.16-49.64,47.63-8.03Z"/>
    </g>
    <path class="cls-10" d="M1273.77,1832.29v-98.23l-6.84-10.38,6.84-5.59v-16.77s10.26-8.78,18.81-6.39,19.66-.41,19.66-.41v-59.48s.75-15.67,14.53-15.37,84.63,0,84.63,0c0,0,10.26-1.49,12.5,11.38,2.24,12.88,0,59,0,59l1,142.25h-151.14Z"/>
    <path class="cls-10" d="M1127.82,1673.38l31.56-9.86s16.05,6.77,11.58,22.77,0,47.7,0,47.7h83.71s14.04-1.19,12.27,4.74-1.78,8.02,3.56,6.97,7.7,7.68,7.7,7.68l-8.3,12.6-1.19,66.31h173.63v-157.82l67.3-28.19h16.85l31.61,58.9-2.33,160.8s207.76-61.48,210.72-61.48,271.41-113.78,271.41-113.78l414.81,339.89H608.15v-391.59l519.67,34.36Z"/>
    <g>
      <g>
        <g>
          <path class="cls-10" d="M1489.25,1842.91v-112h-2.44l.37-18.37,487.41-4.74v-3.56h17.19v16.59l-2.02,1.34,.39,214.36h-5.33l-.89-212.67-3.56,3.78v101.11h-8.89l.22,2,2.22-.22,2,2.22-.67,2.67-32.44,.22v-4.22l2-2-57.78,.44-9.33,8.67-1.78-6.22,3.11-6,4.44-4.22,.22-70-10.22-16.67-2.89-.89,8.67-1.11,4.44,9.11-.22-10.89,90.67-.67,.22,92-4,.44v2.67h6l-.44-107.11-100.44,1.78-13.78,4.44h-5.78v-9.11l-100.67,.67-.67,2.44-2.67,4.67-5.78,2.89-7.7-.22-4.96-1.33s-3.33-3.33-4-3.33-1.11-4.22-1.11-4.22l-105.11,1.33v9.33h-3.56l.89,106.67s-9.33,.89-9.33-.22,.44-99.78,.44-99.78l-11.56,11.56-1.56-.22-71.11,100.89-2.89-2,70.89-100.89,.22-3.56,3.33-4.44,.22-4.44,4.89-7.56-97.33,1.11,36,39.78,6.67-6.89,18.22,18.22-7.11,7.78,54,62.22s-5.33,2.44-5.33,1.78-52.89-59.11-52.89-59.11l-6.89,5.78-18-17.11,5.56-7.56-23.78-25.33,60.89,98.67-4.22,1.56-59.11-97.33-15.78-16.44,.89,112.44,358.22-7.56,.22,9.11-288.89,5.56-.44,11.56-.22,4-78,2.44-.69-25.85,3.13-.22Z"/>
          <path class="cls-10" d="M1861.92,1862.32l.22,9.56h.9c-.81,1.07-1.34,1.78-1.34,1.78l3.46-1.78h1.43l-.02-.72,3.35-1.72,5.56-8.22h18l.67,10.44,5.11,.44-.67-11.11,47.11-.22-2.67,9.33,13.78,1.33-2.22-11.11,27.33-.44-.44-15.56,4.44-3.11v-6.44l-49.78,1.11-5.33-9.78-4.44,1.56,4.41,7.77-32.63,1.35v-9.33l-9.56,9.33h-8.97v-108.22h14.09l-.22,6.67,6.44-1.56-.22-5.11,65.56-1.56-2.23,4.08,9.78,3.7,5.11-5.56,.22-13.56-8.22,1.33-2.44,6.22-68.22,1.56v-6.89l-6,.67v6l-15.78,.22-3.56-9.11-9.56,5.11,2.42,3.91-5.31-1.69v104.67l-3.11,.67-1.33,1.56v1.33l-105.78-115.56v6l102.89,114.67-28,6.89-.22,4.67-35.11,.89-.22,2.67h35.11l-.22,6-38.22,3.33s-4.22-1.33-4.89-1.56c-.67-.22-8.44-3.56-8.44-3.56l-4-5.11,1.56-5.33-2.89,.44-1.78,4.44,2.22,4.22s2.22,2.67,2.89,3.11,15.33,7.11,16.22,6.89c.89-.22,38-4,38-4l2,2h33.78Zm12-33.11l-3.33-.22,.63-97.16,4.95,7.99-.24,92.51-2-3.11Zm31.33,28.22v-12.44h10.22v12.44h-10.22Zm15.56,0v-12.44h10.89v12.44h-10.89Zm-50,3.56c0,.32-2.13,3.29-4.32,6.27l-.12-5.6s4.44-1.33,4.44-.67Z"/>
        </g>
        <path class="cls-10" d="M1746.14,1724.76v117.11h-4v-118h-1.56v118h-4.22v-118h-4.28l-7.95,8.89,11,94.89-103.66,13.36-13.78-103.81,2.07-.67,103.04-13.78,.22,2.44-2.67,5.33v-3.56l-98.67,12.67,13.56,97.78,95.33-11.78,.67-2-9.78-87.56-2.67,2.89s10,82.89,8.89,84l-87.56,10.44-2.44,5.11-4.89-.44-.44-7.56,4.89-6.44-11.11-81.56,91.11-12v1.78l12.89-13.33h14.89l1.11,5.78Z"/>
      </g>
      <polygon class="cls-10" points="1582.14 1722.32 1582.14 1847.21 1586.37 1843.87 1586.37 1720.1 1582.14 1722.32"/>
    </g>
    <g>
      <g>
        <g>
          <g>
            <g>
              <g>
                <path class="cls-6" d="M1845.87,1048.79v1.97c1.36,1.85,66.35,24.91,66.35,24.91,8.63,2.96,10.73,0,10.73,0l45.88,14.8c59.19,22.2,49.08,72.02,49.08,72.02l-3.95,.25,.49,47.11,11.35-.49-.25-28.12h3.95s-.25,28.86-.25,29.6,3.45,14.55,3.45,14.55l1.48,231.6h-7.35s-.54-13.57-.54-13.57c-.49-7.65-8.39-7.4-8.39-7.4l-.74-16.03c0-2.71-9.13-.25-9.13-.25l.25,15.79s-18.74,.74-23.92,1.23c-5.18,.49-4.69,9.62-4.69,9.62l.25,4.69s-3.7-.99-6.17,.74c-2.47,1.73,2.71,5.43,2.71,5.43h4.69s2.47,62.4,2.47,62.4c-.25,6.91,4.44,6.17,4.44,6.17,0,0,30.83-.99,36.5-1.23,5.67-.25,4.44-5.18,4.44-5.18v-11.59s6.66-.25,6.66-.25l-.49,14.8-4.69,.49v17.27s5.43-.25,5.43-.25l-.25,3.7h-6.66s0,7.65,0,7.65l6.91-.25,.49,200.77-5.43,.25c-1.48,1.73,1.23,6.17,1.23,6.17h4.93v16.28s25.65,1.48,25.65,1.48l.74-17.76h3.21c7.15-3.7,.25-10.61,.25-10.61h-4.93s-2.71-238.85-2.71-238.85l6.66,.35v9.13c.74,8.88,7.15,6.35,7.15,6.35l30.58-.43c6.17,2.22,7.89-4.93,7.89-4.93,0,0,.74-63.63,.99-73.25,.25-9.62-6.41-11.35-6.41-11.35l-22.44-.49-1.73-14.31c-2.22-4.69-9.87,.25-9.87,.25l.74,14.31-3.21,.25s-3.45,4.93-5.67,5.92c-2.22,.99-.25,4.19-.25,4.19l2.22,1.97-.25,9.87h-6.66s-2.47-194.6-2.47-194.6l68.81,1.23-.49,1.73c-5.43,37-.49,38.23-.49,38.23,0,0,8.39,4.93,18,0,9.62-4.93,1.73-37.24,2.22-38.23,.49-.99,41.68,0,41.68,0v-12.09s-42.18,0-42.18,0l-.25-2.47c1.97-1.97,.99-38.97,.99-38.97,0,0-16.28-2.47-18.25,.49-1.97,2.96-.99,38.48-.99,38.48l-69.06-1.97v-87.31s68.07,2.47,68.07,2.47c0,0-2.96,36.01,0,39.46,2.96,3.45,15.79,.49,19.73,0,3.95-.49,0-38.97,0-38.97l59.19,2.96v-13.32s-59.69-2.1-59.69-2.1l.74-42.18-17.39,.37-1.85,3.7v36.26s-70.2-1.29-70.2-1.29l-.28-11.1c-1.29-2.13-8.14-1.57-8.14-1.57-16-1.85-15.45,2.87-15.45,2.87l.28,14.06-4.9,.55,.09,18.22,2.59,.09-.19,6.78h-4.5s-1.42-30.58-1.42-30.58c1.97-43.16-47.6-62.03-47.6-62.03l-52.91-16.65-6.66-5.06s-21.46-8.26-41.31-14.31c-19.85-6.04-28.98-.86-28.98-.86Zm213.33,447.41l-.35-31.08h8.63v31.08h-8.28Zm-13.49,206.93h4.81v34.41h-4.81v-34.41Zm0-74.73h4.81v34.41h-4.81v-34.41Zm0-62.15h4.81v34.41h-4.81v-34.41Zm0-68.81h4.81v34.41h-4.81v-34.41Zm-2.4-68.81h4.81v34.41h-4.81v-34.41Zm0-68.81h4.81v34.41h-4.81v-34.41Zm-8.63,106.06l.49,32.8-6.66,.49-1.32-33.03,7.48-.26Z"/>
                <polygon class="cls-6" points="2110.27 1160.58 2110.27 1166.5 2100.46 1166.5 2054.59 1198.5 2054.59 1191.84 2101.94 1160.58 2110.27 1160.58"/>
              </g>
              <path class="cls-6" d="M2022.03,1226.25c2.96,1.11,5.92-2.03,5.92-2.59,0-.56,0-11.84,0-11.84l-3.84-4.81-3.37,1.48s-1.66,16.65,1.29,17.76Zm.37-14.8h2.34s.49,9.62,0,11.1c-.49,1.48-1.6,0-1.6,0l-.74-11.1Z"/>
              <path class="cls-6" d="M2027.77,1234.76c2.96,1.11,5.92-2.03,5.92-2.59v-11.84s-3.84-4.81-3.84-4.81l-3.37,1.48s-1.66,16.65,1.29,17.76Zm.37-14.8h2.34s.49,9.62,0,11.1c-.49,1.48-1.6,0-1.6,0l-.74-11.1Z"/>
            </g>
            <polygon class="cls-6" points="2111.56 1261.02 2111.56 1267.5 2101.76 1267.5 2055.88 1299.31 2055.88 1292.65 2103.98 1261.02 2111.56 1261.02"/>
          </g>
          <path class="cls-6" d="M2010.56,1420.29v-.46s0-2.17,0-2.17c0,0,1.02-.28,1.02-.42v-2.22s1.76-36.16-3.61-43.01-4.07-13.5-4.07-14.06c0-.55,1.48-9.25,4.99-10.36s18.29,0,18.29,0c0,0,8.71-4.25,10.75-4.44l-2.77,2.4s-7.95,2.31-7.49,3.14c0,0-15.72-1.76-17.94,.09,0,0-7.21,2.13-4.16,17.48,0,0,6.29,5.46,6.84,22.29l-.37,27.01,1.02-.46s1.94-5.46,11.1-3.33,11.19,.37,11.19,.37c0,0,.37,1.2,.09,1.2s-6.75,1.85-11.19-.37-9.53-.92-10.64,3.05l.28,1.29,1.02,.92,.09,1.57-4.44,.46Z"/>
        </g>
        <path class="cls-6" d="M2078.17,1418.44v-3.05s-1.29-.92-1.29-.92c0,0-2.68,8.05-7.86-36.9-5.18-44.95-14.98-32.19-14.98-32.19l1.85,.28,1.79-1.21s6.54-7.4,12.27,46.71c0,0,3.51,19.79,4.16,21.83,0,0-3.98-5.46-17.3-3.7-13.32,1.76,.18,1.02,.46,1.02s9.16-4.35,16.93,4.53l1.76,1.2-.65,3.05,2.87-.65Z"/>
      </g>
      <path class="cls-4" d="M1977.82,1452.66s-1.48-6.66-7.4-2.4,.92,66.41,.92,66.41c0,0,2.6,15.45,9.62,26.27,3.4,5.24,7.83,9.39,13.5,10.17,17.39,2.4,25.34-2.4,25.34-2.4l13.69-12.95v-7.58s-39.22,28.49-55.12-10.54c0,0-7.03-55.68-3.7-66.04,0,0-4.25,89.72,6.47,95.45,10.73,5.73,21.09-10.17,21.09-10.17l-1.48-.37s2.22,15.66,18.69,14.06c0,0,15.91-10.73,17.2-20.72,1.29-9.99-1.48-4.81-1.48-4.81l4.07-64-61.41-10.36Z"/>
    </g>
  </g>
  <g id="truemidground">
    <polygon class="cls-6" points="2294.48 1519.38 2065.15 1531.38 2075.82 1977.79 2052.71 1820.39 1532.12 1857.43 1048.26 1807.17 708.71 1888.53 730.04 1977.79 2378.04 2003.62 2294.48 1519.38"/>
    <path class="cls-6" d="M1224.51,1864.3v-98.23s6.84-10.38,6.84-10.38l-6.84-5.59v-16.77s-10.26-8.78-18.81-6.39-19.66-.41-19.66-.41v-59.48s-.75-15.67-14.53-15.37-84.63,0-84.63,0c0,0-10.26-1.49-12.5,11.38-2.24,12.88,0,59,0,59l-1,142.25h151.14Z"/>
    <g>
      <path class="cls-6" d="M747.79,1761.76l4.94-286.59-12.97-7.12v-14.24s-13.28-24.33-14.67-46.43c0,0,1.85-3.41,5.56-3.12l.93-90.04s4.32-1.93,7.33-1.48l20.15-10.38-.93-4.3,3.55-2.52,.31-106.95h-2.47s-2.32-2.08-2.32-2.08l2.63-12.46-16.29,1.19-1.31-1.19,8.8-10.83s11.43,5.93,12.35,3.41v-14.54s-6.49,.89-6.49,.89l-.77-3.41,4.48-4.01-.46-3.41-6.02,4.45-2.63-1.93,.62-2.52,4.48-5.93s-8.49,3.56-14.21-1.78c0,0,1.54-2.08,1.85-2.37s15.75-9.05,15.75-9.05l.77-85.15-1.85-2.52-2.63,2.08-2.78-.3s-2.78-5.93-3.86-12.16c0,0-2.63-2.82-2.47-3.26s-.77-4.75-.77-4.75l-2.16-5.93v-12.31s1.7,2.23,1.7,2.23v9.2s3.55,5.64,3.55,5.64v-9.05s-1.08-1.34-1.08-1.78,.46-4.6,.46-4.6l7.1-4.3-1.54-8.6-6.33-6.08,.31-2.82h2.32s7.1,6.97,7.1,6.97c0,0,1.08-138.4,1.08-138.85s-2.93-9.79-2.93-9.79l3.55-134.25-3.4-.89-1.54-4.01,.31-6.08,1.39-91.53,41.54-47.17h253.24s-1.03,40.3-1.03,40.3l-3.09,.59v130.93s-1.24,1.58-1.24,1.58l.82,39.75-2.26,106.21,5.76-5.14,2.15,2.58v18.88s1.54,1.59,1.54,1.59l3.01-.11s2.86-6.6,11.23-4.01c0,0-.12-8.42,0-8.42s5.56-.19,5.56-.04c0,.15-.19,4.12-.19,4.12l-1.81-.04,.5,4.67,3.71,.89v12.28s10.23,11.31,10.23,11.31c0,0,.46,2.19,.35,2.26s-.97,.63-.97,.63l-2.97-.78-11.62-8.53s-5.56-2.37-4.13,8.49c0,0,14.21,7.71,14.17,7.82s-2.35,4.45-2.35,4.45l-4.05-.11-17.8-12.83s-1.24,2.89-1.39,3.41,.04,8.23,.04,8.23l4.4,6.6-.15,3.08-2.16,.04,.12,4.12,7.14,4.82-.19,2.3s-3.44-.26-3.55-.37-5.64-4.93-5.64-4.93c0,0-2.82,7.19,1.58,11.79l-.62,2.71-3.44-.19,.19,12.31,5.33,4.75-.35,2.23-1.81,1.26s-1,16.73-12.74,7.38l.73,49.17-2.74,2.08s.08,3.93,.23,4.01,4.29,.78,4.29,.78l-2.32,53.51,2.59,.37,.23,2-2.82,1.08-1.43,45.95-.15,43.72-7.06,8.86-1.53,5.3-.31,16.52s-3.81,11.47-17.6,25.81l-.31,12.46s-1.96,.4-1.96,.69c0,.3,0,24.13,0,24.13l-2.26,2.47v3.76s2.88,.89,2.88,.89c0,0-.51,122.63-.21,122.92s4.22,2.87,4.22,2.87l-4.43,15.33s-4.32-.3-4.63,0-14.31,21.16-13.18,24.03,11.74,7.42,11.74,7.42l1.96,3.56-1.54,6.03-.72,7.52,1.54-.1,.31-4.65,4.63,.2-.93,19.19s-7.21,3.46-8.24,15.33c-1.03,11.87-2.47,36.1-2.47,36.1l.62,12.95,2.88,4.94-1.85,4.55-4.32-.59-.62,27.1,7,2.77,1.44,3.76-2.26,3.36-2.68,1.58-.62,113.53,.82,13.84,13.38,.59s2.47,6.72,2.88,7.52,.41,17.8,.41,17.8l-271.16,6.92Z"/>
      <path class="cls-6" d="M754.17,1555.47l-8.44-5.74-5.56-1.58-15.08-.99s-7.98,.99-8.8-18.2c-.82-19.19-1.65-50.04-1.65-50.04h4.53s.21,33.62,.21,33.62c0,0,8.65,18.99,8.44,18.39s29.65-53.4,29.65-53.4l-.82,20.57s-22.65,23.14-26.56,40.35l-2.68,.4s-7.82-19.98-8.03-19.38,.41,11.27,.41,11.27c0,0-2.88,13.65,17.91,12.66,20.79-.99,29.24,25.12,29.24,25.12l-12.77-13.05Z"/>
    </g>
    <g>
      <g>
        <path class="cls-6" d="M1776.8,1796.03c-1.69,0-98.71-3.38-98.71-3.38l-1.69,5.36h-11v11.85l-67.69-1.41v-5.92l-3.1-1.27h-38.92l-3.67,2.12h-22.85s-3.95-22.85-5.92-23.97-117.89-2.26-122.12,1.13c0,0-2.82,7.05-1.41,8.46h-27.36v-6.49s-20.31-3.1-27.36-2.82c0,0,1.69-6.49,0-6.49h-16.92v7.33s-10.72,1.41-18.33-3.1l-33.14,.42,.42,.92,31.45,.07s-.42,2.12-.63,1.97-37.44-.07-37.44-.07l1.27,.92,42.73,.99-.49,4.09-34.27-.99s10.08,5.15,10.36,5.15,8.11-.35,8.11-.35l2.68,.99,.07,1.9-28.77,.78-7.47-8.74-29.83-.78-6.42,2.26-62.33,1.48-1.69,1.69-26.23-3.38-8.04-.85-5.29-6.13s-1.69-1.06-2.12-.42,0,4.87,0,4.87l2.54,1.48-2.73,1.9-33.23,1.06v2.89l1.06,1.55,35.11-1.55,3.38-1.41,2.96,2.96,8.67,.21-1.48,1.69-20.73,1.9-1.27,1.27-5.08,.21-10.36,29.4h-12.27s-2.33,3.6,0,4.65h-11.63l-1.27,2.75h2.33l2.12,1.69h8.25l-1.48,2.96,2.33-1.27,.42-1.27,7.19-.63s-5.08,7.19-5.08,8.04-2.12,12.27-2.12,12.27c0,0-3.6,.85-2.96,9.73,0,0-9.94,5.08-11,10.79v7.83h-42.94s-11.21,9.1-10.15,17.56l-11,21.15s-5.5,3.6-6.98,14.81l-2.54,2.96h-2.12v6.77h2.12l1.48,3.6s50.98,1.06,52.46,1.06h32.79l-.42,3.81h13.11l.42-3.6,148.49,.85,3.81-3.81,5.29,.42s.85,3.81,5.92,5.08l48.02,1.06s17.13-3.38,14.81-12.69l59.79,2.54s-.71-8.46,0-8.67,16.57,4.65,16.57,4.65l-5.5,15.44h-11.07v3.38h12.34l5.08,5.61s-9.31,9.83-7.62,14.07h3.81l-.85,9.31s8.46,2.12,2.54,5.92l-1.06,5.5s5.92,2.75,5.92,13.75l-3.17,1.06v6.98h2.12l-.63,5.08,23.48,1.27-.42-2.33,8.25-.42s1.48,4.44,7.09,1.9l17.24-.21,.63,19.46s-20.73,.63-20.1,3.81l2.22,2.33h21.26l1.48,1.48h64.94s6.56,6.13,10.15,4.87l.85-4.44,103.86-1.06s-10.11,38.64,31.09,26.86c1.48-.42,97.59-14.81,97.59-14.81v-271.6Z"/>
        <polygon class="cls-6" points="1524.79 1790.11 1547.08 1790.11 1556.38 1802.8 1554.69 1804.07 1545.24 1792.23 1524.79 1792.23 1524.79 1790.11"/>
      </g>
      <path class="cls-6" d="M1536.11,2066.16s-.32-2.64-1.69-2.96-19.67,0-19.67,0v-9.1l-4.97,.85v6.24l2.43,2.54-41.04,.42-.63-10.58h-3.81l1.59,15.55h2.43l1.06-.95,64.3-2.01Z"/>
    </g>
    <path class="cls-6" d="M2373.6,1752.73l-10.31-97.59v-74.58l-7.93-30.15v-145.99l3.97-23.01-7.93-70.61,1.19-3.77,6.74,3.57,4.56,1.19,1.39-2.38s-5.55-8.33-6.15-8.93-5.55-2.58-6.15-2.58-.4-2.98-.4-2.98c0,0,4.96,.2,5.75-4.17s-1.39-32.93-1.39-32.93c0,0-6.94-3.57-9.92-1.59l-.79-24,7.74,1.59s2.18-4.56,2.18-5.16-4.96-6.74-4.96-6.74l-4.17-9.52-1.59-102.95,3.37-3.57-.2-168.2,3.77-1.59s-5.16-7.74-4.56-9.72,5.75-5.75,5.75-5.75l4.96-1.98-2.38-4.56h-3.77l-1.19,2.38s-31.34-2.38-30.94,3.37c0,0-11.11-1.59-14.88,5.36v-4.36s-38.8,15.88-89.66,29.75c-2.18,.6-10.91,8.73-31.34,10.51v-16.07s2.78-2.38,3.17-2.98,1.39-10.31,1.39-10.31l1.98-1.98v-14.68l-14.48,.4v10.51l.99,4.56-.99,16.07-10.91,.6-1.19-25.59-3.17-.2-.99,22.61v17.26l-2.98,5.16,.99,21.82,1.19,4.76,.4,2.18-2.58,.4v9.52l2.38,1.19,.4,11.11s-1.79,20.43-2.78,21.03-7.74,10.91-7.74,10.91c0,0,6.55,19.24,12.3,26.98,5.75,7.74,2.38,4.96,2.38,4.96,0,0-10.31-15.07-18.45-13.09,0,0,1.59,13.09,4.76,16.26l-6.74-.4,.79,13.49,16.26,.2-1.79,13.49,1.39,197.76,1.59,5.36-.2,85.89,1.79,2.18-.4,85.69-8.33,3.17-4.76,91.64-10.31,.2-1.98,172.17,235.84-2.58Z"/>
  </g>
  <g id="Blirb_reference">
    <g>
      <g>
        <g>
          <path class="cls-7" d="M2216.84,1484.68h-112v2.44l-18.37-.37-4.74-487.41h-3.56v-17.19h16.59l1.34,2.02,214.36-.39v5.33l-212.67,.89,3.78,3.56h101.11v8.89l2-.22-.22-2.22,2.22-2,2.67,.67,.22,32.44h-4.22l-2-2,.44,57.78,8.67,9.33-6.22,1.78-6-3.11-4.22-4.44-70-.22-16.67,10.22-.89,2.89-1.11-8.67,9.11-4.44-10.89,.22-.67-90.67,92-.22,.44,4h2.67v-6l-107.11,.44,1.78,100.44,4.44,13.78v5.78h-9.11l.67,100.67,2.44,.67,4.67,2.67,2.89,5.78-.22,7.7-1.33,4.96s-3.33,3.33-3.33,4-4.22,1.11-4.22,1.11l1.33,105.11h9.33v3.56l106.67-.89s.89,9.33-.22,9.33-99.78-.44-99.78-.44l11.56,11.56-.22,1.56,100.89,71.11-2,2.89-100.89-70.89-3.56-.22-4.44-3.33-4.44-.22-7.56-4.89,1.11,97.33,39.78-36-6.89-6.67,18.22-18.22,7.78,7.11,62.22-54s2.44,5.33,1.78,5.33-59.11,52.89-59.11,52.89l5.78,6.89-17.11,18-7.56-5.56-25.33,23.78,98.67-60.89,1.56,4.22-97.33,59.11-16.44,15.78,112.44-.89-7.56-358.22,9.11-.22,5.56,288.89,11.56,.44,4,.22,2.44,78-25.85,.69-.22-3.13Z"/>
          <path class="cls-7" d="M2236.25,1112.02l9.56-.22v-.9c1.07,.81,1.78,1.34,1.78,1.34l-1.78-3.46v-1.43l-.72,.02-1.72-3.35-8.22-5.56v-18l10.44-.67,.44-5.11-11.11,.67-.22-47.11,9.33,2.67,1.33-13.78-11.11,2.22-.44-27.33-15.56,.44-3.11-4.44h-6.44l1.11,49.78-9.78,5.33,1.56,4.44,7.77-4.41,1.35,32.63h-9.33l9.33,9.56v8.97h-108.22v-14.09l6.67,.22-1.56-6.44-5.11,.22-1.56-65.56,4.08,2.23,3.7-9.78-5.56-5.11-13.56-.22,1.33,8.22,6.22,2.44,1.56,68.22h-6.89l.67,6h6l.22,15.78-9.11,3.56,5.11,9.56,3.91-2.42-1.69,5.31h104.67l.67,3.11,1.56,1.33h1.33l-115.56,105.78h6l114.67-102.89,6.89,28,4.67,.22,.89,35.11,2.67,.22v-35.11l6,.22,3.33,38.22s-1.33,4.22-1.56,4.89c-.22,.67-3.56,8.44-3.56,8.44l-5.11,4-5.33-1.56,.44,2.89,4.44,1.78,4.22-2.22s2.67-2.22,3.11-2.89,7.11-15.33,6.89-16.22c-.22-.89-4-38-4-38l2-2v-33.78Zm-33.11-12l-.22,3.33-97.16-.63,7.99-4.95,92.51,.24-3.11,2Zm28.22-31.33h-12.44v-10.22h12.44v10.22Zm0-15.56h-12.44v-10.89h12.44v10.89Zm3.56,50c.32,0,3.29,2.13,6.27,4.32l-5.6,.12s-1.33-4.44-.67-4.44Z"/>
        </g>
        <path class="cls-7" d="M2098.69,1227.79h117.11v4h-118v1.56h118v4.22h-118v4.28l8.89,7.95,94.89-11,13.36,103.66-103.81,13.78-.67-2.07-13.78-103.04,2.44-.22,5.33,2.67h-3.56l12.67,98.67,97.78-13.56-11.78-95.33-2-.67-87.56,9.78,2.89,2.67s82.89-10,84-8.89l10.44,87.56,5.11,2.44-.44,4.89-7.56,.44-6.44-4.89-81.56,11.11-12-91.11h1.78l-13.33-12.89v-14.89l5.78-1.11Z"/>
      </g>
      <polygon class="cls-7" points="2096.25 1391.79 2221.14 1391.79 2217.8 1387.57 2094.03 1387.57 2096.25 1391.79"/>
    </g>
    <g>
      <g>
        <g>
          <path class="cls-7" d="M2379.53,1483.47l105.08,38.75,.85-2.29,17.11,6.7-164.19,458.95,3.34,1.23-5.95,16.12-15.57-5.74-.56-2.36-201.25-73.8,1.85-5,199.84,72.75-2.31-4.64-94.87-34.98,3.08-8.34-1.95-.48-.56,2.16-2.78,1.11-2.27-1.55,11.02-30.52,3.96,1.46,1.18,2.57,19.57-54.36-4.9-11.76,6.45,.48,4.55,4.99,2.42,5.63,65.6,24.43,19.17-3.82,1.83-2.4-1.96,8.52-10.09,1.02,10.29,3.56-30.74,85.3-86.39-31.62,.97-3.91-2.5-.92-2.08,5.63,100.65,36.64,33.08-94.86,.6-14.46,2-5.42,8.55,3.15,34.2-94.68-2.06-1.47-3.46-4.12-.71-6.42,2.87-7.15,2.97-4.2s4.28-1.97,4.51-2.6,4.35,.42,4.35,.42l35.12-99.08-8.76-3.23,1.23-3.34-100.39-36.07s2.4-9.06,3.44-8.68,93.46,34.94,93.46,34.94l-6.84-14.84,.75-1.38-70.05-101.63,2.88-2.02,70.13,101.42,3.26,1.44,3.02,4.67,4.09,1.75,5.4,7.2,32.63-91.71-49.78,20.01,4.16,8.64-23.4,10.79-4.84-9.36-77.06,29.14s-.45-5.85,.18-5.62,73.76-29.17,73.76-29.17l-3.04-8.46,22.28-10.97,5.17,7.83,32-13.54-113.64,22.99v-4.5s111.77-21.78,111.77-21.78l20.89-9.11-105.81-38.07-116.85,338.71-8.63-2.94,94.74-272.97-10.69-4.42-3.68-1.59,24.69-74.03,24.49,8.3-.87,3.02Z"/>
          <path class="cls-7" d="M2232.38,1826.4l-9.04-3.1-.31,.84c-.73-1.13-1.2-1.87-1.2-1.87l.47,3.86-.49,1.34,.69,.24,.45,3.74,5.79,8.06-6.23,16.89-10.03-2.99-2.19,4.64,10.66,3.22-16.09,44.28-7.83-5.73-6.02,12.47,11.19,1.76-9.04,25.8,14.75,4.97,1.38,5.25,6.05,2.23,16.18-47.09,11.02-1.62,.08-4.71-8.81,1.45,10.03-31.08,8.76,3.23-5.45-12.19,3.11-8.42,88.4,32.6,13.14,4.84-4.87,13.22-6.18-2.52-.77,6.58,4.87,1.56-21.22,62.04-3.06-3.5-6.85,7.9,3.44,6.72,12.64,4.9,1.59-8.18-4.99-4.45,22.14-64.55,6.46,2.38,1.45-5.86-5.63-2.08,5.25-14.88,9.78-.18-1.49-10.73-4.51,.92,3.42-4.4-98.2-36.21,.45-3.15-1-1.79-1.25-.46,145.02-59.26-5.63-2.08-143.18,56.86,3.22-28.65-4.3-1.82,11.31-33.25-2.43-1.13-12.15,32.94-5.55-2.28,10.1-37.01s2.71-3.5,3.15-4.05c.44-.55,6.26-6.69,6.26-6.69l6.18-1.98,4.47,3.3,.58-2.86-3.55-3.21-4.73,.62s-3.27,1.16-3.92,1.63-11.98,11.93-12.08,12.84c-.1,.91-9.39,37.04-9.39,37.04l-2.57,1.18-11.69,31.69Zm26.91,22.71l1.36-3.05,90.94,34.21-9.2,1.88-86.71-32.23,3.61-.8Zm-37.32,19.63l11.68,4.31-3.54,9.59-11.68-4.31,3.54-9.59Zm-5.38,14.59l11.68,4.31-3.77,10.22-11.68-4.31,3.77-10.22Zm13.96-48.14c-.3-.11-2.35-3.13-4.38-6.22l5.3,1.82s-.29,4.63-.91,4.4Z"/>
        </g>
        <path class="cls-7" d="M2401.5,1765.37l-109.88-40.52,1.38-3.75,110.71,40.83,.54-1.46-110.71-40.83,1.46-3.96,110.71,40.83,1.48-4.01-5.59-10.53-92.83-22.51,23.33-101.88,102.16,22.98-.09,2.17-22.72,101.45-2.37-.64-4.08-4.35,3.34,1.23,22.25-96.96-96.43-21.11-21.93,93.52,1.65,1.32,85.53,21.12-1.79-3.5s-81.23-19.3-81.89-20.72l20.49-85.76-3.95-4.06,2.11-4.43,7.24,2.2,4.35,6.82,80.36,17.79-20.26,89.64-1.67-.62,8.05,16.71-5.15,13.97-5.81-.96Z"/>
      </g>
      <polygon class="cls-7" points="2460.53 1612.34 2343.36 1569.13 2345.02 1574.25 2461.16 1617.07 2460.53 1612.34"/>
    </g>
  </g>
  <g id="blirb_ground">
    <path class="cls-7" d="M779.46,1901.7l175.67,21.86,113.14-58.39,15.56-146.53s23.75-29.88,2.78-37.3c0,0-32.88-19.44-35.77-19.66s-105.48-52.39-185.31-50.71l-127.85-1.89-21.51,289.08,63.3,3.54Z"/>
    <g>
      <path class="cls-7" d="M1506.14,1910.64c.07,.06,3.33,2.9,3.4,3.02,.07,.12,.71,.05,1,.01,.28-.04,2.08,1.28,2.08,1.28l.3,.55,2.82,1.14s.49,.68,.35,1.47,.76,1.45,.76,1.45c-.98,1.55,.04,2.79,.04,2.79,0,0,.63,1.85,.58,2.51,11.19-7.45,26.08-15.06,27.96-28.84,.05-.52,.1-1.03,.15-1.55,0-.03,.01-.06,.01-.1-3.15-1.25-6.45-2.4-6.45-2.4-1.35-.59-1.22-.03-1.22-.03l-3.85-1.46c-.58-.3-.74,.68-.74,.68-.28-.28-5.6-1.55-5.76-1.64-.82-.42-1.68,.05-1.68,.05-.18-.48-5.3-1.96-5.3-1.96,0,0-.29-.58-.35-.67-.06-.08-.5-.36-1.3-.09s-2.91,4.83-2.91,4.83c-1.96,1.44-7.3,7.71-7.3,7.71-4.55,2.79-5.75,5.02-5.75,5.02-.44,1.67,2.74,3.73,2.62,4.23s.48,1.93,.55,2Z"/>
      <path class="cls-7" d="M1543.78,1940.44c-6.91-5-13.8-10.02-20.16-15.58-.11,.42-.03,.74-.03,.74l-.27,.19s-.15-.64-1.35,.58-2.15,1.46-2.15,1.46c-1.27,.94-.7,1.76-.7,1.76-.89,.59-.31,1.95-.31,1.95-2.65,3.12-16.39,9.65-16.39,9.65-3.24,3.25-1.58,5.76-1.58,5.76-.45,.12-.56,1.6-.64,3.24-.08,1.64,1.73,2.52,1.73,2.52,7.52,4.42,30.18-3.4,30.53-4.04,.11-.2,4.39-1.94,10.27-4.26,.16-1.36,.54-2.67,1.04-3.96Z"/>
      <g>
        <path class="cls-7" d="M1529.23,1892.26s10.28,.54,9.2,4.86c0,0,6.48-1.62,7.55,1.62s2.16,42.09-2.16,44.79-19.97,1.08-19.97,1.08v-1.77s-7.55,.15-7.55,.15c0,0-4.32-4.32-1.62-5.4s10.79-.54,10.79-.54c0,0,5.94-10.79-14.57-30.22-20.51-19.43-39.93-23.2-39.93-23.2l-49.65-25.36s-4.86-1.08-5.4-.54-3.24,12.95-3.24,12.95c0,0,2.16,38.31,3.24,39.39s10.25,12.59,3.51,15.74-55.31,1.53-55.31,1.53l-3.78-2.7-2.7-.54,.54-3.78,3.78-1.08s12.41-2.16,12.95-2.16,17.27-8.63,17.27-8.63c0,0,1.62-15.65,0-19.97s-15.65-25.9-14.57-46.95l-.03,.67-.51-1.21s-8.63-16.19-7.55-22.13c1.08-5.94,6.48-10.79,6.48-10.79,0,0,15.65-38.85,35.62-49.11l6.33-19.04-.93-14.42s-6.48-.54-8.09-2.16c0,0,2.04,12.11-3.57,16.58,0,0-24.49,27.13-41.22,28.75,0,0-8.09,0-9.71-3.78,0,0-12.41-.54-30.76-20.51,0,0-18.89-17.27-22.66-16.73l-1.08-2.16s0-9.35,0-9.8c0-.45,4.86-12.86,13.49-13.94,0,0,3.24-1.08,5.4,.54s10.25,5.4,10.25,5.4l4.86,1.08,1.08,2.7-.54,3.24h-8.09s1.08,4.86-2.7,5.94c0,0,23.74,10.25,21.59,7.02l10.79,.54s1.62-17.27,13.49-13.49c0,0-7.02-14.03-.54-18.89s-3.57,0-3.57,0c0,0-3.03-1.62-3.24-2.16s1.41-2.16,1.41-2.16l-3.24,1.08-.54-3.24-3.06,.93s-.72-.39-.72-1.47,1.08-4.32,1.08-4.32c0,0-1.08,1.08-1.62,1.08s-1.08,1.62-1.08,1.62l-1.62-4.86,2.16-4.86-3.24,3.78v-14.03s2.16-2.16,2.16-2.16l-3.24,1.62-1.08,1.62-.54-.54,.69-2.7-1.23,.54-.54-1.08,2.16-5.4-3.24,2.7-1.08-.54-.51-2.16,.51-1.62-1.08,.54-1.08-3.78-1.08-1.62,.54-1.08s-37.77,4.32-48.03,7.02c0,0-3.78,2.16-4.86,2.16s-7.55-1.62-7.55-1.62v-1.35s3.24-2.43,3.24-2.43l5.4-2.7s45.87-10.79,49.11-10.79l1.08-4.86-1.08-1.62,1.08-6.48,2.16-1.62v-1.08s1.62-1.08,1.62-1.08l-1.08-5.4,3.24,2.7,1.62-9.17,2.7,4.32,1.08-1.08s2.16-7.55,2.7-8.09,1.77,0,1.77,0l-.51,3.69,3.06-6.39,1.62,1.08s8.63-7.02,10.25-7.02-.03,2.43-.03,2.43c0,0,2.73-3.51,2.73-4.05s1.62,.54,1.62,.54l.54,1.62,1.08-1.08,2.16,1.62,2.16-1.62,.87,2.97s3.45-2.97,3.99-2.97,2.7,2.7,2.16,3.78,4.32-2.16,4.32-2.16l2.16,3.24,3.21-1.89,1.11,.81s2.7-1.62,2.7-2.16c0-.54,1.62,2.16,1.62,2.16l3.24,.54,1.08,1.62v1.62s2.7,1.08,2.7,1.08l.54,1.08s1.08,1.08,0,1.62,3.78,2.7,3.78,2.16,3.24,3.24,3.24,3.24l2.7,.54,1.08,1.62s5.4,1.62,5.4,2.7-2.16,3.24-2.16,3.24l.54,1.62,7.02-1.62s0-16.73,17.81-12.95c0,0-3.24-17.81,15.11-14.57l12.86-.39-.18-.32s-7.8-16.56-14.3-16.56c-1.08,0-13.49-5.94-13.49-5.94,0,0-3.78-2.16-4.32-2.16s-5.94,1.08-6.48,1.08-1.08,2.16-1.08,2.16l-8.63,10.25-5.4,.54-2.16-.54,.27-2.43h-7.55s-2.7-6.48-2.7-6.48v-7.32s5.94-4.56,5.94-4.56l17.81-2.16s0-1.62,1.08-1.62,11.33,1.08,11.33,1.08l7.55,1.62s11.33,.54,13.49,1.62,25.36,7.02,30.76,12.41c5.4,5.4,10.91,5.4,10.91,5.4,0,0,1.5,4.32,.96,6.48s-1.08,10.25-3.24,10.79,1.08,36.8-19.97,38.95c0,0-4.89,5.68-4.86,5.94l-.04-.35s8.4,1.6,1.92,35.6c0,0-3.24,5.4-3.78,6.48s1.62,23.74-4.32,36.16c0,0-4.32,10.79-2.7,13.49s10.25,27.52-2.16,36.16-16.19,11.33-16.19,11.33c0,0,5.94,19.19,0,31.99-5.94,12.8-5.94,6.33-9.71,23.05l-.27,2.53s42.63-5.94,46.41,15.65c2.65,2.91,26.93,36.62,34.81,35.79h.51Z"/>
        <path class="cls-7" d="M1416.84,1893.05s1.03,5.23,.69,5.61c0,0,.81,.54,.81,1.47,0,.19,1.31,5.5,1.19,5.87,0,0,.94-.31,.94,.34l.47,4.09s.44-.37,.53,1.09c0,0,1.72,12.03,.91,13.06,0,0,.56-.09,.47,2.62v5.03s.56,1.69-1.37,2.16-47.56,2.41-48.09,2.91-24.5,.78-30.25-5.78c0,0-1.44-1.41-.84-2.94s1.16-2.91,1.62-2.87c0,0-.78-2.91,3.31-4.97,0,0,15.09-1.87,18.59-4,0,0-.12-1.47,.91-1.75,0,0-.28-.96,1.22-1.45,0,0,.97,.07,2.5-.71s1.47-.12,1.47-.12l.31-.09s.09-1.5,2.25-1.75l.31,.16s1.56-.03,2.12-.12c0,0,1.16-1.72,2.62-1.31l.28-.84,1.6-1.3s.26-.14,.7-.07,2.16-1.71,2.16-1.71c0,0,.63-1.48,2.46-1.31,0,0,.16-1.1,.94-1.34s1.15-.98,1.15-.98l-.28-3.02,.35-.52s.35-2.2,.19-2.44-.52-.77-.45-.89,1.1-4.31,1.12-4.41,1.03-1.29,1.52-1.41,.87-3.89,2.55-4.27c0,0,2.53,.05,7.1,2.81,0,0,8.01,1.87,10.19,2.95,0,0,5.02-.21,5.62,.37s.56,1.1,.52,1.2-.43,.62-.43,.62Z"/>
      </g>
      <path class="cls-7" d="M1520.51,1899.79s-1.66-.94-6.13,1.97c-4.47,2.91-6.96,4.05-6.96,4.05,0,0-2.39-.62-2.91,.83s.94,2.49,.94,2.49l3.12,2.18s7.38,5.4,7.38,6.24c0,0,.1,3.33,.73,4.57,0,0-.83,.73-.83,1.35s.21,3.29,.21,3.29c0,0,.1,7.62-.73,8.76s-.22,3.22-2.86,4.37-7.24,3.95-8.06,5.2-1.45,1.14-1.45,1.87-.21,4.47,.83,5.4,4.47,1.66,4.47,1.66c0,0,17.57-2.91,20.48-3.43,2.91-.52,8.83-6.96,8.83-6.96,0,0,12.16-20.58,14.34-21.83s7.9-13.62,7.9-13.62c0,0-1.04-2.18-1.77-2.91s-4.16-2.08-4.16-2.08c0,0-5.91-7.81-12.67-8.17,0,0-2.92-2.3-4.27-2.37,0,0,.21-1.94-1.77-.79s-2.91,.79-2.91,.79c0,0-11.02,6.07-11.74,7.62"/>
    </g>
    <path class="cls-7" d="M2230.76,1768.75c-.08-1.7-1.79-1.62-1.95-1.7-.16-.09-.04-.65-.08-.83-.04-.17,.76-.44,.76-.44,0,0,.48-.79,.56-2.66s-3.87-11.48-3.91-11.75,.08-1.92,.08-1.92c0,0,4.3-33.36,2.71-38.25-1.59-4.89-17.85-4.54-17.85-4.54,0,0-38.54-.74-40.69-.79s-8.25-.61-8.25-.61c0,0-89.43-2.1-96.13-2.18-6.7-.09-37.78-4.8-48.3-8.03-10.52-3.23-78.82-5.24-78.82-5.24,0,0-13,.26-13.96,.61-.96,.35-1.12,.79-1.12,.79,0,0-6.85,.44-8.29,.26-1.43-.17-.88-2.36-.88-2.36,0,0,22.8-23.75,23.12-23.93,.32-.17,1.67-1.83,.88-1.66s-1.28,0-1.28,0l-23.91,23.84-1.91,.7-3.83,3.41-13.79-.26c-13.87-3.49-71.42-2.62-80.27-2.01-8.85,.61-14.91,3.41-14.91,3.41-29.17,8.65-84.89,54.4-84.89,54.4l.8,1.66s-.26,.08-.71,.21c-.76-2.42-1.9-6.21-2.32-8.24-.64-3.14-3.03-3.32-3.03-3.32,0,0-23.35-.26-24.39,0s-3.43,3.58-3.43,3.58c0,0,.08,2.27,.56,3.67,.48,1.4,3.35,2.01,3.67,2.18,.32,.17,3.03,4.45,3.03,4.45l2.63,1.98s-.8,.37-2.71,.02c-1.91-.35-14.75,3.14-15.46,3.41s-40.33,14.85-40.33,14.85c-22.08,6.55-26.54,19.12-26.54,19.12-5.58,3.41-7.89,28.9-7.89,28.9,0,0-1.51,1.05-3.43,1.05s-4.14,15.02-4.14,15.02l-.32,2.79c-.32,2.79,1.59,9.43,1.59,9.43l6.38,11.53c5.42,37.72,12.12,38.07,12.75,40.52,.64,2.45,12.12,8.03,12.12,8.03,0,0,47.19,.35,49.1-1.75s5.42-16.42,7.01-20.43c1.59-4.02,13.07-3.32,13.07-3.32l4.14,4.19,3.51,2.45,64.4,2.88c10.52,36.94,28.22,34.84,28.22,34.84,0,0,93.02,4.98,102.11,0,9.09-4.98,11.48-17.68,12.67-19.39,1.2-1.7,.6-4.13,.6-4.13l1.38-.98c1.97-1.18,1.79-5.5,1.79-5.5,2.21-.52,14.29-1.96,19.49-1.9,5.2,.07,8.73,1.44,8.73,1.44,2.99-3.08,7.95-3.01,8.07-2.23,.12,.79,1.97,.85,2.21,.85s7.17-.65,7.17,1.11,6.46,2.03,7.71,2.49c1.26,.46,3.83,2.23,6.34,2.62,2.51,.39,16.26,.39,18.53,.13s2.99-4.19,2.99-4.19c0,0,2.27-.72,2.45,.07s2.39,1.83,2.39,1.83c0,0,3.65,.39,5.14,.52,1.49,.13,.9,.92,.36,1.11-.54,.2-.78,1.7-.78,1.7,21.04-1.31,21.82-6.09,21.82-6.09,.42-1.38-.72-2.82-.72-2.82-.78-1.38,1.02-7.14,1.02-7.14,2.21,0,2.33,3.6,2.33,3.6,0,0-.42,.72,.3,1.05,.72,.33,26.54,.98,26.54,.98,14.11,33.79,23.91,30.13,23.91,30.13,0,0,66.48,3.67,85.37-4.19,18.89-7.86,28.54-31.09,29.05-31.48,.52-.39,2.67-3.1,2.67-3.32s-.12-.96-.6-1.53c-.48-.57-.36-2.4-.36-2.4l1.71-.39,1.12-6.29s-1.08-.04-1.2-.04,0-1.22,0-1.22c2.83,1.48,3.23-24.54,3.23-24.54,1.95-2.01,1.47-3.36,1.67-3.45,.2-.09,2.19-2.71,2.19-2.71,0,0-.28-2.93,.12-3.54,.4-.61,.56-2.23,.56-2.23,0,0,1.87-1.05,1.83-2.05-.04-1,.76-1.7,.52-3.41-.24-1.7-.92-2.05-.92-2.05,4.22-.17,4.1-1.18,4.1-1.18,0,0-.32-.74,.08-.79s7.45-1.22,7.65-1.22,2.31-13.19,1.99-14.32c-.32-1.14-2.55-1.75-2.55-1.75,0,0,5.3-.39,5.46-.44s4.07-4.89,4.66-5.89,1.39-10.78,1.71-11.22c.32-.44,3.07-15.67,3.07-15.67,0,0,1-4.24,.92-5.94Zm-532.52-15.37c-.32,0-4.78-3.93-5.02-4.19s-2.23-2.27-2.23-2.27l17.62-1.22,1.3,4.36c-4.78,1.39-11.46,3.33-11.66,3.33Zm434.56-35.19s-34.59-8.73-35.39-8.38v-1.4s35.55,.7,36.19,1.39c.64,.69,4.46,1.23,4.46,1.23l-5.26,7.16Zm54.04,4.02c-1.91,.35-40.17,0-40.17,0,0,0-1.43-4.54-1.43-6.11s3.19-6.29,3.83-6.29,56.43,1.57,56.43,1.57c0,0-16.74,10.48-18.65,10.83Z"/>
    <polygon class="cls-7" points="739.32 1107.15 875.45 1104.03 875.45 1092.16 868.58 1092.16 870.46 1009.1 851.72 984.12 766.17 984.12 763.67 1084.67 739.32 1107.15"/>
    <path class="cls-7" d="M2240.09,2107.73l11.17-159.64-3.07-86.63-1.24-34.91,11.19-49.59-8.43-237.91-7.79-37.27,8.85-115.54-2.16-6.07-10.78,6.21-7.37,2.2-2.4-3.8s8.57-13.9,9.51-14.9,8.9-4.52,9.87-4.56,.47-4.87,.47-4.87c0,0-8.07,.61-9.61-6.46-1.55-7.07,.36-53.74,.36-53.74,0,0,11.11-6.22,16.07-3.16l-.09-39.16-12.52,3.03s-3.82-7.31-3.85-8.28,7.69-11.28,7.69-11.28l6.24-15.76-3.36-167.86-5.7-5.62-9.39-274.13-6.23-2.37s7.96-12.9,6.87-16.1-9.71-9.04-9.71-9.04l-8.2-2.95,3.62-7.57,6.14-.22,2.08,3.81s50.94-5.69,50.62,3.71c0,0,18.01-3.23,24.55,7.87l-.25-7.11s64.14,23.64,147.83,43.31c3.59,.84,18.28,13.59,51.68,15.32l-.93-26.18s-4.66-3.72-5.34-4.67-2.86-16.73-2.86-16.73l-3.35-3.12-.85-23.92,23.62-.19,.61,17.13-1.35,7.49,2.54,26.13,17.81,.34,.46-41.77,5.16-.51,2.92,36.79,1,28.12,5.15,8.23-.36,35.61-1.66,7.83-.52,3.58,4.23,.5,.55,15.52-3.81,2.08v18.13s4.08,33.19,5.74,34.1,13.24,17.33,13.24,17.33c0,0-9.56,31.73-18.48,44.67s-3.59,8.22-3.59,8.22c0,0,15.94-25.16,29.31-22.4,0,0-1.83,21.43-6.82,26.78l10.97-1.04-.51,22.03-26.5,1.26,3.69,21.88,9.16,322.36-2.28,8.82,5.28,139.96-2.78,3.66,5.6,139.62,13.76,4.69,13.05,149.07,16.82-.27,13.18,280.47-384.5,9.42Z"/>
    <g>
      <g>
        <path class="cls-7" d="M762.74,1977.53c0-2.8,4.9-163.51,4.9-163.51l-7.76-2.8v-18.22h-17.14l2.04-112.12h8.57l1.84-5.14v-64.47l-3.06-6.07v-37.84s33.06-6.54,34.7-9.81c1.63-3.27,3.27-195.28-1.63-202.29,0,0-10.2-4.67-12.25-2.34v-45.32h9.39s4.49-33.64,4.08-45.32c0,0,9.39,2.8,9.39,0v-28.03h-10.61s-2.04-17.75,4.49-30.37l-.61-54.89-1.33,.7-.1,52.09s-3.06-.7-2.86-1.05,.1-62.02,.1-62.02l-1.33,2.1-1.43,70.78-5.92-.82,1.43-56.76s-7.45,16.7-7.45,17.17,.51,13.43,.51,13.43l-1.43,4.44-2.76,.12-1.12-47.65,12.65-12.38,1.12-49.4-3.27-10.63-2.14-103.25-2.45-2.8,4.9-43.45,1.22-13.31,8.88-8.76s1.53-2.8,.61-3.5-7.04,0-7.04,0l-2.14,4.2-2.76-4.52-1.53-55.05h-4.18l-2.24,1.75,2.24,58.16,2.04,5.61-4.29,4.91-.31,14.37-2.45-2.45-2.76-34.34-1.84-2.1-.31-8.41-42.55-17.17v-20.32s-5.2-3.85-6.73,0v-19.27l-3.98-2.1v3.85l-2.45,3.5v13.66l-4.29-2.45,1.84,3.85,1.84,.7,.92,11.91s-10.41-8.41-11.63-8.41-17.76-3.5-17.76-3.5c0,0-1.22-5.96-14.08-4.91,0,0-7.35-16.47-15.61-18.22h-11.33v-71.13s-13.16-18.57-25.41-16.82l-30.61-18.22s-5.2-9.11-21.43-11.56l-4.29-4.2v-3.5h-9.8v3.5l-5.2,2.45s-1.53,84.44-1.53,86.89v54.31l-5.51-.7v21.72l5.2,.7-1.22,245.97,5.51,6.31-.61,8.76s-5.51,1.4-7.35,9.81l-1.53,79.54s4.9,28.38,18.37,24.53l-3.67,99.04s12.25-1.17,12.55,0-6.73,27.45-6.73,27.45l-22.35-9.11v-18.34h-4.9v20.44l-8.11,8.41s-14.23-15.42-20.36-12.61v6.31l-13.47-1.4s-3.06,14.02-8.57,4.2l-7.96-1.75s-3.98,9.81-19.9,9.81l-1.53-5.26h-10.1v3.5l-7.35-1.05-1.84,38.89,3.37-.7,.61,13.66s-6.43,2.45-2.76,11.74l.31,28.56-28.16,1.05s-.92-34.34-5.51-33.29l-3.37,3.68v35.21l-2.14,2.45v107.57s-8.88,10.86-7.04,16.82l6.43,1.4,1.53,172.04s-55.92-16.75-38.88,51.51c.61,2.45,21.43,161.64,21.43,161.64h393.08Z"/>
        <polygon class="cls-7" points="771.32 1560.11 771.32 1597.02 752.95 1612.44 751.11 1609.63 768.26 1593.98 768.26 1560.11 771.32 1560.11"/>
      </g>
      <path class="cls-7" d="M371.81,1578.86s3.83-.53,4.29-2.8c.46-2.28,0-32.59,0-32.59h13.16l-1.22-8.23h-9.03l-3.67,4.03-.61-67.97,15.31-1.05v-6.31l-22.5,2.63v4.03l1.38,1.75,2.91,106.52Z"/>
    </g>
    <path class="cls-7" d="M2289.15,1923.61c-5.33,0-275.56-6.19-275.56-6.19l-51.58,19.11-30.32-12.92-180.44-6.19-151.49-10.84-74.56,60.32-54.15-45.66-33.45,.17-40.51,15.13-98.16-7.61s-175.39,12.65-183.11,16.39-258.81-84.53-258.81-84.53l-85.69-64.57-300.83,242.95,336.9,151.11,1346.66-67.56,200.89-144.93-65.78-54.18Z"/>
    <g>
      <g>
        <path class="cls-7" d="M1303.9,1905.11c-1.69,0-98.71-3.38-98.71-3.38l-1.69,5.36h-11s0,11.85,0,11.85l-67.69-1.41v-5.92s-3.1-1.27-3.1-1.27h-38.92s-3.67,2.12-3.67,2.12h-22.85s-3.95-22.85-5.92-23.97-117.89-2.26-122.12,1.13c0,0-2.82,7.05-1.41,8.46h-27.36s0-6.49,0-6.49c0,0-20.31-3.1-27.36-2.82,0,0,1.69-6.49,0-6.49s-16.92,0-16.92,0v7.33s-10.72,1.41-18.33-3.1l-33.14,.42,.42,.92,31.45,.07s-.42,2.12-.63,1.97-37.44-.07-37.44-.07l1.27,.92,42.73,.99-.49,4.09-34.27-.99s10.08,5.15,10.36,5.15,8.11-.35,8.11-.35l2.68,.99,.07,1.9-28.77,.78-7.47-8.74-29.83-.78-6.42,2.26-62.33,1.48-1.69,1.69-26.23-3.38-8.04-.85-5.29-6.13s-1.69-1.06-2.12-.42,0,4.87,0,4.87l2.54,1.48-2.73,1.9-33.23,1.06v2.89s1.06,1.55,1.06,1.55l35.11-1.55,3.38-1.41,2.96,2.96,8.67,.21-1.48,1.69-20.73,1.9-1.27,1.27-5.08,.21-10.36,29.4h-12.27s-2.33,3.6,0,4.65h-11.63s-1.27,2.75-1.27,2.75h2.33s2.12,1.69,2.12,1.69h8.25s-1.48,2.96-1.48,2.96l2.33-1.27,.42-1.27,7.19-.63s-5.08,7.19-5.08,8.04-2.12,12.27-2.12,12.27c0,0-3.6,.85-2.96,9.73,0,0-9.94,5.08-11,10.79v7.83s-42.94,0-42.94,0c0,0-11.21,9.1-10.15,17.56l-11,21.15s-5.5,3.6-6.98,14.81l-2.54,2.96h-2.12s0,6.77,0,6.77h2.12s1.48,3.6,1.48,3.6c0,0,50.98,1.06,52.46,1.06s32.79,0,32.79,0l-.42,3.81h13.11s.42-3.6,.42-3.6l148.49,.85,3.81-3.81,5.29,.42s.85,3.81,5.92,5.08l48.02,1.06s17.13-3.38,14.81-12.69l59.79,2.54s-.71-8.46,0-8.67,16.57,4.65,16.57,4.65l-5.5,15.44h-11.07s0,3.38,0,3.38h12.34s5.08,5.61,5.08,5.61c0,0-9.31,9.83-7.62,14.07h3.81s-.85,9.31-.85,9.31c0,0,8.46,2.12,2.54,5.92l-1.06,5.5s5.92,2.75,5.92,13.75l-3.17,1.06v6.98s2.12,0,2.12,0l-.63,5.08,23.48,1.27-.42-2.33,8.25-.42s1.48,4.44,7.09,1.9l17.24-.21,.63,19.46s-20.73,.63-20.1,3.81l2.22,2.33h21.26s1.48,1.48,1.48,1.48h64.94s6.56,6.13,10.15,4.87l.85-4.44,103.86-1.06s-10.11,38.64,31.09,26.86c1.48-.42,97.59-14.81,97.59-14.81v-271.6Z"/>
        <polygon class="cls-7" points="1051.9 1899.19 1074.18 1899.19 1083.49 1911.88 1081.8 1913.15 1072.35 1901.31 1051.9 1901.31 1051.9 1899.19"/>
      </g>
      <path class="cls-7" d="M1063.22,2175.24s-.32-2.64-1.69-2.96-19.67,0-19.67,0v-9.1s-4.97,.85-4.97,.85v6.24s2.43,2.54,2.43,2.54l-41.04,.42-.63-10.58h-3.81s1.59,15.55,1.59,15.55h2.43s1.06-.95,1.06-.95l64.3-2.01Z"/>
    </g>
    <path class="cls-7" d="M251.51,1587.53l11.17-159.64-3.07-86.63-1.24-34.91,11.19-49.59-8.43-237.91-7.79-37.27,8.85-115.54-2.16-6.07-10.78,6.21-7.37,2.2-2.4-3.8s8.57-13.9,9.51-14.9,8.9-4.52,9.87-4.56,.47-4.87,.47-4.87c0,0-8.07,.61-9.61-6.46-1.55-7.07,.36-53.74,.36-53.74,0,0,11.11-6.22,16.07-3.16l-.09-39.16-12.52,3.03s-3.82-7.31-3.85-8.28,7.69-11.28,7.69-11.28l6.24-15.76-3.36-167.86-5.7-5.62-9.39-274.13-6.23-2.37s7.96-12.9,6.87-16.1-9.71-9.04-9.71-9.04l-8.2-2.95,3.62-7.57,6.14-.22,2.08,3.81s50.94-5.69,50.62,3.71c0,0,18.01-3.23,24.55,7.87l-.25-7.11s64.14,23.64,147.83,43.31c3.59,.84,18.28,13.59,51.68,15.32l-.93-26.18s-4.66-3.72-5.34-4.67-2.86-16.73-2.86-16.73l-3.35-3.12-.85-23.92,23.62-.19,.61,17.13-1.35,7.49,2.54,26.13,17.81,.34,.46-41.77,5.16-.51,2.92,36.79,1,28.12,5.15,8.23-.36,35.61-1.66,7.83-.52,3.58,4.23,.5,.55,15.52-3.81,2.08v18.13s4.08,33.19,5.74,34.1,13.24,17.33,13.24,17.33c0,0-9.56,31.73-18.48,44.67s-3.59,8.22-3.59,8.22c0,0,15.94-25.16,29.31-22.4,0,0-1.83,21.43-6.82,26.78l10.97-1.04-.51,22.03-26.5,1.26,3.69,21.88,9.16,322.36-2.28,8.82,5.28,139.96-2.78,3.66,5.6,139.62,13.76,4.69,13.05,149.07,16.82-.27,13.18,280.47-384.5,9.42Z"/>
    <path class="cls-7" d="M1110.12,1900.06c-.57-.3-6.25-1.91-6.25-1.91,0,0-3.55-4.63-5.96-5.13s-2.7-4.93-2.7-4.93c0,0,.57-2.11,0-2.52s-2.98-2.32-3.12-3.12,0-3.32,0-3.32c0,0-2.84-1.51-2.84-2.62v-8.25s1.56-.81,1.99-1.61,5.11-20.94,4.54-22.05,2.55-2.32,2.55-2.32c0,0,2.84-1.11,4.26-1.31s6.1-1.41,6.1-1.41c0,0,4.83-2.32,5.54-1.81s3.97-2.72,5.68-2.11,7.1-.91,7.95-1.71,4.83-1.81,6.67-1.41,8.8,3.62,9.94,3.62,4.68,1.71,4.68,1.71c0,0,4.12,3.02,5.25,3.52s4.97,3.62,4.4,5.03,4.12,1.01,4.12,1.01l2.84,.6,1.28,1.21s10.93,3.62,11.5,4.73,5.82,2.32,5.96,2.62,9.94,4.13,9.94,4.13l1.85,1.71,3.12,1.01,1.85,2.82s-.71,2.31,0,2.91,3.83,5.34,3.83,5.34l1.42,4.33,1.56,2.52,.57,1.41s-7.81,3.72-8.8,3.62-1.28,2.11-1.28,2.11c0,0-5.96,8.46-10.93,8.56,0,0,.14,1.11-5.96,2.42,0,0-2.96,2.76-5.24,2.8s-6.26,.62-6.26,.62c0,0-4.07,2.21-4.66,2.01s-.84,.63-4.41-.39-6.12-3.94-9.39-3.84l-2.77-.7s-8.45-.4-9.72-.81-9.94-.2-12.92-1.71c0,0-.99,4.43-8.09,3.62-7.1-.81-8.09-1.01-8.09-1.01Z"/>
    <path class="cls-7" d="M1151.44,1868.27c-.44,.59-2.81,6.52-2.81,6.52,0,0-6.81,3.7-7.56,6.22s-7.26,2.81-7.26,2.81c0,0-3.11-.59-3.7,0s-3.41,3.11-4.59,3.26-4.89,0-4.89,0c0,0-2.22,2.96-3.85,2.96h-12.15s-1.19-1.63-2.37-2.07-30.81-5.33-32.44-4.74-3.41-2.67-3.41-2.67c0,0-1.63-2.96-1.93-4.44s-2.07-6.37-2.07-6.37c0,0-3.41-5.04-2.67-5.78s-4-4.15-3.11-5.93-1.33-7.41-2.52-8.3-2.67-5.04-2.07-6.96,5.33-9.19,5.33-10.37,2.52-4.89,2.52-4.89c0,0,4.44-4.3,5.19-5.48s5.33-5.19,7.41-4.59,1.48-4.3,1.48-4.3l.89-2.96,1.78-1.33s5.33-11.41,6.96-12,3.41-6.07,3.85-6.22,6.07-10.37,6.07-10.37l2.52-1.93,1.48-3.26,4.15-1.93s3.4,.74,4.29,0,7.85-4,7.85-4l6.37-1.48,3.7-1.63,2.07-.59s5.48,8.15,5.33,9.19,3.11,1.33,3.11,1.33c0,0,12.44,6.22,12.59,11.41,0,0,1.63-.15,3.56,6.22,0,0,4.06,3.09,4.12,5.47s.92,6.53,.92,6.53c0,0,3.26,4.25,2.96,4.86s.93,.87-.57,4.6-5.8,6.39-5.65,9.8l-1.04,2.89s-.59,8.81-1.19,10.15-.3,10.37-2.52,13.48c0,0,6.52,1.04,5.33,8.44s-1.48,8.44-1.48,8.44Z"/>
    <path class="cls-7" d="M1109.34,1882.39c-.44,.59-2.81,6.52-2.81,6.52,0,0-6.81,3.7-7.56,6.22s-7.26,2.81-7.26,2.81c0,0-3.11-.59-3.7,0s-3.41,3.11-4.59,3.26-4.89,0-4.89,0c0,0-2.22,2.96-3.85,2.96h-12.15s-1.19-1.63-2.37-2.07-30.81-5.33-32.44-4.74-3.41-2.67-3.41-2.67c0,0-1.63-2.96-1.93-4.44s-2.07-6.37-2.07-6.37c0,0-3.41-5.04-2.67-5.78s-4-4.15-3.11-5.93-1.33-7.41-2.52-8.3-2.67-5.04-2.07-6.96,5.33-9.19,5.33-10.37,2.52-4.89,2.52-4.89c0,0,4.44-4.3,5.19-5.48s5.33-5.19,7.41-4.59,1.48-4.3,1.48-4.3l.89-2.96,1.78-1.33s5.33-11.41,6.96-12,3.41-6.07,3.85-6.22,6.07-10.37,6.07-10.37l2.52-1.93,1.48-3.26,4.15-1.93s3.4,.74,4.29,0,7.85-4,7.85-4l6.37-1.48,3.7-1.63,2.07-.59s5.48,8.15,5.33,9.19,3.11,1.33,3.11,1.33c0,0,12.44,6.22,12.59,11.41,0,0,1.63-.15,3.56,6.22,0,0,4.06,3.09,4.12,5.47s.92,6.53,.92,6.53c0,0,3.26,4.25,2.96,4.86s.93,.87-.57,4.6-5.8,6.39-5.65,9.8l-1.04,2.89s-.59,8.81-1.19,10.15-.3,10.37-2.52,13.48c0,0,6.52,1.04,5.33,8.44s-1.48,8.44-1.48,8.44Z"/>
    <path class="cls-7" d="M1141.17,1925.61c-.44,.59-2.81,6.52-2.81,6.52,0,0-6.81,3.7-7.56,6.22s-7.26,2.81-7.26,2.81c0,0-3.11-.59-3.7,0s-3.41,3.11-4.59,3.26-4.89,0-4.89,0c0,0-2.22,2.96-3.85,2.96h-12.15s-1.19-1.63-2.37-2.07-30.81-5.33-32.44-4.74-3.41-2.67-3.41-2.67c0,0-1.63-2.96-1.93-4.44s-2.07-6.37-2.07-6.37c0,0-3.41-5.04-2.67-5.78s-4-4.15-3.11-5.93-1.33-7.41-2.52-8.3-2.67-5.04-2.07-6.96,5.33-9.19,5.33-10.37,2.52-4.89,2.52-4.89c0,0,4.44-4.3,5.19-5.48s5.33-5.19,7.41-4.59,1.48-4.3,1.48-4.3l.89-2.96,1.78-1.33s5.33-11.41,6.96-12,3.41-6.07,3.85-6.22,6.07-10.37,6.07-10.37l2.52-1.93,1.48-3.26,4.15-1.93s3.4,.74,4.29,0,7.85-4,7.85-4l6.37-1.48,3.7-1.63,2.07-.59s5.48,8.15,5.33,9.19,3.11,1.33,3.11,1.33c0,0,12.44,6.22,12.59,11.41,0,0,1.63-.15,3.56,6.22,0,0,4.06,3.09,4.12,5.47s.92,6.53,.92,6.53c0,0,3.26,4.25,2.96,4.86s.93,.87-.57,4.6-5.8,6.39-5.65,9.8l-1.04,2.89s-.59,8.81-1.19,10.15-.3,10.37-2.52,13.48c0,0,6.52,1.04,5.33,8.44s-1.48,8.44-1.48,8.44Z"/>
    <path class="cls-7" d="M1168.98,1960.49c-.74,.02-6.86,1.82-6.86,1.82,0,0-7.12-3.07-9.56-2.09s-6.7-3.97-6.7-3.97c0,0-1.46-2.81-2.29-2.91s-4.55-.76-5.4-1.6-3.02-3.84-3.02-3.84c0,0-3.7,.08-4.71-1.2l-7.51-9.55s.55-1.94,.17-3.15-14.86-27.52-16.33-28.43-.01-4.33-.01-4.33c0,0,1.32-3.11,2.3-4.26s3.73-5.57,3.73-5.57c0,0,1.85-5.79,2.89-5.67s.79-5.71,2.73-6.11,5-5.63,4.96-7.11,2.31-5.21,4.19-5.93,10.52-1.49,11.45-2.22,5.4-1.04,5.4-1.04c0,0,6.12,.84,7.51,.69s7.37,.99,8.19,2.98,4.29-1.49,4.29-1.49l2.88-1.13,2.15,.57s12.26-2.86,13.74-1.94,6.88-1.08,7.27-.82,11.91-1.64,11.91-1.64l3.07,.79,3.48-.85,4.08,2.08s1.52,3.13,2.65,3.37,8,3.7,8,3.7l5.1,4.09,3.57,1.9,1.75,1.26s-3.02,9.35-3.92,9.87,.88,3.27,.88,3.27c0,0,2.8,13.63-1.18,16.95,0,0,1.12,1.19-2.69,6.64,0,0,.08,5.1-1.75,6.62s-4.57,4.76-4.57,4.76c0,0-1.33,5.19-1.99,5.34s-.11,1.27-3.97,2.39-8.61-.61-11.19,1.62l-2.91,.97s-7.3,4.98-8.71,5.34-8.33,6.18-12.15,6.35c0,0,3.21,5.76-3.34,9.41-6.56,3.65-7.55,4.06-7.55,4.06Z"/>
    <path class="cls-7" d="M752.13,1124.25l-1.02-31.18h2.65s0,2.29,0,2.29c0,0,14.86-6.03,28.91,3.33,14.05,9.36,36.03,25.57,36.03,25.57,0,0,13.64,16.42,13.44,34.09l2.85,2.08v2.29s-2.65,2.08-2.65,2.08l-.36,21.88s11.6,4.37,32.52,18.24c20.92,13.88,16.18,48.18,16.18,48.18l.15,100.1h4.43s-.76,2.65-.76,2.65h-3.82s.15,53.79,.15,53.79h3.36s1.83,1.25,1.83,2.03-3.51,1.4-3.51,1.4l-.61,19.18h6.11s0,65.95,0,65.95l-6.41,3.74,.15,20.11h3.05s.76,1.87,.76,1.87l-4.73,3.27-.92,102.75,19.54,1.56,1.68,1.4v60.65s-11.15,16.22-11.15,16.22l.31,6.08s-.76,1.72-1.98,1.87-5.5-.78-5.5-.78c0,0-3.97,5.46-8.86,4.52s-28.7-5.77-28.7-5.77c0,0-13.59-.62-15.27-57.07l-2.75-1.09s-.87,.78-1.12-1.09-.71-5.3-.71-5.3l-16.34-2.18,.08-.7-1.22-.27-.48-41.64s-24.48,28.17-49.83,23.8c0,0,.41,1.98,.1,2.08s-3.05,.42-3.05,.42l-1.02-1.46v-27.96s-.81-3.22,1.83-4.47c2.65-1.25,15.06-7.48,15.06-7.48,0,0,1.12,.1,1.63,1.87s1.22,1.25,1.22,1.25c0,0,4.38-.31,4.78-13.93l-2.14-.83-.31-3.64,2.65-2.39,.1-64.14-2.54-.31v-3.01s2.34-1.87,2.34-1.87l-.31-66.01h-2.14s-.71-1.56-.71-1.56l.92-1.35,2.04-.31,.1-67.98-2.24,.1-.41-2.39,2.34-.83v-67.67s-2.44-.52-2.44-.52v-2.91s2.54-.21,2.54-.21l-.2-68.09-2.75-.31-.2-2.6,2.75-.94-.1-68.4s-2.54-.52-2.54-.83,.2-3.43,.2-3.43l2.24-.62s-1.62-25.36-25.24-23.18Z"/>
  </g>
  <g id="me_ground">
    <path class="cls-9" d="M1613.71,1690l1.04,.68,.94-1.1s-4.08-7.16-4.18-7.73-5.64-5.96-6.79-6.48-11.91-3.4-15.57-2.4-18.7,4.13-23.82,17.5c0,0-3.71,6.74-4.08,6.79s-.57,3.66-.57,3.87,.73,10.66,6.22,12.02c0,0,1.99,1.57,3.5,1.36s1.04,1.31,1.04,1.31l-1.52,4.75h-1.78s-2.56,3.45-2.4,4.96,.52,1.36,.52,1.36l-.37,1.83s-5.59,9.98-6.43,10.66-9.04,10.14-7.73,21.05,3.5,24.35,5.02,27.17,7.16,27.27,7.16,27.27l.99,1.36,.47,3.6,.94,2.4s-1.83,2.4-1.83,2.66-.05,2.77-.05,2.77l.37,1.1s-2.61,2.77-1.62,5.85l.99,3.08-3.87,5.59-.31,5.59-.37,3.13,1.62,.26-.63,1.67s.37,1.62,.31,1.83-1.41,2.46-1.46,2.87,1.41,2.46,1.41,2.46c0,0-7.58,17.29,11.81,30.41l1.83,4.39-.47,1.88,.84,2.14-.57,2.82,1.15,1.31s-.42,14.84,.84,18.55c0,0,3.45,16.04,4.18,17.45,0,0-.21,2.3-.16,2.51s.99,1.78,.99,1.93-8.05-3.45-8.05-3.45c0,0-16.98-7.37-29.15-5.9,0,0-37.25-2.04-35.06-3.76l-.57,1.15-8.36-.57s-7.11-2.66-10.55-2.4-5.59,.52-5.59,.52l-2.4,.05-.31,1.1s-1.67,13.17-.99,14.52l1.15,.57,.05,1.88-.99,.21s-2.46,20.11-1.2,22.83,3.29,5.9,3.29,5.9c0,0,7.42,4.6,10.66,4.28s4.28-1.41,6.06-2.35,.42-5.22,.42-5.22c0,0-4.23-5.07-4.44-5.22s-.94-5.22-.94-5.22c0,0,9.56-8.1,9.61-8.99l1.52-.1,.52,.73s6.22,.16,7.89-.05c0,0,3.92,1.41,4.75,1.57s5.22-.47,5.22-.47l1.15-.1s1.1,.78,1.83,1.1,3.19,.57,3.34,.57,13.11,2.98,13.27,3.55,24.45,7.94,28.68,8.2c0,0,1.99,.42,2.3,.52s18.7,6.22,22.2,6.16c3.5-.05,9.77-1.52,12.28-5.69,0,0,4.13-1.62,6.79-8.57,0,0,5.24-29.5,4.96-31.31,0,0,2.23-11.42,1.74-16.44l2.51-12.89s11.15,1.53,42.35-6.76l13.17,.35s-15.6,20.76-15.12,36.99l-.84,5.15-1.11,3.48s-.42,3.62-.56,3.9-2.72,4.46-2.72,4.46l.07,1.11-.77,.63-.49,.98-.07,4.6-1.39,3.97,.56,2.72-.84,.42v2.09l.28,.91s-5.15,13.31-5.22,15.67c-.07,2.37,.15,4.88,.15,4.88l-.13,3.35s21.92,3.05,24.71,.96l-.21-1.39s6.27,2.51,8.85,2.09c0,0,22.78,1.25,28.49-2.02,5.71-3.27,7.45-4.46,7.45-4.46,0,0-.56-2.79-.91-2.93s-2.79-6.2-8.78-7.52c-5.99-1.32-16.51-3.2-16.93-3.41s-12.82-6.06-12.82-6.06l1.46-.84,.21-3.69-.7-.98,2.65-1.95,1.25-2.3-.84-3,1.95-4.88,1.25-.42,5.36-12.05s1.81-1.81,11.42-18.46c0,0,6.69-14.56,7.17-18.39l3.34-6.69s3-8.85,2.93-9.33-1.32-11.15-1.32-11.15c0,0-7.52-10.59-16.72-12.12-9.2-1.53-27.59-4.53-27.59-4.53,0,0-28.63-5.22-38.59-3.97-9.96,1.25-8.32,.98-8.32,.98l-1.29-3.83s2.58,2.23,2.79,2.23c0,0,.49,.5,1.67-.56,.26-.24-.14-5.15-.14-5.15l-4.76-6.1-3.27-31.62,4.96-12.02-.14-10.73s-.7-6.46-.56-6.88-2.09-5.66-2.09-5.66c0,0,16.58,1.67,25.5,.07,8.92-1.6,12.26-3.62,12.47-3.76s4.74-1.18,5.85-2.86,1.67-3.34,1.67-3.34c0,0,.42-2.79,0-3s.84-.63,.84-.63l1.25-1.53s-.14-2.3-.91-2.37l.77-1.18,.49-1.67s1.88-2.23,1.04-3.55c0,0,.49-1.95-.63-3.13s-1.11-2.86-1.11-2.86l-1.53-1.11-.7-1.74s-1.88-21.39-6.69-34.48c0,0-.35-.66-.31-.77s.1-2.4,.1-2.51-.49-1.78-.49-1.78l-.59-.94s-.84-2.23-.31-3.13,.66-3.55,.66-3.55c0,0-.45-3.03-.45-3.13s-1.36-3.69-1.36-3.69c0,0,.24-1.11,.24-1.22s-.24-1.71-.24-1.71c0,0,.94-2.51,.91-2.79s-.24-2.89-.24-2.89c0,0-1.57-.98-1.71-1.04s-1.36,.42-1.36,.42c0,0-.87-1.46-1.92-1.5s-1.85,.45-1.85,.45c0,0,.24-2.79-3.34-2.3l-.28,.24s-1.46-1.39-1.57-1.46-2.19-.35-2.58,.59c0,0-2.68-3.59-5.09,.1,0,0-2.3-.73-3.07,.84,0,0-5.78-6.65-6.2-8.12l-1.18-.73s-2.23,.66-2.19,1.95c0,0-.31,2.79,.8,5.12l.42,.42,.07,.77s1.32,3.83,2.33,4.84l1.67,3.17,2.12,5.02s-5.75-.24-4.7,3.73l-2.23,1.53s-1.04,1.74-.49,2.54,1.22,1.57,1.36,1.67,3.07,3.97,3.07,3.97c0,0,2.82,1.57,3.73,1.92s7.84,3.07,7.98,4.11l1.39,4.25s1.71,12.3,1.71,12.43v4.01s-2.23,7.07-1.67,8.12l-1.08,.73s-2.51,6.69-1.95,8.39l-2.89,1.88s-17.18-6.18-20.6-.88l-5.25-3.33c-.7-.45-1.47-.79-2.27-1.01l-2.39-.68c-.93-.26-1.88-.43-2.84-.51l-2.21-.17-1.22-6.82s-2.19-1.99-2.94-1.69l.47-1.41,3.29-1.41,2.35,.94,2.35,.94,2.82-2.35,.94-3.29-.47-3.29,.94-2.82,1.41-4.23,1.41-2.82s.24-2.27,0-2.66,.1-.31,.1-.31l2.48,.39s2.35-2.35,2.35-7.05l.94-.94-.47-.94s-3.29-1.88-4.7-2.35c0,0-.65-1.44-.97-1.7s-.52-2.72-1.04-3.19"/>
    <g>
      <path class="cls-9" d="M2358.59,1964.3l-366.17,6.06-9.1-15.92h-18.19s-31.08-16.3-59.32-18.01c0,0-4.36,2.27-3.98,6.82l-115.04,1.14s-2.46,5.31-1.9,9l-13.27,24.73-5.5-1.14-3.22,4.36-136.65,.38v-3.03l-2.65-2.84-15.92,3.22,1.52-20-1.52-1.61-13.84,10.8s7.58,14.02,4.36,15.16h-18.57l1.14-7.96-4.36-.95-5.12,5.5-4.36-.57,5.69-7.39-2.46-3.22-3.22,.76-7.58,5.5s4.55-10.42-2.27-17.44c0,0-2.65,1.9-3.03,2.27s-11.56,19.33-11.56,19.33l-108.79,.95-3.22-2.27,2.65-3.22-.38-3.41s-7.58-3.41-15.54-4.74c0,0-3.6-3.22-4.17-3.03s-6.06-.95-6.06-.95l-7.58-2.65h-15.73l2.84,2.08h11.75l7.2,4.36h-11.56s-1.71-1.33-2.27-1.33-5.88,.57-5.88,.57l-5.5,8.72-10.99-1.9-7.77-7.77-3.6,.38v2.84l8.91,8.72s-176.83,1.33-177.4,1.33-12.51-3.6-12.51-3.6l-171.52,4.36-1.14-4.17-5.12-1.9-7.77,.38-116.94,1.71-60.27,50.98v310.82l51.49-1.26,.76-3.79h167.29l2.02-1.52,50.79,1.01,135.7-2.78-6.57,7.08,3.3,2.64h24.12l2.04,1.9-.14,3.7s-8.43,3.51-5.12,13.79c0,0-10.76-.14-10.76,0s-.24,6.82-.05,6.82,5.26-.24,5.26-.24l-.05-2.23,5.97,.62,1.14,4.55h15.68l14.45,12.56s2.8,.57,2.89,.43,.81-1.18,.81-1.18l-1-3.65-10.9-14.26s-3.03-6.82,10.85-5.07c0,0,9.86,17.44,10,17.39s5.69-2.89,5.69-2.89l-.14-4.98-16.39-21.84s3.7-1.52,4.36-1.71,10.52,.05,10.52,.05l8.43,5.4,3.93-.19,.05-2.65,5.26,.14,6.16,8.77,2.94-.24s-.33-4.22-.47-4.36-6.3-6.92-6.3-6.92c0,0,9.19-3.46,15.07,1.94l3.46-.76-.24-4.22,15.73,.24,6.06,6.54,2.84-.43,1.61-2.23s21.37-1.23,9.43-15.64l62.83,.9,2.65-3.36s5.02,.09,5.12,.28,1,5.26,1,5.26l68.37-2.84,.47,3.17,2.56,.28,1.37-3.46,58.71-1.75,55.86-.19,11.32-8.67,6.78-1.88,21.1-.38s14.66-4.67,32.98-21.61l15.92-.38s.51-2.4,.88-2.4h30.83l3.16-2.78h4.8l1.14,3.54s156.68-.63,157.05-.25,3.66,5.18,3.66,5.18l19.58-5.43s-.38-5.31,0-5.69,27.04-17.56,30.7-16.17c3.66,1.39,9.48,14.4,9.48,14.4l4.55,2.4,7.71-1.9,9.6-.88-.13,1.9-5.94,.38,.25,5.69,24.51-1.14s4.42-8.84,19.58-10.11c15.16-1.26,46.12-3.03,46.12-3.03l16.55,.76,6.32,3.54,5.81-2.27-.76-5.31,34.62-.76,3.54,8.59,4.8,1.77,4.3-2.78,2.02-3.29,145.05-.76,17.69,1.01,.76,16.43s8.59,3.03,9.6,3.54c1.01,.51,22.74,.51,22.74,.51l8.84-332.81Z"/>
      <path class="cls-9" d="M2095.02,1972.13l-7.33-10.36-2.02-6.82-1.26-18.51s1.26-9.79-23.25-10.8c-24.51-1.01-63.93-2.02-63.93-2.02v5.56l42.96,.25s24.26,10.61,23.5,10.36-68.23,36.39-68.23,36.39l26.28-1.01s29.57-27.8,51.55-32.6l.51-3.29s-25.52-9.6-24.76-9.86,14.4,.51,14.4,.51c0,0,17.44-3.54,16.17,21.99-1.26,25.52,32.09,35.88,32.09,35.88l-16.68-15.67Z"/>
    </g>
    <g>
      <g>
        <g>
          <g>
            <g>
              <g>
                <path class="cls-9" d="M839.09,791.49c-21.91,8-45.6,18.95-45.6,18.95l-7.35,6.7-58.39,22.05s-54.72,24.99-52.54,82.16l-1.57,40.51h-4.97l-.2-8.98,2.86-.12,.1-24.13-5.41-.73,.31-18.62s.61-6.25-17.05-3.8c0,0-7.55-.73-8.98,2.08l-.31,14.7-77.48,1.71v-48.02l-2.04-4.9-19.19-.49,.82,55.86-65.88,2.78v17.64l65.34-3.92s-4.36,50.96,0,51.61c4.36,.65,18.51,4.57,21.78,0,3.27-4.57,0-52.27,0-52.27l75.14-3.27v115.64l-76.22,2.61s1.09-47.04-1.09-50.96c-2.18-3.92-20.15-.65-20.15-.65,0,0-1.09,49,1.09,51.61l-.27,3.27h-46.55v16.01s45.46-1.31,46.01,0c.54,1.31-8.17,44.1,2.45,50.63,10.62,6.53,19.87,0,19.87,0,0,0,5.44-1.63-.54-50.63l-.54-2.29,75.95-1.63-2.72,257.73h-7.35l-.27-13.07,2.45-2.61s2.18-4.25-.27-5.55c-2.45-1.31-6.26-7.84-6.26-7.84l-3.54-.33,.82-18.95s-8.44-6.53-10.89-.33l-1.91,18.95-24.77,.65s-7.35,2.29-7.08,15.03c.27,12.74,1.09,97.02,1.09,97.02,0,0,1.91,9.47,8.71,6.53l33.76,.57s7.08,3.35,7.89-8.41v-12.09l7.35-.46-2.99,316.34h-5.44s-7.62,9.15,.27,14.05h3.54l.82,23.52,28.31-1.96v-21.56h5.44s2.99-5.88,1.36-8.17l-5.99-.33,.54-265.9,7.62,.33v-10.13h-7.35l-.27-4.9,5.99,.33v-22.87l-5.17-.65-.54-19.6,7.35,.33v15.35s-1.36,6.53,4.9,6.86c6.26,.33,40.29,1.63,40.29,1.63,0,0,5.17,.98,4.9-8.17l2.72-82.65h5.17s5.72-4.9,2.99-7.19c-2.72-2.29-6.81-.98-6.81-.98l.27-6.21s.54-12.09-5.17-12.74c-5.72-.65-26.41-1.63-26.41-1.63l.27-20.91s-10.07-3.27-10.07,.33l-.82,21.23s-8.71-.33-9.26,9.8l-.6,17.97h-8.12l1.63-306.73s3.81-18.29,3.81-19.27-.27-39.2-.27-39.2h4.36l-.27,37.24,12.52,.65,.54-62.39-4.36-.33s-11.16-65.99,54.17-95.38l50.63-19.6s2.31,3.92,11.84,0c0,0,71.73-30.54,73.23-32.99v-2.61s-10.07-6.86-31.99,1.14Zm-212.61,591.42v-41.16h9.53l-.39,41.16h-9.14Zm24.02,319.64h-5.31v-45.57h5.31v45.57Zm0-98.98h-5.31v-45.57h5.31v45.57Zm0-82.32h-5.31v-45.57h5.31v45.57Zm0-91.14h-5.31v-45.57h5.31v45.57Zm2.65-91.14h-5.31v-45.57h5.31v45.57Zm0-91.14h-5.31v-45.57h5.31v45.57Zm17.79,95.24l-1.45,43.75-7.35-.65,.54-43.45,8.26,.35Z"/>
                <polygon class="cls-9" points="579.24 938.41 579.24 946.25 590.06 946.25 640.7 988.63 640.7 979.81 588.43 938.41 579.24 938.41"/>
              </g>
              <path class="cls-9" d="M678.06,1001.86l-3.72-1.96-4.24,6.37v15.68c0,.73,3.27,4.9,6.53,3.43,3.27-1.47,1.43-23.52,1.43-23.52Zm-2.65,18.62s-1.23,1.96-1.77,0c-.54-1.96,0-14.7,0-14.7h2.59l-.82,14.7Z"/>
              <path class="cls-9" d="M671.73,1013.13l-3.72-1.96-4.24,6.37v15.68c0,.73,3.27,4.9,6.53,3.43,3.27-1.47,1.43-23.52,1.43-23.52Zm-2.65,18.62s-1.23,1.96-1.77,0c-.54-1.96,0-14.7,0-14.7h2.59l-.82,14.7Z"/>
            </g>
            <polygon class="cls-9" points="577.81 1071.44 577.81 1080.02 588.64 1080.02 639.27 1122.16 639.27 1113.34 586.19 1071.44 577.81 1071.44"/>
          </g>
          <path class="cls-9" d="M689.29,1282.38v-3.49s-1.12-.37-1.12-.55v-2.94s-1.94-47.9,3.98-56.96c5.92-9.06,4.49-17.88,4.49-18.62s-1.63-12.25-5.51-13.72c-3.88-1.47-20.19,0-20.19,0,0,0-9.62-5.63-11.86-5.88l3.06,3.18s8.78,3.06,8.27,4.16c0,0,17.35-2.33,19.8,.12,0,0,7.96,2.82,4.59,23.15,0,0-6.94,7.23-7.55,29.52l.41,35.77-1.12-.61s-2.14-7.23-12.25-4.41-12.35,.49-12.35,.49c0,0-.41,1.59-.1,1.59s7.45,2.45,12.35-.49,10.51-1.22,11.74,4.04l-.31,1.71-1.12,1.22-.1,2.08,4.9,.61Z"/>
        </g>
        <path class="cls-9" d="M614.67,1279.93v-4.04l1.43-1.22s2.96,10.66,8.68-48.88c5.72-59.53,16.54-42.63,16.54-42.63l-2.04,.37-1.97-1.6s-7.22-9.79-13.55,61.87c0,0-3.88,26.21-4.59,28.91,0,0,4.39-7.23,19.09-4.9,14.7,2.33-.2,1.35-.51,1.35s-10.11-5.76-18.68,6l-1.94,1.59,.71,4.04-3.16-.86Z"/>
      </g>
      <path class="cls-5" d="M725.43,1325.26s1.63-8.82,8.17-3.18c6.53,5.63-1.02,87.95-1.02,87.95,0,0-2.87,20.46-10.62,34.79-3.75,6.94-8.64,12.44-14.9,13.48-19.19,3.18-27.97-3.18-27.97-3.18l-15.11-17.15v-10.04s43.28,37.73,60.84-13.96c0,0,7.76-73.74,4.08-87.46,0,0,4.7,118.82-7.15,126.42-11.84,7.59-23.28-13.47-23.28-13.47l1.64-.49s-2.45,20.74-20.62,18.62c0,0-17.56-14.21-18.99-27.44-1.43-13.23,1.63-6.37,1.63-6.37l-4.49-84.77,67.79-13.72Z"/>
    </g>
    <path class="cls-9" d="M2295.37,2004.85l80.77,53.87s7.73,1.17,11.7-.43,74.31-25.34,74.31-25.34c0,0,6.75,3.14,15.45,2.41,8.7-.74,70.42-22.48,70.42-22.48,0,0,8.91-14.31,8.8-17.27s-7.67,10.03-7.67,10.03c0,0,13.87-2.62,15.97-12.02s-10.65-466.18-10.65-466.18c0,0,6.49-23.12-17.74-26.9s-246.52-28.76-246.52-28.76c0,0-6.87,3.22-8.53,5.4-1.67,2.18-49.53,59.01-49.53,59.01,0,0-2.03,11.52-1.19,15.3s1.83,53.75,1.83,53.75c0,0,3.07,13.87,15.45,18.08,12.37,4.21,27.83,16.36,27.83,16.36,0,0,7.26-1.96,7.45,31.94,.18,33.89-.59,314.63-.59,314.63,0,0,4.31,15.68,12.44,18.6Z"/>
    <g>
      <path class="cls-9" d="M981.43,1895.97c-.11,.06-.48,.3-1.08,.71-12.67,8.52-128.6,89.45-128.6,89.45,0,0-2.1,11.15-5.6,16.37-3.5,5.21-17.65,5.87-17.65,5.87,0,0-8.93,3.43-12.24-4.95s-5.38-16.03-5.38-16.03l-115.22-14.83s-1.71,23.84-16.45,20.81-21.28-17.03-19.62-22.64-.54-7.37-.54-7.37l-52.37-6-1.25-40.55-6.17-2.28-.54-17.63-5.07-5.94-4.48-66.29-.11-3.7-.91-29.62,3.05-.09-4.79-56.42,.97-3.07-2.99-3,26.96-61.2,3.35-.1,2.2-2.85-9.53-7.12,.37-2.95,7.47-15.05,4.25-.9,205.54,11.66,10.8,6.15s27.61-.23,24.68,6.03c0,0,48.64,13.48,110.25,59.29,0,0,4.74,5.18,4.36,7.74l8.39,4.84,.09,3.01c.04,1.39-3.07,4.26-3.07,4.26l8.91-.51s10.95,6.15,4.11,14.47l-6.79,2.53,.88,95.63s-.83,2.8-1.74,3.06-.23,37.07-.23,37.07l-4.21,2.14Z"/>
      <path class="cls-9" d="M928.32,1928.25c.03,.93,3.44,7.54,7.57,7.87,4.13,.34,13.25-.87,16.8-4.57s10.96-23.15,8.84-25.17c-2.12-2.02-21.04,.65-21.04,.65l-12.2,20.06,.04,1.16Z"/>
    </g>
    <path class="cls-9" d="M956.09,1952.77c.52,.61,3.28,6.67,3.28,6.67,0,0,7.94,3.79,8.8,6.37s8.45,2.88,8.45,2.88c0,0,3.62-.61,4.31,0s3.97,3.18,5.35,3.33,5.69,0,5.69,0c0,0,2.59,3.03,4.49,3.03s14.15,0,14.15,0c0,0,1.38-1.67,2.76-2.12s35.88-5.46,37.78-4.85,3.97-2.73,3.97-2.73c0,0,1.9-3.03,2.24-4.55s2.42-6.52,2.42-6.52c0,0,3.97-5.15,3.11-5.91s4.66-4.24,3.62-6.06,1.55-7.58,2.93-8.49,3.11-5.15,2.42-7.12-6.21-9.4-6.21-10.61-2.93-5-2.93-5c0,0-5.18-4.4-6.04-5.61s-6.21-5.31-8.63-4.7-1.73-4.4-1.73-4.4l-1.04-3.03-2.07-1.36s-6.21-11.67-8.11-12.28c-1.9-.61-3.97-6.21-4.49-6.37s-7.07-10.61-7.07-10.61l-2.93-1.97-1.73-3.33-4.84-1.97s-3.96,.76-5,0-9.14-4.09-9.14-4.09l-7.42-1.52-4.31-1.67-2.42-.61s-6.38,8.34-6.21,9.4-3.62,1.36-3.62,1.36c0,0-14.49,6.37-14.66,11.67,0,0-1.9-.15-4.14,6.37,0,0-4.72,3.17-4.8,5.6-.07,2.43-1.07,6.68-1.07,6.68,0,0-3.8,4.35-3.45,4.98s-1.08,.89,.67,4.7c1.75,3.81,6.75,6.54,6.58,10.03l1.21,2.96s.69,9.02,1.38,10.38,.35,10.61,2.93,13.79c0,0-7.59,1.06-6.21,8.64,1.38,7.58,1.73,8.64,1.73,8.64Z"/>
    <polygon class="cls-9" points="959.37 2094.28 1105.32 1991.99 1105.32 1966.9 1089.04 1957.01 1083.49 1945.09 1062.88 1948.38 932.55 1860.5 579.24 1936.24 570.41 2151.17 847.37 2178.2 959.37 2094.28"/>
    <path class="cls-9" d="M1380.1,1976.41l-39.93-4.33,.59-5.45s-2.89-1.07-3.45-.37-.79,7.33-.79,7.33l-11.43-1.24-.86-5.23-4.09-.25-1.52,3.83-1.2,.82-133.71-10.31,3.33-23.41-54.02-7.38-6.07,22.36-40.07-4.53-5.65-34.09-86.44-9.37-17.67,28.52-.59,5.45-50.42-5.46s-2.24,6.03-1.22,11.28l50.27,5.45-3.57,43.17,107.27,10.1,5.49-43.34,40.71,4.41-3.44,30.25,57.47,6.23,4.09-31.89,135.99,12.64-2.19,17.26,6.05,1.23,2.15-16.89,53.58,5.62,1.34-12.41Z"/>
    <g>
      <path class="cls-9" d="M2458.11,693.63l6.06,366.17-15.92,9.1v18.19s-16.3,31.08-18.01,59.32c0,0,2.27,4.36,6.82,3.98l1.14,115.04s5.31,2.46,9,1.9l24.73,13.27-1.14,5.5,4.36,3.22,.38,136.65h-3.03s-2.84,2.65-2.84,2.65l3.22,15.92-20-1.52-1.61,1.52,10.8,13.84s14.02-7.58,15.16-4.36v18.57s-7.96-1.14-7.96-1.14l-.95,4.36,5.5,5.12-.57,4.36-7.39-5.69-3.22,2.46,.76,3.22,5.5,7.58s-10.42-4.55-17.44,2.27c0,0,1.9,2.65,2.27,3.03s19.33,11.56,19.33,11.56l.95,108.79-2.27,3.22-3.22-2.65-3.41,.38s-3.41,7.58-4.74,15.54c0,0-3.22,3.6-3.03,4.17s-.95,6.06-.95,6.06l-2.65,7.58v15.73s2.08-2.84,2.08-2.84v-11.75s4.36-7.2,4.36-7.2v11.56s-1.33,1.71-1.33,2.27,.57,5.88,.57,5.88l8.72,5.5-1.9,10.99-7.77,7.77,.38,3.6h2.84s8.72-8.91,8.72-8.91c0,0,1.33,176.83,1.33,177.4s-3.6,12.51-3.6,12.51l4.36,171.52-4.17,1.14-1.9,5.12,.38,7.77,1.71,116.94,50.98,60.27h310.82s-1.26-51.49-1.26-51.49l-3.79-.76v-167.29s-1.52-2.02-1.52-2.02l1.01-50.79-2.78-135.7,7.08,6.57,2.64-3.3v-24.12s1.9-2.04,1.9-2.04l3.7,.14s3.51,8.43,13.79,5.12c0,0-.14,10.76,0,10.76s6.82,.24,6.82,.05-.24-5.26-.24-5.26l-2.23,.05,.62-5.97,4.55-1.14v-15.68s12.56-14.45,12.56-14.45c0,0,.57-2.8,.43-2.89s-1.18-.81-1.18-.81l-3.65,1-14.26,10.9s-6.82,3.03-5.07-10.85c0,0,17.44-9.86,17.39-10s-2.89-5.69-2.89-5.69l-4.98,.14-21.84,16.39s-1.52-3.7-1.71-4.36,.05-10.52,.05-10.52l5.4-8.43-.19-3.93-2.65-.05,.14-5.26,8.77-6.16-.24-2.94s-4.22,.33-4.36,.47-6.92,6.3-6.92,6.3c0,0-3.46-9.19,1.94-15.07l-.76-3.46-4.22,.24,.24-15.73,6.54-6.06-.43-2.84-2.23-1.61s-1.23-21.37-15.64-9.43l.9-62.83-3.36-2.65s.09-5.02,.28-5.12,5.26-1,5.26-1l-2.84-68.37,3.17-.47,.28-2.56-3.46-1.37-1.75-58.71-.19-55.86-8.67-11.32-1.88-6.78-.38-21.1s-4.67-14.66-21.61-32.98l-.38-15.92s-2.4-.51-2.4-.88,0-30.83,0-30.83l-2.78-3.16v-4.8s3.54-1.14,3.54-1.14c0,0-.63-156.68-.25-157.05s5.18-3.66,5.18-3.66l-5.43-19.58s-5.31,.38-5.69,0-17.56-27.04-16.17-30.7c1.39-3.66,14.4-9.48,14.4-9.48l2.4-4.55-1.9-7.71-.88-9.6,1.9,.13,.38,5.94,5.69-.25-1.14-24.51s-8.84-4.42-10.11-19.58c-1.26-15.16-3.03-46.12-3.03-46.12l.76-16.55,3.54-6.32-2.27-5.81-5.31,.76-.76-34.62,8.59-3.54,1.77-4.8-2.78-4.3-3.29-2.02-.76-145.05,1.01-17.69,16.43-.76s3.03-8.59,3.54-9.6c.51-1.01,.51-22.74,.51-22.74l-332.81-8.84Z"/>
      <path class="cls-9" d="M2465.94,957.2l-10.36,7.33-6.82,2.02-18.51,1.26s-9.79-1.26-10.8,23.25c-1.01,24.51-2.02,63.93-2.02,63.93h5.56s.25-42.96,.25-42.96c0,0,10.61-24.26,10.36-23.5s36.39,68.23,36.39,68.23l-1.01-26.28s-27.8-29.57-32.6-51.55l-3.29-.51s-9.6,25.52-9.86,24.76,.51-14.4,.51-14.4c0,0-3.54-17.44,21.99-16.17,25.52,1.26,35.88-32.09,35.88-32.09l-15.67,16.68Z"/>
    </g>
    <g>
      <path class="cls-9" d="M598.99,0l-8.74,527.86,22.95,13.11v26.23s23.5,44.81,25.96,85.52c0,0-3.28,6.28-9.84,5.74l-1.64,165.84s-7.65,3.55-12.98,2.73l-35.65,19.13,1.64,7.92-6.28,4.64-.55,196.99h4.37s4.1,3.83,4.1,3.83l-4.64,22.95,28.82-2.19,2.32,2.19-15.57,19.94s-20.22-10.93-21.86-6.28v26.78s11.48-1.64,11.48-1.64l1.37,6.28-7.92,7.38,.82,6.28,10.66-8.2,4.64,3.55-1.09,4.64-7.92,10.93s15.03-6.56,25.14,3.28c0,0-2.73,3.83-3.28,4.37s-27.87,16.67-27.87,16.67l-1.37,156.83,3.28,4.64,4.64-3.83,4.92,.55s4.92,10.93,6.83,22.4c0,0,4.64,5.19,4.37,6.01s1.37,8.74,1.37,8.74l3.83,10.93v22.68s-3.01-4.1-3.01-4.1v-16.94s-6.28-10.38-6.28-10.38v16.67s1.91,2.46,1.91,3.28-.82,8.47-.82,8.47l-12.57,7.92,2.73,15.85,11.2,11.2-.55,5.19h-4.1s-12.57-12.84-12.57-12.84c0,0-1.91,254.91-1.91,255.73s5.19,18.03,5.19,18.03l-6.28,247.26,6.01,1.64,2.73,7.38-.55,11.2-2.46,168.58-73.5,86.88H62.39s1.82-74.22,1.82-74.22l5.46-1.09v-241.16s2.19-2.91,2.19-2.91l-1.46-73.22,4.01-195.62-10.2,9.47-3.8-4.76v-34.77s-2.73-2.94-2.73-2.94l-5.33,.2s-5.05,12.16-19.88,7.38c0,0,.2,15.51,0,15.51s-9.84,.34-9.84,.07,.34-7.58,.34-7.58l3.21,.07-.89-8.61-6.56-1.64v-22.61s-18.1-20.83-18.1-20.83c0,0-.82-4.03-.61-4.17s1.71-1.16,1.71-1.16l5.26,1.43,20.56,15.71s9.84,4.37,7.31-15.64c0,0-25.14-14.21-25.07-14.41s4.17-8.2,4.17-8.2l7.17,.2,31.49,23.63s2.19-5.33,2.46-6.28-.07-15.16-.07-15.16l-7.79-12.16,.27-5.67,3.83-.07-.2-7.58-12.64-8.88,.34-4.23s6.08,.48,6.28,.68,9.97,9.08,9.97,9.08c0,0,4.99-13.25-2.8-21.72l1.09-4.99,6.08,.34-.34-22.68-9.43-8.74,.61-4.1,3.21-2.32s1.78-30.81,22.54-13.59l-1.3-90.57,4.85-3.83s-.14-7.24-.41-7.38-7.58-1.43-7.58-1.43l4.1-98.56-4.58-.68-.41-3.69,4.99-1.98,2.53-84.63,.27-80.53,12.5-16.32,2.71-9.77,.55-30.42s6.74-21.13,31.15-47.54l.55-22.95s3.46-.73,3.46-1.28,0-44.44,0-44.44l4.01-4.55v-6.92s-5.1-1.64-5.1-1.64c0,0,.91-225.86,.36-226.41s-7.47-5.28-7.47-5.28l7.83-28.23s7.65,.55,8.2,0,25.32-38.98,23.31-44.26c-2-5.28-20.76-13.66-20.76-13.66l-3.46-6.56,2.73-11.11,1.28-13.84-2.73,.18-.55,8.56-8.2-.36,1.64-35.34s12.75-6.38,14.57-28.23c1.82-21.86,4.37-66.48,4.37-66.48l-1.09-23.86-5.1-9.11,3.28-8.38,7.65,1.09,1.09-49.91-12.39-5.1-2.55-6.92,4.01-6.19,4.74-2.91,1.09-209.1-1.46-25.5-23.68-1.09s-4.37-12.39-5.1-13.84c-.73-1.46-.73-32.79-.73-32.79L598.99,0Z"/>
      <path class="cls-9" d="M587.7,379.95l14.94,10.56,9.84,2.91,26.68,1.82s14.12-1.82,15.57,33.51c1.46,35.34,2.91,92.17,2.91,92.17h-8.01s-.36-61.93-.36-61.93c0,0-15.3-34.97-14.94-33.88s-52.46,98.36-52.46,98.36l1.46-37.89s40.07-42.62,46.99-74.32l4.74-.73s13.84,36.79,14.21,35.7-.73-20.76-.73-20.76c0,0,5.1-25.14-31.69-23.31-36.79,1.82-51.73-46.26-51.73-46.26l22.59,24.04Z"/>
    </g>
    <g>
      <path class="cls-9" d="M2325.19,1817.44l5.74,111.96-15.07,2.78v5.56s-15.43,9.5-17.04,18.14c0,0,2.15,1.33,6.46,1.22l1.08,35.18s5.02,.75,8.52,.58l23.41,4.06-1.08,1.68,4.13,.99,.36,41.78h-2.87s-2.69,.81-2.69,.81l3.05,4.87-18.92-.46-1.52,.46,10.22,4.23s13.27-2.32,14.35-1.33v5.68s-7.53-.35-7.53-.35l-.9,1.33,5.2,1.56-.54,1.33-7-1.74-3.05,.75,.72,.99,5.2,2.32s-9.87-1.39-16.5,.7c0,0,1.79,.81,2.15,.93s18.3,3.54,18.3,3.54l.9,33.26-2.15,.99-3.05-.81-3.23,.12s-3.23,2.32-4.48,4.75c0,0-3.05,1.1-2.87,1.27s-.9,1.85-.9,1.85l-2.51,2.32v4.81s1.97-.87,1.97-.87v-3.59s4.13-2.2,4.13-2.2v3.54s-1.26,.52-1.26,.7,.54,1.8,.54,1.8l8.25,1.68-1.79,3.36-7.35,2.38,.36,1.1h2.69s8.25-2.72,8.25-2.72c0,0,1.26,54.07,1.26,54.24s-3.41,3.82-3.41,3.82l4.13,52.45-3.95,.35-1.79,1.56,.36,2.38,1.61,35.76,48.25,18.43h294.16s-1.2-15.74-1.2-15.74l-3.59-.23v-51.15s-1.43-.62-1.43-.62l.96-15.53-2.63-41.49,6.7,2.01,2.5-1.01v-7.37s1.79-.62,1.79-.62l3.5,.04s3.32,2.58,13.05,1.56c0,0-.13,3.29,0,3.29s6.46,.07,6.46,.01-.22-1.61-.22-1.61h-2.11s.58-1.81,.58-1.81l4.3-.35v-4.8s11.88-4.42,11.88-4.42c0,0,.54-.85,.4-.88s-1.12-.25-1.12-.25l-3.45,.3-13.5,3.33s-6.46,.93-4.8-3.32c0,0,16.5-3.01,16.46-3.06s-2.74-1.74-2.74-1.74l-4.71,.04-20.67,5.01s-1.43-1.13-1.61-1.33,.04-3.22,.04-3.22l5.11-2.58-.18-1.2h-2.51s.13-1.62,.13-1.62l8.3-1.88-.22-.9s-3.99,.1-4.13,.14-6.55,1.93-6.55,1.93c0,0-3.27-2.81,1.84-4.61l-.72-1.06-3.99,.07,.22-4.81,6.19-1.85-.4-.87-2.11-.49s-1.17-6.53-14.8-2.88l.85-19.21-3.18-.81s.09-1.54,.27-1.56,4.98-.3,4.98-.3l-2.69-20.91,3-.14,.27-.78-3.27-.42-1.66-17.95-.18-17.08-8.21-3.46-1.78-2.07-.36-6.45s-4.42-4.48-20.45-10.08l-.36-4.87s-2.27-.15-2.27-.27v-9.43s-2.63-.97-2.63-.97v-1.47s3.35-.35,3.35-.35c0,0-.6-47.91-.24-48.02s4.9-1.12,4.9-1.12l-5.14-5.99s-5.02,.12-5.38,0-16.62-8.27-15.31-9.39,13.63-2.9,13.63-2.9l2.27-1.39-1.79-2.36-.84-2.94,1.79,.04,.36,1.82,5.38-.08-1.08-7.5s-8.37-1.35-9.57-5.99c-1.2-4.64-2.87-14.1-2.87-14.1l.72-5.06,3.35-1.93-2.15-1.78-5.02,.23-.72-10.59,8.13-1.08,1.67-1.47-2.63-1.31-3.11-.62-.72-44.35,.96-5.41,15.55-.23s2.87-2.63,3.35-2.94,.48-6.95,.48-6.95l-314.97-2.7Z"/>
      <path class="cls-9" d="M2332.61,1898.04l-9.81,2.24-6.46,.62-17.52,.39s-9.27-.39-10.22,7.11c-.96,7.5-1.91,19.55-1.91,19.55h5.26s.24-13.14,.24-13.14c0,0,10.04-7.42,9.81-7.19s34.44,20.86,34.44,20.86l-.96-8.04s-26.31-9.04-30.85-15.76l-3.11-.15s-9.09,7.8-9.33,7.57,.48-4.4,.48-4.4c0,0-3.35-5.33,20.81-4.95,24.15,.39,33.96-9.81,33.96-9.81l-14.83,5.1Z"/>
    </g>
    <g>
      <path class="cls-9" d="M872.42,2118.5l-174.77-35.3-1.78-12.14-8.64-1.97s-12.15-14.78-25.29-19.03c0,0-2.43,1.12-2.98,4.35l-54.79-11.63s-2.02,3.45-2.34,6.1l-10.24,15.9-2.43-1.39-2.22,2.71-64.92-14.5,.48-2.13-.81-2.28-8.07,.54,3.91-13.85-.46-1.29-8.29,6.08s1.36,10.65-.35,11.1l-8.82-2.01,1.81-5.46-1.92-1.13-3.31,3.3-1.98-.87,3.88-4.57-.66-2.52-1.65,.18-4.47,3.03s3.82-6.81,1.7-12.46c0,0-1.56,1.04-1.8,1.27s-8.57,12.3-8.57,12.3l-51.79-11.09-1.17-1.94,1.77-1.97,.36-2.43s-3.05-3.21-6.62-5c0,0-1.2-2.65-1.5-2.58s-2.73-1.32-2.73-1.32l-3.18-2.68-7.47-1.7,1.02,1.77,5.58,1.27,2.72,3.83-5.49-1.25s-.6-1.11-.87-1.18-2.88-.24-2.88-.24l-4,5.52-4.92-2.52-2.45-6.28-1.77-.12-.45,1.99,2.84,7.07s-84.14-18.17-84.41-18.23-5.36-3.87-5.36-3.87l-82.11-15.47,.13-3.04-2.13-1.88-3.75-.57-55.78-11.44-36.74,29.22-49.57,217.81,24.64,4.68,.96-2.57,79.4,18.07,1.2-.84,23.95,6.19,64.85,12.71-4.25,4.25,1.15,2.2,11.45,2.61,.66,1.55-.66,2.57s-4.56,1.55-4.63,9.11c0,0-5.08-1.26-5.11-1.16s-1.2,4.76-1.11,4.78,2.53,.4,2.53,.4l.33-1.57,2.74,1.08-.19,3.31,7.44,1.69,4.86,10.36s1.24,.7,1.3,.61,.57-.74,.57-.74l.11-2.66-2.9-11.17s-.35-5.11,5.96-2.38c0,0,1.9,13.28,1.97,13.27s3.16-1.41,3.16-1.41l.73-3.5-4.3-17.08s2-.66,2.34-.72,4.99,1.17,4.99,1.17l3.14,4.7,1.9,.29,.45-1.85,2.47,.67,1.53,6.81,1.43,.15s.52-2.99,.47-3.11-1.89-5.53-1.89-5.53c0,0,4.91-1.43,6.84,2.99l1.76-.16,.56-2.98,7.43,1.87,1.84,5.24h1.42s1.12-1.38,1.12-1.38c0,0,10.34,1.44,6.97-9.94l29.68,7.42,1.8-2.07s2.37,.61,2.38,.75-.37,3.79-.37,3.79l32.91,5.39-.28,2.28,1.17,.48,1.2-2.28,28.14,5.11,26.55,5.9,6.76-4.85,3.52-.59,10.08,2.01s7.7-1.69,19.1-11.58l7.62,1.45s.62-1.63,.8-1.59,14.63,3.33,14.63,3.33l1.94-1.61,2.28,.52-.02,2.6s74.47,16.48,74.59,16.79,.91,4.03,.91,4.03l10.16-1.69s.67-3.76,.91-3.98,15.63-9.39,17.15-8.02c1.52,1.37,2.2,11.12,2.2,11.12l1.78,2.17,3.96-.5,4.7,.42-.36,1.31-2.88-.38-.79,4.01,11.82,1.85s3.51-5.72,10.91-4.97c7.4,.75,22.37,2.86,22.37,2.86l7.74,2.32,2.43,3.16,3.12-.97,.49-3.8,16.55,3.21,.31,6.4,2,1.76,2.48-1.48,1.48-2.08,68.97,15.14,8.23,2.62-2.26,11.59s3.59,3.05,3.99,3.52,10.71,2.81,10.71,2.81l57.27-232.27Z"/>
      <path class="cls-9" d="M746.07,2095.52l-1.83-8.05,.13-5,2.35-13.11s2.16-6.73-9.31-10.08c-11.47-3.36-30.02-8.32-30.02-8.32l-.89,3.9,20.35,4.82s9.82,10.06,9.5,9.8-38.19,18.13-38.19,18.13l12.64,2.13s18.47-16.29,29.67-17.28l.76-2.25s-10.58-9.49-10.18-9.58,6.76,1.91,6.76,1.91c0,0,8.84-.6,4.17,17.15-4.67,17.75,9.51,28.61,9.51,28.61l-5.42-12.78Z"/>
    </g>
  </g>
</svg>