<?xml version="1.0" encoding="UTF-8"?>
<svg id="Layer_2" data-name="Layer 2" xmlns="http://www.w3.org/2000/svg" viewBox="0 0 329.00928 271.19369">
  <defs>
    <style>
      .cls-1 {
        fill: #f5f5f5;
      }
    </style>
  </defs>
  <g id="Layer_2-2" data-name="Layer 2">
    <g>
      <path class="cls-1" d="M267.40741,26.81481c.75428-.04129,16.74074-1.48148,8.74074-12.59259S248.44444,0,248.44444,0c0,0-10.22222,2.37037-11.25926,4s-15.55556,7.11111-170.66667,15.55556c0,0-16.96296-.51852-17.62963-.74074,0,0-.66667,.44444-.51852,2s2.37037,7.40741,18.59259,19.03704c0,0,1.92593,1.85185,11.7037,.66667,0,0,27.7037-4.88889,188.74074-13.7037Z"/>
      <path class="cls-1" d="M215.55556,109.33333s8-5.44444,14.55556-3.44444,17.55556,3.33333,27.22222,13-3.33333,14.77778-3.33333,14.77778c0,0-4.44444,1.22222-17,0s-65.74074-.77778-145.74074,9.88889c0,0-9.92593,1.88889-13.37037,0s-13.11111-8.88889-17.88889-21c0,0-.77778-2.33333,5.55556-1.66667s37.55556,0,37.55556,0c0,0,96-9.33333,100.44444-8.44444s12-3.11111,12-3.11111Z"/>
      <path class="cls-1" d="M0,248.44444s205.33333-21.77778,272.88889-16.88889c0,0,9.03704-1.33333,16.59259-4.14815s33.33333,10.22222,38.51852,23.85185-11.25926,10.51852-12,10.51852-22.51852-6.07407-62.96296-5.92593-114.07407-2.37037-224.88889,15.11111c0,0-4.96296,1.7037-12.96296-4.14815S0,251.40741,0,251.40741v-2.96296Z"/>
    </g>
  </g>
</svg>