<?xml version="1.0" encoding="UTF-8"?>
<svg id="Layer_2" data-name="Layer 2" xmlns="http://www.w3.org/2000/svg" viewBox="0 0 296.21619 296.21619">
  <defs>
    <style>
      .cls-1 {
        fill: #333;
      }

      .cls-2 {
        fill: #fff;
        stroke: #fff;
        stroke-miterlimit: 10;
      }
    </style>
  </defs>
  <g id="Layer_2-2" data-name="Layer 2">
    <g>
      <circle class="cls-1" cx="148.1081" cy="148.1081" r="148.1081"/>
      <path class="cls-2" d="M194.37036,59.85187H98.96295s-35.25928,5.03699-39.40741,37.9259v99.55554s4.74078,37.9259,37.33337,38.81482h97.48145s35.11574,2.15511,43.41201-35.1782V103.48845s-1.63424-41.26622-43.41201-43.63658Zm30.81488,51.49329v82.80157c-7.1557,32.20062-35.52289,31.68951-35.52289,31.68951H105.58295c-28.11163-.76672-32.20062-33.47845-32.20062-33.47845V106.4895c3.57788-28.36719,33.98956-32.71173,33.98956-32.71173h82.29047c36.034,2.04449,35.52289,37.56738,35.52289,37.56738Z"/>
      <path class="cls-2" d="M148.24329,99.49383c-26.3645,0-47.73712,21.37262-47.73712,47.73706s21.37262,47.73706,47.73712,47.73706,47.73706-21.37262,47.73706-47.73706-21.37262-47.73706-47.73706-47.73706Zm-.88055,80.51611c-17.52856,0-31.73834-14.20972-31.73834-31.73834s14.20978-31.73834,31.73834-31.73834,31.7384,14.20972,31.7384,31.73834-14.20978,31.73834-31.7384,31.73834Z"/>
      <circle class="cls-2" cx="194.14815" cy="99.92593" r="10.74074"/>
    </g>
  </g>
</svg>