<?xml version="1.0" encoding="UTF-8"?>
<svg id="Layer_2" data-name="Layer 2" xmlns="http://www.w3.org/2000/svg" viewBox="0 0 297.1686 299.56912">
  <defs>
    <style>
      .cls-1 {
        fill: #fff;
      }

      .cls-2 {
        fill: #333;
      }
    </style>
  </defs>
  <g id="Layer_2-2" data-name="Layer 2">
    <g>
      <ellipse class="cls-2" cx="148.5843" cy="149.78456" rx="148.5843" ry="149.78456"/>
      <path class="cls-1" d="M224,131.40439v-29.77778s-36.88889,3.55556-43.11111-43.55556h-29.77778v120.88889s-.44444,28-24,26.66667c-23.55556-1.33333-26.66667-18.66667-26.66667-18.66667,0,0-5.77778-35.11111,30.66667-31.11111l.44444-29.93804s-50.22222-10.95085-62.66667,49.04915c0,0-6.66667,43.11111,37.77778,56.88889,44.44444,13.77778,64.44444-18.22222,64.44444-18.22222,0,0,9.33333-11.55556,10.22222-30.66667s.88889-64.44444,.88889-64.44444c0,0,18.66667,17.33333,41.77778,12.88889Z"/>
    </g>
  </g>
</svg>