<?xml version="1.0" encoding="UTF-8"?>
<svg id="Layer_2" data-name="Layer 2" xmlns="http://www.w3.org/2000/svg" viewBox="0 0 289.10015 289.10015">
  <defs>
    <style>
      .cls-1 {
        fill: #fff;
      }

      .cls-2 {
        fill: #333;
      }
    </style>
  </defs>
  <g id="Layer_2-2" data-name="Layer 2">
    <g>
      <circle class="cls-2" cx="144.55007" cy="144.55007" r="144.55007"/>
      <path class="cls-1" d="M218.81481,82.33333s-2.22222,10.33333-14.22222,18.11111c0,0,9.66667-.77778,18.44444-5,0,0-7,11.33333-16.11111,17.11111,0,0,4.11111,43.74074-31.55556,75.22222s-75.37037,21.7037-85.74074,20.22222-27.48148-12.22222-27.48148-12.22222c0,0,27.77778,3.77778,48.55556-13.44444,0,0-21.44444,1-30.44444-23,0,0,8.77778,1.33333,14.44444-.66667,0,0-24.77778-3.77778-26.11111-32.66667,0,0,9.22222,4.66667,14.44444,3.88889,0,0-24.22222-17.44444-9.55556-43.66667,0,0,23,31.66667,67.88889,34.11111,0,0-7.22222-32.55556,26.77778-39.88889,0,0,17.44444-4.44444,29.11111,9.44444,0,0,7,.66667,21.55556-7.55556Z"/>
    </g>
  </g>
</svg>