<?xml version="1.0" encoding="UTF-8"?>
<svg id="me_ground" data-name="me ground" xmlns="http://www.w3.org/2000/svg" xmlns:xlink="http://www.w3.org/1999/xlink" viewBox="0 0 2873.62012 1067.79978">
  <defs>
    <style>
      .cls-1 {
        fill: #010003;
      }

      .cls-2 {
        clip-path: url(#clippath);
      }

      .cls-3 {
        fill: none;
      }
    </style>
    <clipPath id="clippath">
      <rect class="cls-3" width="2873.62012" height="1067.79978"/>
    </clipPath>
  </defs>
  <g class="cls-2">
    <path class="cls-1" d="M4100.01176,523.63501c-.2663-.17776-2.22005-1.50947-2.22005-1.50947l-6.83769,1.86476-26.72849,20.42408s-12.78727,5.68328-9.50157-20.33508c0,0,32.67852-18.47055,32.5893-18.73685-.08877-.2663-5.41653-10.65598-5.41653-10.65598l-9.32404,.2663-40.93692,30.72477s-2.84141-6.92646-3.19647-8.16963c-.35552-1.24317,.08877-19.7135,.08877-19.7135l10.12293-15.80644-.35506-7.37051-4.9727-.08877,.2663-9.85686,16.42803-11.54409-.44429-5.50552s-7.90333,.62159-8.16963,.88811c-.2663,.2663-12.96434,11.81039-12.96434,11.81039,0,0-6.48263-17.22737,3.6403-28.23842l-1.42071-6.4824-7.90333,.44406,.44429-29.48136,12.25422-11.36633-.79889-5.32799-4.17381-3.01917s-2.30882-40.04881-29.30406-17.6712l1.68746-117.74861-6.3051-4.9727s.17753-9.41281,.53305-9.59034c.35506-.17776,9.85663-1.86499,9.85663-1.86499l-5.32822-128.13829,5.95004-.88811,.53259-4.79517-6.48263-2.57512-3.28524-110.02326-.35552-104.69504-16.25004-21.2232-3.52271-12.69827-.71058-39.54573s-8.76125-27.46881-40.49263-61.80482l-.71012-29.83688s-4.49959-.94714-4.49959-1.65749v-57.77903l-5.20971-5.92007v-8.99826l6.63088-2.13129s-1.18415-293.63176-.47403-294.34212c.71058-.71035,9.70884-6.8672,9.70884-6.8672l-10.18241-36.70386s-9.9454,.71058-10.65598,0c-.71012-.71035-32.91508-50.67505-30.31022-57.54248,2.6044-6.8672,26.99478-17.75997,26.99478-17.75997l4.49959-8.52492-3.55199-14.44476-1.65772-17.99675,3.55199,.23678,.71058,11.12955,10.65552-.47357-2.13083-45.93913s-16.57627-8.28791-18.94412-36.70397c-2.36784-28.41606-5.68328-86.43199-5.68328-86.43199l1.42071-31.0208,6.63042-11.84002-4.26212-10.89276-9.94586,1.42082-1.42071-64.88313,16.10225-6.63042,3.31544-8.99838-5.20971-8.05112-6.15685-3.78889-1.42071-271.84612,1.89427-33.15198,30.78379-1.42082s5.68328-16.10248,6.63042-17.99687c.94759-1.89439,.94759-42.62392,.94759-42.62392l-623.73106-16.57582,8.25702,498.50876-12.99271,9.19009-12.78727,3.78878-34.6913,2.36807s-18.35204-2.36807-20.24632,43.57117c-1.89427,45.93913-3.78901,119.82064-3.78901,119.82064h10.41942l.47357-80.51193s19.89125-45.46556,19.41769-44.04474c-.3514,1.05455,37.38493,70.98073,56.8653,106.96394l.44017,26.59122-29.83665,17.04961v34.09923s-30.54724,58.25283-33.74371,111.17744c0,0,4.26212,8.16963,12.78727,7.45928l2.13129,215.60619s9.94586,4.61764,16.87185,3.55199l46.3539,24.86395-2.13129,10.30092,8.16963,6.03834,.71058,256.09905h-5.68328l-5.32822,4.9727,6.0388,29.83688-37.47369-2.84141-3.0194,2.84141,20.24632,25.9296s26.28466-14.20797,28.41595-8.1694V-48.50201l-14.9181-2.13129-1.77623,8.16963,10.30092,9.59034-1.06564,8.16963-13.85291-10.65598-6.0388,4.61764,1.42116,6.03834,9.31306,12.84515c-2.08279-.24365-4.18022-.48867-6.28863-.73506-1.68105-.31869-3.57075-.56897-5.5904-.6527-136.88833-15.96979-322.01294-36.77203-322.01294-36.77203,0,0-12.86917,6.0269-15.99289,10.11149-3.12372,4.08436-92.83455,110.59017-92.83455,110.59017,0,0-3.79678,21.58146-2.23012,28.67241,1.56667,7.09095,3.42479,100.73949,3.42479,100.73949,0,0,5.76061,25.99938,28.95174,33.89287,23.19114,7.89373,52.15798,30.66734,52.15798,30.66734,0,0,13.60949-3.67119,13.95357,59.85244,.2878,53.00628-.67489,428.1145-1.00113,550.87424l-356.81177,5.91-9.18998-12.99294-3.78901-12.78727-2.36784-34.6913s2.36784-18.35204-43.57106-20.24632c-45.93936-1.89427-119.82087-3.78901-119.82087-3.78901v10.4192l80.51193,.4738s45.46579,19.89103,44.04463,19.41769c-1.0542-.3514-70.98062,37.38493-106.96382,56.8653l-26.59145,.4404-17.04939-29.83688h-34.09923s-58.25283-30.54724-111.17744-33.74417c0,0-8.16963,4.26235-7.45928,12.78727l-215.60619,2.13129s-4.61764,9.9454-3.55199,16.87185l-24.86395,46.35367-10.30092-2.13129-6.03834,8.16963-256.09905,.71058v-5.68328l-4.9727-5.32799-29.83688,6.03834,2.84164-37.47369-2.84164-3.01917-25.9296,20.24632s14.20797,26.28512,8.16963,28.41618h-34.80958l2.13129-14.91833-8.16963-1.776-9.59034,10.30092-8.16963-1.06564,10.65598-13.85268-4.61764-6.03834-6.03834,1.42093-14.20797,10.30069s8.52492-19.53596-4.26235-32.67829c0,0-4.9727,3.55199-5.68328,4.26235-.71035,.71058-21.66725,36.23052-21.66725,36.23052l-203.88456,1.77577-6.03834-4.26212,4.9727-6.03857-.71058-6.39363s-14.20797-6.39363-29.12653-8.87998c0,0-6.7487-6.03834-7.81434-5.68328-1.06564,.35529-11.36633-1.776-11.36633-1.776l-14.20797-4.9727h-29.48159l5.32799,3.90728h22.02231l13.49762,8.16963h-21.66725s-3.1967-2.48635-4.26235-2.48635-11.01127,1.06564-11.01127,1.06564l-10.30092,16.33903-20.60161-3.55199-14.56326-14.56326-6.7487,.71035v5.32799l13.12883,12.8495-46.33835-5.02143,1.10728-10.21719s-5.42362-2.01347-6.45678-.6996-1.48888,13.74035-1.48888,13.74035l-21.42429-2.32163-1.61059-9.79875-7.66884-.47448-2.85605,7.17605-2.24545,1.53898-250.59353-19.31382,6.2399-43.88082-101.23959-13.82271-11.36976,41.89893-75.09334-8.49404-10.59604-63.88441-33.11572-3.5886c-.89543-1.25942-1.59458-2.16469-1.59458-2.16469,0,0-9.69992-8.23849-11.31669-10.51116s-11.63995-9.94311-16.16676-8.80677c-4.52658,1.13634-3.23331-8.23872-3.23331-8.23872l-1.94003-5.68191-3.87983-2.55681s-11.63995-21.87475-15.19652-23.01109c-3.5568-1.13634-7.43663-11.6475-8.40664-11.93187s-13.2566-19.88622-13.2566-19.88622l-5.4966-3.69315-3.23342-6.24996-9.0677-3.69315s-7.42222,1.42048-9.36225,0c-1.93992-1.42025-17.13655-7.67021-17.13655-7.67021l-13.90324-2.84095-8.08338-3.1251-1.17328-.29466-1.5598-168.58288,12.72458-4.73271c12.81941-15.58727-7.69904-27.10963-7.69904-27.10963l-16.70233,.94851s5.84022-5.38884,5.76004-7.99073c-.08007-2.60211-.17353-5.63775-.17353-5.63775l-15.72374-9.06552c.71035-4.79677-8.16894-14.50699-8.16894-14.50699-115.47468-85.8628-206.63137-111.12574-206.63137-111.12574,5.5014-11.74473-46.25267-11.30845-46.25267-11.30845l-20.2327-11.53105-307.45631-17.43945,.71207-347.69042,14.28541,.61221v-16.56872c9.52353,11.63904,19.77023,19.93587,19.77023,19.93587,3.48267,.40699,6.64174,.34591,9.53486-.05605,8.48672,2.58358,22.34981,4.71487,42.12279,1.43352,5.32559-.88377,10.11744-3.50166,14.42588-7.29891,4.23318,.72477,8.66173,.05971,13.12483-2.80252,5.45428-3.49823,9.03338-19.60139,11.33442-41.8804,6.37407-20.16899,8.94599-38.47185,8.94599-38.47185,0,0,14.15799-154.2763,1.91315-164.83688-7.67467-6.61921-11.74084-2.59593-13.70752,1.3292-3.24772-.18897-5.93505,.66071-5.93505,.66071l.51017-11.63194s1.02046-22.65168-9.69374-23.87609c-10.71409-1.22442-49.48918-3.06127-49.48918-3.06127l.51006-39.18105s-2.26752-.73483-5.2295-1.41544v-3.75011s-2.10452-.68862-2.10452-1.03316v-5.50987s-3.63515-89.76505,7.46168-106.75358c11.09672-16.98876,8.4182-33.51836,8.4182-34.89583,0-1.37724-3.06115-22.95755-10.33146-25.71272s-37.83951,0-37.83951,0c0,0-6.76288-3.95945-12.97201-7.13556l1.47161-276.36481c2.28766,2.48635,6.29274,5.22298,10.30961,3.41564,3.02066-1.35916,3.71111-12.10688,3.63698-22.64802,2.27359,1.70279,5.24655,2.86703,8.22522,1.52686,5.17036-2.32666,3.51825-32.15908,2.8795-41.38029l12.809,.66837,1.02046-116.93164-8.16311-.61209s-20.91824-123.6657,101.52934-178.76426l94.89709-36.73257s4.33647,7.34649,22.19344,0c0,0,134.43732-57.24141,137.24339-61.83285v-4.89766s-18.8772-12.85647-59.9483,2.14261c-41.07087,14.99909-85.4582,35.50804-85.4582,35.50804l-13.77536,12.55025-109.43759,41.32401s-102.5498,46.83376-98.46819,153.97009l-2.93372,75.91362h-9.311l-.38274-16.83571,5.35716-.22958,.19126-45.22683-10.1402-1.37735,.57412-34.89583s1.14777-11.70847-31.95124-7.11703c0,0-14.1581-1.37735-16.83662,3.90294l-.574,27.54934-123.24303,2.72782,.33779-121.76799,11.77722-8.70474-3.07236-14.84946,66.82236-35.84343c9.98498,1.53612,24.32232-5.12049,24.32232-5.12049l3.07236-310.81361c12.28922,1.02412,18.43383-10.75298,18.43383-10.75298-4.60849-76.29534-48.64465-160.27129-48.64465-160.27129l.00011-49.15677-43.01216-24.57833,.63497-38.33344c28.08205-51.87281,82.48239-152.67658,81.97564-154.19692-.68267-2.04813,27.99202,63.49411,27.99202,63.49411l.68267,116.06435h15.02013s-2.73091-106.50616-5.46182-172.73107c-2.73091-66.22503-29.18681-62.81133-29.18681-62.81133l-50.0101-3.4137-18.43372-5.46182-18.73021-13.24825,11.90362-718.63936-899.15781,23.89531s0,58.71496,1.36546,61.44586,9.55831,25.9439,9.55831,25.9439l44.37748,2.04812,2.73091,47.79121-2.04836,391.8881-8.87552,5.46182-7.50995,11.60643,4.77904,12.97189,23.21287,9.55831-2.04824,93.53426-14.33735-2.04824-6.14461,15.7028,9.55831,17.06837,2.04813,44.71883s-4.77915,83.63474-8.19274,124.59854c-3.4137,40.96391-27.30935,52.9118-27.30935,52.9118l-3.07225,66.22491,15.36147,.68279,1.02401-16.04425,5.12049-.34134-2.38958,25.94378-5.12049,20.82329,6.48595,12.28922s35.16075,15.7028,38.91579,25.60245-42.67082,81.92783-43.69494,82.95195c-1.02401,1.02401-15.36147,0-15.36147,0l-14.67867,52.91169s12.97191,8.87552,13.99603,9.89964c1.02401,1.02401-.6829,424.31772-.6829,424.31772l9.55819,3.07236v12.97189l-7.51007,8.53407v83.29329c0,1.02412-6.48593,2.38958-6.48593,2.38958l-1.02412,43.01204c-45.74307,49.4981-58.37362,89.09656-58.37362,89.09656l-1.02401,57.00805-5.07782,18.30583-23.42633,30.59505-.5121,150.92632-4.73649,158.60705-9.34487,3.71237,.768,6.91273,8.57685,1.28001-7.68073,184.7215s13.69723,2.43213,14.20935,2.68836c.512,.256,.768,13.82523,.768,13.82523l-9.08886,7.16873,2.43224,169.74415c-38.91579-32.25917-42.24404,25.47433-42.24404,25.47433l-6.01662,4.35248-1.15213,7.68073,17.66572,16.38547,.64,42.49992-11.3931-.63989-2.04812,9.34486c14.59334,15.87347,5.2485,40.70791,5.2485,40.70791,0,0-18.30583-16.6417-18.68982-17.02559-.38401-.38412-11.77711-1.28001-11.77711-1.28001l-.64011,7.93674,23.68231,16.6417,.38401,14.20958-7.16872,.12812-.512,10.62487,14.59334,22.7862s.64011,26.62645,.128,28.41869c-.512,1.79224-4.60836,11.77722-4.60836,11.77722l-59.01362-44.29216-13.44135-.38412s-7.68074,14.97758-7.80873,15.36147,46.98052,27.01057,46.98052,27.01057c4.73637,37.50755-13.69734,29.31481-13.69734,29.31481l-38.53167-29.4427-9.85698-2.68836s-2.81625,1.92013-3.20025,2.17613c-.38401,.25623,1.15213,7.80885,1.15213,7.80885l33.92319,39.04356v42.37204l12.28922,3.07225,1.66412,16.12947-6.01662-.12812s-.64,13.69734-.64,14.20935,18.04972-.12812,18.43373-.12812,0-29.05881,0-29.05881c27.77868,8.96074,37.25156-13.82523,37.25156-13.82523l9.98498-.38412,5.1205,5.50461v65.15824l7.12596,8.91819,19.1165-17.75104-7.51018,366.62699,2.73091,137.22921-4.09637,5.46205-.00023,451.96818-10.24099,2.04847-3.41369,139.10655h178.40083l51.36835,11.69005,2.25151-1.58176,44.88149,11.60998,121.54502,23.82119-7.95938,7.96282,2.14799,4.13263,21.4538,4.8821,1.24592,2.90181-1.23105,4.82491s-8.55043,2.89723-8.67305,17.07226c0,0-9.52536-2.36373-9.5678-2.17704-.04255,.18668-2.25002,8.91316-2.08141,8.95113,.16861,.03843,4.7493,.75359,4.7493,.75359l.62342-2.9343,5.12667,2.01781-.34797,6.20398,13.95129,3.17497,9.10258,19.41631s2.31683,1.31272,2.44368,1.1448c.12674-.16746,1.07056-1.39234,1.07056-1.39234l.20533-4.99329-5.43163-20.93631s-.65831-9.57478,11.16741-4.46207c0,0,3.55543,24.89507,3.69601,24.86167,.1407-.0334,5.92178-2.64512,5.92178-2.64512l1.36054-6.5627-8.05501-32.00546s3.74073-1.24317,4.38749-1.35802,9.34291,2.19168,9.34291,2.19168l5.88804,8.80151,3.55497,.54723,.83527-3.47512,4.63605,1.25141,2.85937,12.7589,2.68413,.28368s.96533-5.6055,.88136-5.821-3.53827-10.36086-3.53827-10.36086c0,0,9.21068-2.68173,12.82273,5.60138l3.30343-.29512,1.04963-5.58628,13.92269,3.49571,3.44069,9.815,2.65645,.01556,2.09857-2.59845s19.37742,2.70826,13.061-18.62657l55.62029,13.90141,3.36577-3.88097s4.43953,1.1416,4.4671,1.40927c.02768,.26813-.68679,7.10902-.68679,7.10902l61.67053,10.10783-.52733,4.26532,2.191,.89132,2.25609-4.26441,52.74639,9.5821,49.75021,11.06046,12.6651-9.09526,6.58901-1.09676,18.88361,3.77391s14.43538-3.17268,35.79332-21.69997l14.27523,2.72519s1.16711-3.05051,1.50432-2.97364c.33722,.07641,27.42489,6.24104,27.42489,6.24104l3.64076-3.01116,4.27104,.97185-.04587,4.87661s139.56102,30.88811,139.78488,31.4628c.22397,.57469,1.71125,7.54553,1.71125,7.54553l19.04535-3.17085s1.24889-7.04634,1.69936-7.46728,29.30223-17.59204,32.14627-15.02471c2.84416,2.56688,4.12462,20.83565,4.12462,20.83565l3.32882,4.07361,7.42267-.92884,8.80655,.78242-.6789,2.46347-5.39594-.70418-1.47458,7.51853,22.14482,3.46872s6.57746-10.7205,20.44272-9.31077c13.86527,1.40972,41.93118,5.35384,41.93118,5.35384l14.49738,4.34631,4.5625,5.92533,5.84995-1.81008,.91179-7.1232,31.02332,6.01272,.57915,12.00027,3.74234,3.29531,4.6523-2.78101,2.78021-3.90523,129.25827,28.36882,15.43342,4.90864-4.23489,21.72559s6.73657,5.72217,7.48479,6.59061c.7481,.86844,20.08034,5.26782,20.08034,5.26782l6.63065-26.88955,87.97418-2.15874,1.42082-7.10399h313.52302l3.78878-2.84187,95.19347,1.89427,254.32305-5.20925-12.31347,13.26084,6.18636,4.94296h45.19927l3.81829,3.55199-.2663,6.92646s-15.80644,6.57139-9.59034,25.84083c0,0-20.15755-.2663-20.15755,0s-.44406,12.78727-.08877,12.78727,9.85686-.44429,9.85686-.44429l-.08877-4.17381,11.1888,1.15441,2.13129,8.52469h29.39283l27.08401,23.53201s5.23922,1.06564,5.41676,.79935c.17776-.2663,1.50947-2.22005,1.50947-2.22005l-1.86476-6.83769-20.42408-26.72895s-5.68328-12.78727,20.33508-9.50157c0,0,18.47032,32.67852,18.73685,32.58976s10.65598-5.41698,10.65598-5.41698l-.2663-9.32404-30.72477-40.93692s6.92646-2.84187,8.16963-3.19693,19.71372,.08877,19.71372,.08877l15.80644,10.12339,7.37051-.35552,.08877-4.9727,9.85686,.2663,11.54409,16.42757,5.50552-.44383s-.62159-7.90333-.88811-8.16963-11.81039-12.9648-11.81039-12.9648c0,0,17.22715-6.48217,28.23819,3.64076l6.4824-1.42071-.44406-7.90333,29.48159,.44429,11.36633,12.25467,5.32799-.79935,3.01917-4.17335s40.04881-2.30882,17.67097-29.30406l117.74861,1.687,4.9727-6.30464s9.41281,.17753,9.59057,.53259c.17753,.35552,1.86476,9.85709,1.86476,9.85709l128.13829-5.32822,.88811,5.94958,4.79517,.53305,2.57512-6.48263,110.02326-3.28524,104.69527-.35552,21.2232-16.2505,12.69827-3.52271,39.5455-.71058s27.46881-8.76171,61.80482-40.49263l29.83665-.71012s.94714-4.49959,1.65772-4.49959h57.77903l5.92007-5.20925h8.99849l2.13129,6.63042s293.63176-1.18415,294.34189-.47357c.71058,.71012,6.86743,9.70884,6.86743,9.70884l36.70386-10.18241s-.71035-9.9454,0-10.65598,50.67527-32.91554,57.54225-30.31022c6.86743,2.60486,17.7602,26.99524,17.7602,26.99524l8.52469,4.49913,14.44476-3.55199,17.99698-1.65772-.23701,3.55199-11.12955,.71058,.47357,10.65598,45.93936-2.13129s8.28791-16.57582,36.70386-18.94366c28.41595-2.36784,86.43176-5.68328,86.43176-5.68328l31.02035,1.42071,11.84013,6.63042,10.89254-4.26258-1.42071-9.9454,64.88302-1.42071,6.63042,16.10225,8.99826,3.31498,8.05112-5.20925,3.78901-6.15685,271.84578-1.42071,33.15209,1.89427,1.42116,30.78379s16.10271,5.68328,17.99652,6.63042c1.89427,.94714,42.62392,.94714,42.62392,.94714l.99747-37.53455,61.90434,23.64366h551.3016l-2.2411-29.50584-6.7233-.43422v-66.78599h295.45741l-2.3683-96.4959-7.10399-1.42071v-313.52302l-2.84141-3.78878,1.89427-95.19347-5.20971-254.32282,13.26084,12.31347,4.94342-6.18636v-45.19927l3.55199-3.81829,6.926,.2663s6.57139,15.80644,25.84083,9.59034c0,0-.2663,20.15778,0,20.15778,.26675,0,12.78727,.44406,12.78727,.08877s-.44383-9.85686-.44383-9.85686l-4.17381,.08877,1.15441-11.1888,8.52515-2.13129v-29.39283l23.53201-27.08401s1.06519-5.239,.79889-5.41676l.00046,.00023ZM820.59342,894.39028l-34.57577,.87873v-17.35252l-17.56024-10.67474,54.54893,5.91114-2.41268,21.23715-.00023,.00023ZM-94.06766-315.13327h-13.77536l-.5104-24.4883,4.5919-4.89766s4.08161-7.9587-.51029-10.40753c-4.59179-2.44883-11.73455-14.69298-11.73455-14.69298l-6.63259-.61221,1.53063-35.50804s-3.02924-2.34497-6.82122-4.00749l-1.02309-5.78783,3.63515-2.98463c12.69381-17.40765,26.81188-14.33563,32.47148-12.27504l-1.22167,115.66147v.00023Zm.51006,21.42704l-.7298,77.13838h-17.12706v-77.13815h17.85685v-.00023Zm-108.36177-490.53085h19.58732l3.38693,2.81876-23.91167,1.81329,.93741-4.63182v-.00023Zm10.40375,414.61711s-13.77536,4.28545-13.2653,28.16155c.11748,5.4934,.28895,18.09398,.48329,34.22551l-1.63164-2.31156,2.56036-293.91613s51.20489-30.2107,52.22901-31.23494,6.1445-8.19274,6.1445-8.19274c-18.94572-18.43372-47.10841-6.1445-47.10841-6.1445l14.84946-20.48196,2.04813-8.70474-8.70474-6.65673-19.96995,15.36147-1.53612-11.77722,14.84935-13.82523-2.56024-11.77722-21.50596,3.07225v-50.18066c3.07225-8.70474,40.96391,11.77722,40.96391,11.77722l16.47138-21.09508,67.2734,55.98588-1.18644,112.32613c-.83149,.14276-1.71057,.49164-2.62373,1.10179,1.63987-.63897,2.60497,.66849,2.60508,.66849l-1.69501,160.48463c-24.76158-2.73732-32.30081,9.64227-32.30081,9.64227,1.33926-5.05071,8.60957-54.18037,8.60957-54.18037,7.10547-80.44856,14.80611-106.11323,19.84035-113.76651-6.06591,7.75188-13.00541,28.76506-17.92709,80.01868-10.7142,111.5746-16.26262,91.60167-16.26262,91.60167l-2.67852,2.29578v5.82489c-3.26694-.28734-6.33404,.81628-7.97197,4.96515l-3.57121,35.50804-46.42803,1.22442v-.00023Zm101.76246-354.00124l-60.90985-48.0695,6.17973-7.91432-4.35237-4.09625-15.55215,1.17935-17.29452-13.64861,92.7165-1.99379-.78734,74.54359v-.00046ZM-124.57634,262.62183l-7.95618,1.69181-14.00356,28.21188-.68805,5.51948,17.85743,13.34045-4.12588,5.336-6.28622,.19355-50.52302,114.70427,5.6071,5.61488-1.82507,5.74597,8.97641,105.73552-5.71474,.17593,1.70954,55.50888,.21368,6.93858,8.40253,124.24336,9.49505,11.13207,1.0176,33.04159,11.57189,4.27356,.79237,25.72622-49.87844,10.69327-1.12833,27.44685-.77098-.21025,11.77733-463.40429s-9.72898-32.25917-9.72898-33.79541c0-1.53601,3.58448-479.27753,3.58448-479.27753l23.55432,24.06644h7.68073l1.02401-9.72898-20.99396-20.99396-2.02273-11.73146c.18176-.07046,.35884-.12926,.54449-.20956l63.26454,1.06061s13.26495,6.28588,14.79559-15.75336v-22.65191l13.77307-.86958-4.25503,449.68521-25.74097-1.46006ZM-2.73492-408.87538c-2.64592,.13864-4.59911,.97116-4.59911,3.13516l-1.53063,39.79349s-16.32622-.61221-17.3468,18.36646l-1.11735,33.67142h-15.20887l.57251-107.51655c4.63136,1.02035,13.37008,2.2697,19.96286-1.68609,9.18357-5.50987,19.7064-2.29578,22.0023,7.57618l-.574,3.21409-2.10452,2.29555-.05639,1.15029ZM-45.59894-99.02446l-.51017-9.18311,6.20535,.33836c1.88284,3.06904,3.97718,6.0388,6.15651,8.84475h-11.85168Zm127.45162-174.594c-.35907-20.12323-.85917-36.05093-1.12387-43.7129,.21322-.26332,.42049-.53785,.62662-.81468,1.32313,9.3412,1.2688,25.71638,.49725,44.52758ZM-29.08135-582.66797s32.52524-4.36186,37.11703,.22969c0,0,14.92325,5.28018,8.60957,43.3901,0,0-13.0101,13.54521-14.15799,55.32814l.76526,67.03673-2.10452-1.148s-4.0179-13.54521-22.95893-8.2648c-11.00784,3.06859-17.01907,2.87733-20.14097,2.18162l.87999-165.27087c4.77355,1.81489,12.6619,5.06741,11.99055,6.5174Zm-2.48704-292.023s-2.29601,3.67325-3.31624,0c-1.02057-3.67325,0-27.54934,0-27.54934h4.84664l-1.5304,27.54934Zm11.86209-21.12105s-2.29601,3.67302-3.31624,0c-1.02057-3.67336,0-27.54945,0-27.54945h4.84664l-1.5304,27.54945Zm-4.97453-102.54477l-.50571,69.19856-4.4687,6.71507v11.24531l-3.91781-2.06208-1.28676,1.93362c1.37632-6.87041,2.52604-12.82902,2.52604-13.56568,0-1.83662-.51017-73.46479-.51017-73.46479h8.16311Zm-46.68311,443.23816h9.94883v85.40273h-9.94883v-85.40273Zm0,170.80568h9.94883v85.40295h-9.94883v-85.40295Zm-4.97442,170.80568h9.94872v85.40295h-9.94872v-85.40295Zm0,170.80591h9.94872V42.70136h-9.94872V-42.70136Zm0,154.27607h9.94872v85.40295h-9.94872V111.57471Zm-12.62747-1086.94077l-87.58938-69.38352,87.58938-3.808v73.19152Zm-110.96811-68.36718v8.79728h20.2804l90.68771,75.91053v127.18898l-110.98653,3.80525-1.88032-1.75495h-8.19274l.5923-213.53404,9.49917-.41306Zm70.47124-1010.87364c68.95582-3.4137,59.39763,43.69483,59.39763,43.69483,0,0,2.04813,36.86755,1.36546,38.91567-.68279,2.04824-26.62657-66.9077-26.62657-66.9077l-8.87552,1.36546c-9.35332,42.82845-51.00437,96.30075-73.51592,122.80332l2.53382-152.97193c12.62243,8.53865,27.78246,13.98835,45.72111,13.10035ZM943.59017,898.60893c-.57057,0-7.25109-1.935-13.33542-3.73273l1.68334-13.12677,168.71832,15.6877c-79.68536,.59688-156.55401,1.1718-157.06647,1.1718h.00023Zm1571.34714-15.30725c18.38316-15.61518,55.47479-44.5079,85.18607-50.99671l.94714-6.15685s-47.83363-17.99675-46.41247-18.47032c1.42116-.4738,26.99478,.94714,26.99478,.94714,0,0,32.67852-6.63042,30.31068,41.20322-.61633,12.44936,3.18229,22.9571,9.11036,31.7156l-106.13657,1.75792Zm765.65797-1856.98142l-6.15639-.94725s-17.99698,47.83352-18.47055,46.41281c-.47357-1.42082,.94714-26.99524,.94714-26.99524,0,0-6.63042-32.67841,41.20322-30.31034,12.44959,.61633,22.95733-3.18263,31.71583-9.11048l1.75792,106.13668c-15.61541-18.38316-44.50813-55.47479-50.99716-85.18607v-.00011Z"/>
  </g>
</svg>