<?xml version="1.0" encoding="UTF-8"?>
<svg id="Layer_2" data-name="Layer 2" xmlns="http://www.w3.org/2000/svg" viewBox="0 0 715.39598 352.54451">
  <defs>
    <style>
      .cls-1 {
        fill: #af8012;
      }
    </style>
  </defs>
  <g id="Layer_1-2" data-name="Layer 1">
    <g>
      <path class="cls-1" d="M61.64498,226.31206c.11854-1.04008,.85128-.97085,1.60878-.92029,.13549,.64992-1.06013,1.26927-.00621,1.87751,1.83518-.42129,3.44917-1.72774,5.48666-1.35921,.17373,.03138,.40442-.10745,.57386-.21973,1.70785-1.13175,1.95608-1.22316,3.82475-1.42916,.21151-.02334,.41231-.14135,.61873-.21358,2.9866-1.04544,5.97633-2.08209,8.95645-3.14571,.40587-.14484,.87974-.34053,1.1125-.66374,.25312-.35142,.26157-.87912,.37666-1.32994-.38607-.09675-.77609-.28573-1.15734-.26943-.63206,.02704-1.30539,.07644-1.87419,.31999-.58476,.25044-.82254,.32806-1.41655-.19682-1.42191-1.25656-3.17658-1.12355-4.32214-.03809-3.93471-.88813-7.05088-3.15328-9.97802-5.68951-1.98204-1.71733-3.81091-3.6103-5.73977-5.39058-2.03363-1.877-4.16962-3.64779-6.13582-5.59156-1.23701-1.2229-2.25322-2.67118-3.34987-4.03331-.45648-.56702-.83534-1.1972-1.29925-1.75743-3.49849-4.22519-6.65886-8.67046-9.49762-13.38182-2.88436-4.78703-5.30587-9.79889-7.13809-15.01876-1.556-4.43294-3.30649-8.97859-2.56758-13.89345,.13848-.92097,.37369-1.83277,.6321-2.72923,.60382-2.09477,1.20864-4.1911,1.90026-6.25762,.22511-.67262,.57394-1.51692,1.12268-1.82367,1.13969-.63712,1.30783-1.55662,1.46161-2.67857,.21837-1.59324,.65865-3.06274,2.35591-3.89668,.56227-.27629,.84847-1.25483,1.11301-1.96723,.50743-1.36657,1.17898-2.06096,2.85134-2.32851,1.82651-.29223,3.68888-1.19528,4.98857-2.82355,.29763-.37288,.99604-.40948,1.48857-.64558,3.35037-1.60602,6.7012-3.21132,10.03671-4.84784,.7519-.36891,1.40093-.96978,2.17247-1.27183,1.52317-.59632,3.12566-.95261,4.52416-1.8992,.66563-.45056,1.82516-.22304,1.84679-1.48476,.00079-.04574,.11243-.1376,.153-.12777,2.21507,.53645,2.93168-2.19277,4.94426-2.272,.56061-.02209,1.08617-.93447,1.70718-1.51227q1.32092,.30094,1.96983-1.44451c.32416,.11102,.64957,.22246,.97418,.33254,.82491-1.50893,2.4385-2.06442,3.71048-3.02196,1.45819-1.09768,3.03285-2.03932,4.53166-3.08497,.56633-.39513,1.05198-.90406,1.59214-1.33913,1.42652-1.149,2.81169-2.35913,4.31043-3.40578,1.31169-.91601,2.23758-2.17006,3.34973-3.25633,1.15219-1.12533,2.75559-1.78433,3.92765-2.89447,1.65183-1.56457,3.09482-3.35086,4.60208-5.06434,.10045-.11422-.00984-.41389-.0339-.83199-.91851-.07529-1.85942-.0399-2.74377-.24656-2.40044-.56098-4.78693-1.18906-7.16036-1.85665-2.83317-.79692-5.62987-1.60616-8.58514-2.02002-2.37215-.33218-4.62165-1.65908-6.56521-3.21529-4.20512-3.36707-8.35806-6.79947-12.57191-10.15543-.78171-.62255-1.80077-.9405-2.61497-1.53061-.68269-.4948-1.4803-1.07375-1.78885-1.80135-1.56829-3.69823-4.54718-6.4373-6.51579-9.84937-.80127-1.38877-1.58053-2.79439-2.28354-4.23448-.60672-1.24285-1.1674-2.51971-1.60874-3.82864-.46626-1.38288-1.379-2.80705-.01322-4.24983,.18381-.19418,.06294-.69626,.04889-1.05441-.02762-.70402-.07931-1.4071-.13329-2.31673,2.12085,.39895,3.6749-.27874,4.99103-1.62958,.17264-.1772,.52905-.18017,.80405-.249,.06276-.0157,.15729,.00952,.20961,.05085,1.12887,.89164,1.4454-1.20006,2.64705-.6733,.73343,.32149,1.75536,1.02575,2.68221-.16724,.28506-.36691,1.3634-.11723,2.4739-.16794,.4697,.74948,1.53255,.7798,2.70648,.44965,.73541-.20682,1.51905-.06421,2.22708-.09251,.79627-.03184,1.69977-.91397,2.62584-.82582,1.79189,.17058,3.32013-1.39473,5.28335-.52676,.73015,.32281,1.94103-.39736,2.9185-.68948,1.45579-.43507,2.8943-.92779,4.34874-1.36765,1.80678-.54643,3.62176-1.06569,5.43444-1.59247,.35092-.10198,.815-.07347,1.04364-.29464,1.28861-1.2465,2.87061-1.57365,4.57441-1.75635,.69374-.07439,1.40099-.50191,1.99648-.91949,1.52783-1.07138,3.40608-1.25842,5.00489-2.07792,1.19893-.61453,2.68928-.60136,3.65142-1.72177,.16661-.19401,.49994-.2841,.7732-.34131,4.14865-.86856,7.8367-2.96042,11.75789-4.43137,2.36461-.88703,4.60903-2.21011,7.03813-2.76772,1.54264-.35411,2.70346-1.15833,4.0406-1.76227,1.32263-.59739,2.70909-1.08234,4.10687-1.47738,1.84405-.52117,3.63184-1.43112,5.42036-1.75954,1.51751-.27866,3.0155-1.37017,4.69178-.7578,.06787,.02478,.17819,.06663,.21029,.03707,2.02436-1.86497,5.20162-1.38124,7.10928-3.48786,.13231-.14611,.35588-.30866,.53083-.302,2.26649,.08627,4.1926-.70067,5.90474-2.15288,.31061-.26347,.88566-.51957,1.21204-.40815,1.56629,.53466,2.70528-.32327,3.92621-1.0044,.30332-.16921,.7895-.41966,.99092-.29864,1.84899,1.11112,3.43466-.94584,5.21181-.38188,.92811-1.14578,2.38684-.66877,3.54405-1.14814,1.13691-.47097,2.33986-.79557,3.53174-1.11824,3.31766-.89816,6.71465-1.18415,10.13815-1.3195,4.67202-.18471,9.33353-.09896,13.96962,.50058,1.86601,.24131,3.72516,.6381,5.53787,1.14235,.79411,.22091,1.55006,.79508,2.17421,1.37064,1.82273,1.68087,3.57089,3.41232,5.63795,4.84122,1.71683,1.18678,3.11262,2.83285,4.68473,4.23728,.52437,.46844,1.14999,.82494,1.73697,1.22133,.6042,.40804,1.31373,.70919,1.80919,1.22009,1.46932,1.51511,2.94054,3.04353,4.24773,4.69599,1.02934,1.30128,1.79667,2.80744,2.71912,4.19683,.51903,.78175,1.01446,1.62339,1.69629,2.24526,3.27623,2.98823,4.0583,7.5941,2.09006,11.6302-.82259,1.68681-2.56088,2.45245-4.13331,3.30724-.8138,.44241-1.71917,.72096-2.51685,1.18714-.93739,.54785-1.73091,1.26183-2.97769,.63435-.51364-.25852-1.26586-.04285-2.04837-.04285,.04352,1.06596-.71101,2.16653,.96729,2.54479,.18994,.04281,.15406,1.08806,.27822,2.13494-.66207-.55009-.90178-.74925-1.16136-.96492-.85088,.69494,.40852,2.39145-1.51005,2.6779-.09348-.13318-.29399-.41883-.54743-.77991-.29704,.43845-.56521,.83427-.84842,1.25233-2.72792-.03441-5.16957-1.12555-7.67204-2.01453-.99405-.35313-2.05585-.51549-3.17041-.78491-.29353,.7658-.49042,1.27946-.63405,1.65422-2.84618-.22059-5.47525-.25709-8.10585,.97315-1.32982,.62191-2.7247,1.14175-4.03647,1.84091-.29257,.15593-.69747,.12918-1.0516,.13588-.90529,.01713-1.81115,.0057-2.72904,.21244-.79754-.42267-1.53027-1.4074-2.59815-.34625-1.26208-.49324-2.10444,.43949-3.13099,.84193-.77765,.30485-1.7207,.33894-2.57262,.27171-1.85274-.14617-2.69703,.5541-2.48783,2.42287,.19512,1.74281,.66507,3.45849,.80602,5.20294,.25172,3.1155,.5171,6.24792-.24599,9.34551-.06817,.27672-.175,.66985-.04449,.84965,1.04503,1.44001,.73541,3.22287,1.27541,4.78246,.01907,.05515,.11268,.08448,.3001,.21617,2.50792-.54788,5.12128-1.12076,7.73552-1.68933,2.28228-.49634,4.55548-1.04267,6.85077-1.46939,4.09917-.76208,8.20816-1.47384,12.32079-2.16014,2.01077-.33556,3.96742-.71424,5.89916-1.48841,2.67302-1.07127,5.58724-.935,8.44336-1.13867,2.18819-.15605,4.46964,.67294,6.5818-.45933,.91948,.57791,1.73225,.41761,2.14852-.16749,2.95653,1.00332,5.70826,1.9011,8.43223,2.87633,1.41958,.50825,2.81252,1.10539,4.17887,1.74499,4.03717,1.88981,7.75499,4.1594,10.62045,7.744,1.52649,1.90958,3.57338,3.40064,5.36555,5.10153,.52705,.50019,1.02063,1.04485,1.47018,1.61588,1.44261,1.83241,2.83266,3.70657,4.28916,5.52767,1.94968,2.43769,4.01658,4.78566,5.87884,7.28708,.70221,.94318,.9131,2.23752,1.4539,3.31874,1.20199,2.40313,2.5937,4.71892,3.67054,7.17453,.75241,1.71574,1.19019,3.58527,1.62815,5.41963,.73619,3.0835-.02033,6.10901-.65378,9.09986-.33056,1.56079-1.02479,3.0436-1.54154,4.56613-.51595,1.5202-1.33004,2.64454-2.97846,3.23072-2.04206,.72615-3.84712,2.01145-6.0411,2.47142-1.17574,.24651-2.21503,.97884-3.04076,2.01582-.65394,.82125-1.47428,1.39971-2.83636,1.08777-.82323-.18853-1.92166,.44315-2.78611,.91047-1.14747,.62033-2.18907,1.43724-3.27237,2.17528-.35727,.2434-.80575,.43312-1.0368,.76849-1.39638,2.02683-3.36604,3.28006-5.47002,4.46408-1.49091,.83899-2.73722,2.10273-4.14328,3.10599-.97952,.6989-2.21629,1.02476-2.79391,2.27797-.14347,.31131-.91336,.62596-1.23714,.50728-.97855-.35865-1.30526,.34075-1.80546,.84058-2.53379,2.53208-5.27437,4.67022-8.56304,6.29427-2.3611,1.16598-5.00739,1.65653-7.19627,3.22304-.64456,.4613-1.73899,.23463-2.53699,.551-3.13882,1.24446-6.39245,2.18668-9.33967,3.94044-1.66216,.98906-3.59795,1.51181-5.39073,2.29006-.98574,.4279-1.9171,.97994-2.89796,1.42044-.81599,.36648-1.49375,.76455-2.61658,.49434-1.2132-.29196-2.65527,.21061-3.96348,.51367-1.3874,.32141-2.74272,.79179-4.09724,1.24173-1.194,.39659-2.311,1.25873-3.65906,.40075-.20136-.12818-.58757-.04943-.85987,.03047-2.75321,.80793-5.50314,1.62737-8.24597,2.46972-.33703,.10351-.6271,.36006-.91361,.53065-.18013-.09675-.3809-.13532-.4189-.2356-.43115-1.13865-1.13983-2.097-2.36394-2.27081-1.67787-.23821-3.47928-.49057-4.90192,.75032-1.59377,1.39016-3.1916,2.81596-4.55041,4.42649-2.45074,2.90466-4.68937,5.98726-7.08557,8.93951-1.53663,1.89323-3.10429,3.77995-4.83598,5.48923-1.06222,1.0485-1.31966,2.13476-1.20478,3.64651,.96166-.05697,1.84102-.00708,2.67638-.1755,4.58085-.9237,9.15421-1.88559,13.7221-2.87162,.99424-.21458,1.94032-.65363,2.93505-.86434,3.03378-.64266,6.08052-1.22416,9.12208-1.83009,.27688-.05515,.59926-.042,.82203-.18384,2.15678-1.37356,4.62842-1.48967,7.04961-1.86703,1.692-.26374,3.35893-.70161,5.02626-1.1063,1.0918-.26503,2.21245-.09994,3.32244-.6576,1.06528-.53518,2.41199-.50305,3.63104-.74085,1.21719-.2374,2.42449-.52788,3.64485-.74611,2.21331-.39573,4.4203-.9373,6.6527-1.09439,5.85577-.41207,11.59501-1.50139,17.25416-2.94173,5.0474-1.28464,10.18246-1.96461,15.2981-2.8125,2.52272-.41818,5.01136-1.12982,7.54724-1.36395,6.54141-.60392,13.09734-.77411,19.6539-.04981,3.04701,.33659,6.11158,.51085,9.16373,.80525,2.32345,.2241,4.64614,.477,6.95715,.80249,1.47989,.20846,2.88166,.1983,4.56553-.80091-1.33497-.36757-2.37233-.6532-3.40967-.93882,.00855-.13347,.01714-.26696,.02569-.40043,1.92123,0,3.85058-.10839,5.76098,.03516,1.46114,.10981,2.49708,1.29583,2.54516,2.84536,.04701,1.51402-.0085,2.95984,1.78197,3.54643,1.31958,2.40108,4.01521,2.99854,5.97041,4.56532,.72578,.58158,1.40987,1.2175,2.08988,1.85335,1.27093,1.18851,2.51703,2.40355,3.78845,3.5916,1.13873,1.06414,2.16751,2.12594,1.96301,3.91537-.06742,.58968,.34641,1.23918,.55987,1.85447,.14331,.41301,.53043,.86244,.44944,1.21244-.49165,2.1246,.93573,3.66169,1.54462,5.44578,1.07957,3.16328,.95681,6.25108-1.17702,8.91161-1.39322,1.73718-3.26441,3.02751-5.27263,4.05943-1.1346,.583-2.14305,1.57493-3.5773,1.18768-.91004-.24572-1.92876-.39903-2.66415-.92311-2.12986-1.51783-4.63563-1.11711-6.96224-1.53773-2.57241-.46507-5.21612-.51938-7.80841-.89379-4.92007-.71065-9.83148-1.48666-14.73512-2.30377-3.38076-.56332-6.72293-1.39845-10.11861-1.81936-2.78807-.34557-5.58509-.90519-8.45119-.4461-1.40005,.22429-2.93379,.3629-4.27734,.02476-2.32846-.58603-4.53874-.01784-6.79748,.14151-2.30036,.1623-4.65751,.08224-6.87726,.59531-1.16482,.26924-1.53532-.92606-2.52452-.65084-.40871,.1137-.96461-.30172-1.70332-.56576-.165,.12652-.54341,.41668-.92165,.70598-1.0877-.77977-2.18746-1.344-3.49084-.40273-.19906,.14377-.54282,.10434-.82117,.11778-.97611,.04715-1.95295,.08041-3.34941,.1355-.13242-.13875-.6135-.64282-1.16646-1.2222-.79945,.67994-.92986,2.21885-2.274,1.74013-.43051-.15334-.661-.8686-1.15294-1.56858-1.75615,.38669-3.83935,.24494-5.77179,1.16386-.30166,.14344-1.00028-.40016-1.21038-.23587-1.39917,1.09402-3.03078,.7033-4.57141,.93526-.70755,.10651-1.33001,.77843-2.10629,1.2664h-3.46647c-.05334,.08127-.32198,.49074-.59087,.90101-.44177-.03817-.92313-.20886-1.317-.08988-.9612,.29035-1.86896,.75794-2.83046,1.04689-.18047,.05423-.51058-.3897-.66931-.51986-.85292,.51504-1.82276,.82558-2.34525,1.48876-.5961,.75662-.96772,1.79783-1.13202,2.76707-.51249,3.02324-.83072,6.07905-1.32084,9.10658-.40828,2.52202-.98676,5.01609-1.42269,7.53417-.22335,1.29011-.29562,2.60613-.44405,3.90958-.05766,.50616-.06742,1.03168-.21791,1.51107-.93935,2.99194-1.87612,5.98557-2.88471,8.95456-.95362,2.80719-1.95692,5.59896-3.00962,8.37043-.74281,1.9557-1.59021,3.87235-2.41749,5.79498-.80218,1.86426-1.66567,3.70259-2.44345,5.5767-.24229,.58381-.293,1.24722-.4666,2.03381,2.18186,.51587,4.23036,.96602,6.26081,1.48653,6.57172,1.68469,13.13818,3.39009,19.70174,5.10621,.48792,.12759,.92897,.42481,1.40547,.60752,3.31914,1.27257,6.68925,2.42568,9.95087,3.83107,3.67341,1.5829,7.2657,3.3582,10.86405,5.10986,3.13502,1.52617,6.26215,3.07477,9.3345,4.72218,5.51808,2.95887,10.90135,6.13527,15.90822,9.92983,2.6336,1.99593,5.54028,3.64517,8.08456,5.74125,2.41784,1.99199,4.56063,4.32669,6.7534,6.57976,1.25476,1.28928,2.52071,2.61638,3.49891,4.11155,.8552,1.3072,1.35994,2.85579,1.93155,4.33186,.31319,.80874,.44936,1.68676,.65668,2.53565,.36427,1.49152,.26106,2.84863-.94372,4.00147-.4046,.38715-.68494,.95481-.88829,1.49077-.36647,.96602-1.03251,1.56107-1.95751,1.94503-.47111,.19553-.94664,.41089-1.365,.69777-1.91141,1.31066-1.90442,1.32085-4.15144,.72368-.57336,.94623,.33354,2.44381-1.05209,3.08598-1.14597,.53116-2.25437,.52027-2.86259-.19931-1.18096,.12338-2.02359,.09004-2.78632,.32087-1.02661,.31063-2.11385,.66173-2.95371,1.29097-1.18496,.88781-2.47861,1.17207-3.86418,1.34153-.8641,.10563-1.72244,.25779-2.58617,.36695-.35183,.04447-.76931,.15632-1.05788,.02301-2.65272-1.22526-5.65382-1.17497-8.3243-2.30482-.87116-.36859-1.76494-.73149-2.54991-1.24698-2.11069-1.386-4.78698-1.78954-6.52586-3.84292-.39608-.46772-1.11982-.66191-1.7001-.96814-.38728-.20433-.96976-.27788-1.15257-.59188-1.20502-2.06996-3.65134-2.04545-5.37761-3.24337-1.13725-.78921-2.67061-1.00379-3.44668-2.35369-1.73679,.15162-1.50917-1.55147-2.26442-2.29122-.75091-.73557-2.02074-1.28032-3.06784-1.28848-1.31531-.01019-2.00559-.09685-2.10245-1.60422-.03009-.46834-.76888-.95264-1.26581-1.31696-1.12242-.82295-2.5232-1.25093-3.3429-2.51542-.2008-.30979-.73329-.40566-1.11473-.59692-1.00762-.5053-2.01608-1.00896-3.24287-1.62265-.19959,.4236-.47792,1.01433-.85236,1.80901-.16345-.47496-.26792-.77864-.37245-1.08254-1.5429,.24244-2.96489,.07432-4.07447-1.18298-.14028-.15897-.36872-.4461-.45947-.4125-2.00728,.74399-1.62743-.81182-1.76092-1.8755-.43896,.16597-.83611,.31615-1.39485,.5274-.14977-.6194-.29034-1.20071-.44563-1.84297h-3.77115c-.03054-.61669-.05664-1.1431-.09418-1.90104-2.12021,.93907-4.07595,.52874-5.66372-.67299-.91489-.69249-2.81424-.05515-2.70909-1.74571-1.26074-.23928-2.39269-.45412-3.43531-.65199,.05294-1.05174,.41021-2.17977,.06449-2.47001-.83136-.69796-1.99221-1.00325-3.39374-1.6355,.24097,1.05172,.38715,1.68963,.54236,2.36699-2.23908-.14178-3.34091-.80501-4.05956-2.49166-.41415,.25159-.80658,.48993-1.2037,.73114q-1.96813-1.25897-2.32516-2.06041c-1.34602-.56391-2.49365-.94405-3.53748-1.51424-.81551-.44551-1.36415-.20184-1.94923,.31143-2.52079,2.21126-4.91785,4.58949-7.60146,6.58148-2.40328,1.78396-4.4572,4.15583-7.50018,4.9985-.20206,.05592-.54574,.14318-.56051,.25175-.26331,1.93076-2.28604,1.6819-3.27352,2.68845-.44,.44852-.76086,1.01398-.9958,1.64939-.71302,.34973-1.71536,.17826-2.12678,1.41124-.14017,.42001-1.24026,.7258-1.90117,.7247-1.596-.00257-2.92411,.61852-4.3576,1.20755-2.88326,1.18473-5.51944,3.00331-8.70705,3.45443-.8146,.11528-1.65127,.46472-2.34171,.91525-.38664,.25234-.4942,.9326-.74126,1.44882-.31981-.2201-.65933-.4538-1.08574-.74731-.95699,1.54098-2.12418,2.62464-4.06788,2.24578-.16055-.03127-.37363,.19336-.55888,.30483-1.81281,1.0909-4.09072,1.09782-5.77798,2.48079-1.45393-.2951-2.73009,.64416-4.15608,.59773-.49677-.0162-1.22489-.05378-1.46093,.23469-1.28037,1.56523-2.54171,.96911-3.85037,.13658q-.49208,.72409-2.49478,1.01484c-.4548-.73911-.88751-1.44225-1.44945-2.35543-.38514,.7014-.62262,1.1339-.77349,1.40864-3.46888,.406-6.83409,.79986-10.22732,1.19701-.05685-.07263-.23668-.20235-.21922-.2948,.37283-1.97461,.36414-1.80716-1.63966-1.96321-1.99586-.15543-3.9619-.69316-5.94128-1.06186-1.03633-.19306-2.14055-.21726-3.09714-.60583-2.78933-1.13299-5.78379-1.26262-8.65569-1.96654-.75192-.18429-1.47055-.50441-2.63755-.91423,.00536,.00775-.2703-.41598-.57652-.81635-.07488-.09787-.25-.11906-.49162-.22477-.19436,.44648-.38884,.8932-.5833,1.33992-.14429-.01279-.28857-.02559-.43284-.03838-.09897-1.16834-.19792-2.33671-.26403-3.11733-.70201-1.08205-1.36702-1.8483-1.73803-2.73732-.61037-1.46258-1.80776-2.51883-2.98904-3.17098-1.7432-.9624-2.83886-2.16086-3.39198-3.99522-.11921-.39536-.35723-.75488-.6995-1.45697-.21426,.69482-.32481,1.05327-.47891,1.55299-1.91907-1.16214-3.806-2.3057-5.69387-3.44773-.78446-.47454-1.60704-.89594-2.34611-1.4327-.7229-.52504-.96658-1.2472-.32237-1.9884-.99731-1.03592-1.93555-1.81252-3.47958-1.04305-.04398-.89516-.07737-1.57456-.11487-2.33778,.3686,.09149,.63422,.15745,1.07225,.26618,.0465-1.62804-1.02111-2.63076-1.70579-3.95638,.64051,.45316,1.2462,.9686,1.92706,1.34963,5.44378,3.04639,10.76567,6.28475,16.48522,8.86266,5.68591,2.56271,11.5276,4.30035,17.67436,5.081,3.52164,.44723,7.01051-.17869,10.44236-.82877,4.22279-.79983,8.42566-1.76701,12.56895-2.90936,5.58396-1.53964,10.83999-3.87117,15.65561-7.15552,1.92689-1.31417,3.99062-2.42562,5.95631-3.68518,3.00898-1.92807,6.03614-3.83464,8.95762-5.88963,1.47986-1.04102,2.75841-2.37278,4.09539-3.60837,.2425-.2241,.32729-.61889,.58057-1.12661-1.23559-.35303-2.33822-.67562-3.44531-.98222-1.02621-.28415-2.36166,.29451-2.95961-1.18366-.24277-.60022-1.00202,.80555-1.42304-.27713-.32314-.83095-1.19939-.53759-1.93072-.45383-.62174,.07116-1.26305-.03779-1.89602-.05155-.35392-.00772-.93133,.15723-1.02841,.00394-.95485-1.50812-2.59317-1.01173-3.91406-1.36401-1.03669-.27648-2.06539-.43503-2.74023-1.37723-1.09998,.58526-1.53746-.36365-2.07765-.99129-1.34012,.57434-2.49802,.66862-3.922,.14926-1.97762-.72132-4.18903-.771-6.23608-1.33971-2.97318-.82606-5.26016,.77129-7.63866,1.84385-.60313-.3588-1.14683-.93933-1.72853-.98029-1.79031-.12617-3.59516-.046-5.35809-.046-1.82877-2.64894-3.5485-5.13998-5.42119-7.85257,.29643-1.44573,.46376-3.22323,1.04385-4.85382,.7685-2.16033,1.86234-4.20465,2.80925-6.30202,.14465-.32034,.34939-.65521,.35845-.98794,.0395-1.45024,.01697-2.9022,.01697-4.49043,2.40371-.4446,2.20366-2.57998,2.90601-4.09172,.74426-1.60189,1.67286-2.93157,3.11555-4.0167,1.56918-1.1802,3.19734-1.76435,5.15337-1.75295,1.71536,.00995,2.86498-.89202,3.85235-2.39293,1.3612-2.0691,2.45058-4.24756,3.83492-6.5329-.81696-.24483-1.45822-.67127-1.84574-.50525-.85319,.36553-1.57833,1.03015-2.57933,1.72876-.51305-.11413-1.44969-.59306-2.23691-.41416-.65947,.14991-1.14441,1.06805-1.83437,1.77739-.925-.54819-1.96459-.76247-3.03585,.47797-.34223,.3963-1.55304,.31291-2.24654,.08462-2.15153-.70829-3.9198,.43288-5.7974,1.00819-1.7012,.52126-3.1093,1.64022-4.63622,2.51362-.37468,.21433-.66938,.57455-1.05093,.76963-.79703,.40748,.4106,2.45472-1.54726,1.86893-.37171,1.01339-1.21668,1.42766-2.13434,1.8548-.89969,.41872-1.75479,.98826-2.51897,1.62439-.5304,.4416-.84606,1.13186-1.30766,1.66795-.5441,.6319-.44154,2.01283-1.87435,1.66111-.07838-.01926-.28826,.16174-.30233,.26744-.15962,1.19972-1.43061,.96286-2.06289,1.59036-.64,.63517-1.51339,1.08063-2.35274,1.45705-.92019,.41268-1.92168,.64158-2.88198,.9676-3.51165,1.19224-7.01116,2.42122-10.53426,3.57846-2.67164,.87756-5.35304,1.73793-8.06645,2.47138-1.86111,.50305-3.76984,.91098-5.68363,1.11904-2.93613,.31921-5.89603,.41507-8.84354,.63638-1.15541,.08674-2.3043,.36515-3.45671,.36856-4.07062,.01207-8.08177-.55417-12.09058-1.24666-2.35514-.40681-4.79469-.31985-7.15351-.71218-1.49407-.24851-2.92602-.93046-4.34288-1.5211-.22192-.09254-.34305-.75625-.28213-1.11722,.08128-.4817,.30926-.98603,.61238-1.37216,.50557-.64408,1.31707-.95792,1.08736-2.14496-.12929-.66816,.63662-1.49653,.95977-2.26925,.29001-.69346,.4404-1.33555,1.06616-1.97815,.74616-.76628,.83019-2.1776,1.20106-3.30946-.13384-.07325-.26768-.14648-.40152-.21973,1.72759-1.51786,3.42921-3.06707,5.1984-4.53477,.53826-.44651,1.2655-.94459,1.90155-.93842,1.56295,.01507,2.59717-.92466,3.78724-1.63984,.86892-.52217,1.7744-.99384,2.69759-1.41306,1.83839-.83492,3.83877-1.40196,5.51731-2.4776,2.1164-1.35626,4.56982-2.15729,6.52335-3.56467,1.95423-1.40794,4.04788-2.55775,6.14384-3.49185,1.71413-.76397,3.06769-2.46666,5.17924-2.32244,.54353-1.36039,2.19909-1.00076,3.10646-2.09281,.79996-.9628,2.44353-1.22064,3.70906-1.80185,.56321-.25862,1.08898-.62345,1.67363-.80552,1.15653-.36019,1.97311-1.69233,3.50243-1.11086,.34838,.1325,1.1392-.35413,1.44366-.76523,.6199-.83703,1.39323-.98799,2.31036-.9259l-.04257-.07727c-.66909,.99225-.41164,1.58572,.73529,1.81749,.4791-.51142,.56633-2.08477,1.68986-.57844,.04127,.05533,.50281-.10903,.68341-.26784,.77257-.67924,1.51321-1.3948,2.43385-2.25431-.52241-.2172-.83231-.34608-1.14223-.47494l.05235,.05509ZM191.46159,98.88177c-.56641,.30387-1.09507,.7497-1.6919,.87767-1.90353,.40816-3.82905,.71906-5.75237,1.02826-2.13879,.34382-2.66637,.8078-2.86326,2.87264-.3329,3.49158-.72047,6.98325-.88127,10.48424-.12317,2.68146-1.06281,5.10369-1.87728,7.58209-.59881,1.82207-1.43462,3.5954-1.7902,5.46185-.64271,3.37387-1.95521,6.38081-3.98338,9.12838-.94814,1.28451-1.64341,2.76574-2.65584,3.99032-1.32794,1.60621-2.29835,3.62147-4.47119,4.38847-.44164-.21783-.88625-.4371-1.52647-.75285-2.10294,2.56178-4.27742,5.0243-5.93327,8.28158,.74319,0,1.10896,.06813,1.43931-.01125,1.8994-.45644,3.77955-.99711,5.68654-1.41691,3.76997-.82993,7.54539-1.63986,11.33478-2.37424,1.50979-.29259,2.94071-.53254,4.2317-1.5532,1.06126-.83899,2.41851-1.31063,3.66453-1.90312,.28192-.13407,.64861-.14078,.97263-.12609,1.06686,.04839,2.13428,.21533,3.19739,.18625,1.81238-.04959,3.63487-.41343,5.34152,.56818,1.07598,.61884,1.89492,.02033,2.53967-.77638,.32311,.21987,.5056,.33797,.68178,.46485,2.39625,1.72574,3.30431,1.76587,5.33267-.26787,2.67866-2.68576,5.42972-5.34292,7.77416-8.30926,4.53266-5.73503,8.57975-11.82254,11.61734-18.50979,1.05474-2.32206,2.1172-4.68033,1.96944-7.34089-.03542-.63776-.13668-1.12402-.70042-1.68419-2.10988-2.09656-4.02116-4.39122-6.05923-6.56249-1.85333-1.9745-4.02301-3.08868-6.89172-3.06199-1.49498,.01392-3.12753,.05595-4.60812-.54135-.44735-.18047-.89331-.64711-1.29871-.60312-2.66096,.28867-5.34511-.32211-8.01275,.39824-1.53172,.41361-3.18921,1.04965-4.7861,.08197Zm-73.61275,167.551c.67478,.27951,1.29955,.61886,1.96733,.79734,1.19488,.31934,2.41395,.55004,3.62594,.80316,3.49272,.72945,6.96924,1.55608,10.48473,2.15217,5.32495,.90286,10.68395,1.6039,16.01281,2.48549,1.08834,.18008,1.84714,.03629,2.45147-.87332,2.09822-3.15808,4.36151-6.22011,6.25775-9.49491,1.93139-3.33564,3.5338-6.86469,5.22404-10.33643,1.6872-3.46554,3.51168-6.88467,4.90261-10.46909,1.90066-4.89805,3.49071-9.91937,5.11859-14.91889,.43182-1.32621,.96029-2.71254,.67317-4.17573-.78406,0-1.44647-.10007-2.06598,.02052-1.36069,.26481-2.86943-.09468-4.0775,.78202-1.58788,1.15233-3.56896,1.05424-5.27906,1.79235-1.43186,.61806-3.27746-1.05915-4.49345,.80251-.00705,.01086-.131-.08344-.19369-.07553-.45561,.05748-.9312,.06343-1.36026,.20642-2.15078,.71676-4.24532,1.71065-6.44981,2.11403-1.17383,.21479-1.76355,.67715-2.16711,1.59049-.34539-.29928-.74335-.7084-.78781-.67302-.68395,.54422-1.25117,.4895-2.08063,.13851-.58162-.24612-1.10682,1.19564-2.08309,.66594-.54767,.83864-1.42338,.5575-2.23975,.49929-.21992,.72835-.40415,1.33853-.65762,2.17803-1.18786-1.11915-1.9467,1.46006-3.04006,.09313-2.38392,1.51129-3.57108,3.74454-4.56956,6.11834-.11263,.26779-.28289,.51139-.42761,.76555-2.52224,4.42984-5.10604,8.82608-7.54971,13.29886-2.40883,4.40906-4.6758,8.8956-7.19573,13.71275Zm-15.35307-130.43436c-1.22529,.62282-1.97564,.90007-2.60891,1.34428-2.63342,1.84725-5.21001,3.77575-7.84917,5.61453-2.26689,1.5794-4.66081,2.9838-6.86581,4.64219-1.63998,1.23344-3.61583,2.20362-4.35393,4.38111-.1089,.32134-.45322,.56326-.68996,.84082-2.00991,2.35705-3.53974,4.84832-2.31277,8.13044,.07399,.19788,.08023,.43625,.06219,.65109-.30601,3.64299,.96708,7.04976,1.4843,10.56832,.39408,2.68095,.95856,4.98798,2.97909,6.96412,.88901,.86952,1.64427,1.1457,2.65889,.87115,1.04718-.28335,2.04582-.75128,3.05813-1.15732,2.36426-.94829,4.71772-1.92378,7.0871-2.85901,3.37371-1.33163,6.75777-2.63709,10.18723-3.97314-.0908-.85959-.17053-1.61426-.29401-2.78332,.60297,.52964,.90451,.79454,1.22548,1.07649,.27999-.29664,.56242-.62074,.8707-.91804,1.12956-1.08915,1.03313-2.11982,.42273-3.5859-1.11272-2.67265-1.87414-5.50522-2.60572-8.317-.34419-1.32282-.25462-2.75481-.40442-4.13267-.44199-4.06524-.89623-8.12919-1.36492-12.19142-.18058-1.56517-.41311-3.12434-.68623-5.16671Zm58.90764-70.66194c-2.78598,1.34575-5.1943,2.5184-7.61077,3.67397-2.92456,1.39855-5.86066,2.77317-8.78219,4.17805-1.05276,.50624-2.44576,.52745-2.84355,2.02324-.05594,.2103-.68473,.21104-.92669,.43834-1.51949,1.42749-3.79861,1.66971-5.13747,3.43874-.63442,.83828-1.58181,1.54876-2.53559,2.01201-1.67851,.81531-3.5426,1.28448-4.39391,3.22382-.09844,.22416-.4514,.34364-.69653,.49519-1.69482,1.04776-3.11869,2.51338-5.0947,3.14406-.57459,.18338-1.02331,.79276-1.49909,1.23951-.20338,.19095-.32445,.66811-.48953,.67131-2.18623,.04241-3.21166,1.7737-4.48002,3.09404-.46103,.4799-.79307,1.22228-.88714,1.88693-.18385,1.29906-.26806,2.63369-.19619,3.94276,.12622,2.29863,.07358,4.63435,.86609,7.11603,2.27515-1.6359,4.76773-2.4166,7.06728-3.66252,4.03795-2.18783,8.37876-3.82176,12.61349-5.63925,2.86701-1.2305,5.76782-2.38253,8.65674-3.56172,3.43037-1.40019,6.85897-2.80494,10.29948-4.17989,1.14766-.45866,2.30634-.92494,3.50119-1.2221,1.8533-.4609,2.59823-1.616,2.66814-3.45378,.16951-4.45581,.49152-8.90732,.5784-13.36396,.03328-1.70667-.40621-3.42257-.67746-5.49478Zm-35.31823,91.54663c1.201-1.01072,2.46552-1.99322,3.63603-3.07725,2.30765-2.13716,4.59138-4.30189,6.83371-6.5074,3.49495-3.43758,6.7996-7.0554,9.48217-11.1733,2.8841-4.4273,5.10398-9.17989,6.65943-14.2465,.87966-2.86529,1.96161-5.66819,2.85513-8.5296,.30614-.98047,.74364-2.07303-.00748-3.07489-.68497,.32565-1.43411,.97631-1.83102,.80596-.7102-.30483-1.10599-.06091-1.57771,.25612-.64724,.43499-1.22406,1.00206-1.91659,1.33398-.59213,.28379-1.30266,.32715-1.96537,.45292-.21316,.04045-.57355,.09191-.64048-.01009-.47851-.7294-.97518-.24007-1.52773-.1398-1.83992,.33397-3.02719,2.40121-5.16836,1.92605-.10525-.02338-.25618,.33841-.4329,.42888-1.12859,.57765-2.27113,1.12799-3.40723,1.69106-.24733,.1226-.5311,.21447-.72345,.39853-1.52201,1.45652-3.30096,2.41112-5.29362,3.1106-1.2369,.43417-2.69367,.45994-3.62629,1.72858-.31292,.42565-1.17241,.6115-1.78455,.61671-.90744,.00775-1.54803,.20287-1.93643,1.08197-.13301,.301-.43705,.66324-.72761,.7348-1.51679,.37354-1.59112,1.53489-1.56379,2.73611,.02816,1.23816,.11252,2.47586,.20619,3.7112,.02759,.36455,.17012,.72037,.35998,1.48058,.55491-1.34679,.94082-2.28338,1.4687-3.56455,.0708,.90603,.10834,1.38667,.15334,1.96226,2.01678-.07978,.80149-2.12456,1.79055-2.76032,.82541,1.00037,1.05879,2.05379,.85906,3.28985-.28929,1.79057-.45824,3.60086-.66727,5.40403-.19141,1.6513-.37618,3.30351-.54274,4.95743-.02738,.2716-.04639,.71389,.10099,.80666,1.29601,.81568,.8832,2.03706,.47744,2.94997-1.09239,2.45767-1.45302,4.96376-1.3875,7.63415,.03872,1.5783,.22767,2.85535,1.84539,3.58527Zm-55.26135-30.19822c-.41471,.18779-.88303,.59982-1.1732,.49898-1.94696-.67663-2.8985,1.05766-3.97159,1.89056-.98704,.76612-2.59557,.95591-2.97433,2.47074h-2.74985c-.28443,.32089-.58401,.96135-1.05352,1.13083-1.31336,.47407-2.69716,.75276-4.0527,1.11024-.23755,.06266-.5531,.05846-.69701,.21216-1.53935,1.64415-3.62939,2.37143-5.54975,3.37884-.53828,.28238-1.0975,.52483-1.73295,.82631-.36793-.16072-.8692-.37967-1.53511-.67054-.12817,.58091-.33675,.99646-.27577,1.36769,.10531,.64097,.36763,1.25802,.5822,1.87886,1.72563,4.99281,4.81262,9.16957,8.03196,13.251,1.01272,1.2839,2.24402,2.39534,3.44721,3.66142,.73406-1.0292,1.36712-1.79164,1.85627-2.63735,.5034-.87035,.86664-1.82182,1.29084-2.73795,.20687-.44675,.35819-.93051,.62868-1.33453,1.22923-1.83597,2.63386-3.57028,3.70627-5.49143,1.30795-2.34305,2.90629-4.46749,4.51425-6.58183,1.14152-1.501,3.24982-2.1507,3.82775-4.19561,1.7923-.76647,2.81927-2.43771,4.26551-3.61384,.71955-.58515,1.41911-1.19567,2.11337-1.81089,.46982-.41633,.84375-1.02097,1.38488-1.26076,1.29772-.57505,2.47126-1.25252,3.32128-2.42298,.16605-.22864,.48001-.57525,.65384-.53737,1.44626,.3152,1.81946-1.04925,2.67238-1.64219,1.83595-1.27633,3.61216-2.64421,5.49413-3.84744,2.56681-1.6411,5.1984-3.1823,7.82385-4.72959,1.41856-.83602,2.26957-1.91119,2.34753-3.66371,.07758-1.74367,.46623-3.47161,.66062-5.21293,.08139-.72875,.01354-1.47419,.01354-2.41208-1.61523,1.42452-3.00198,2.58756-4.31673,3.82701-.96458,.90933-2.39735,1.31185-2.87045,2.78761-.13011,.40582-.71149,.78385-1.16498,.93181-.35827,.11688-.8379-.13844-1.33575-.2437-.16615,.5123-.22215,1.06521-.5034,1.45591-.35245,.48961-.90148,1.21234-1.34527,1.1981-2.19634-.07046-3.63793,1.66821-5.58238,2.14642-.30691,.07548-.68438,.38605-.78789,.67456-.40195,1.1206-1.34449,1.07542-2.17856,1.00178-1.04283,2.74877-1.21778,2.57883-4.01743,2.61309-.17929,.41897-.37218,.86973-.55276,1.29171-.8368-.24509-1.6338-.4785-2.47239-.72411-.47659,1.31342-.87152,2.40179-1.32419,3.64932-.7197-.14367-1.37042-.30835-2.03142-.38952-.29094-.03574-.61416,.06465-.90262,.16254-.5363,.18195-1.05786,.40735-1.70199,.6604,.05882,.56279,.13308,1.27331,.21764,2.08246Zm67.96014,61.70375c-1.04179,.2506-1.53564,.30169-1.97403,.48526-4.50694,1.88747-9.0057,3.79454-13.50511,5.70005-2.08325,.88223-4.17662,1.74241-6.24123,2.66662-3.78789,1.69561-7.61444,3.32124-11.30072,5.21753-1.10188,.56683-2.18443,1.29722-3.35765,1.46505-1.12387,.16077-1.82777,.84599-2.71582,1.22265-1.01771,.43162-.69728,1.62059-1.61107,1.86088-1.14785-1.10603-1.98087-1.0986-2.88501,.23826-.72648,1.07419-1.61826,2.24358-1.76832,3.45368-.24411,1.96825-1.71633,2.75972-2.8505,3.91727-.28938,.29534-.63171,.53877-.94777,.80442,1.42025,1.76741,1.48688,1.77543,3.01104,.45093,.98228,1.02997,2.21589,.68973,3.39621,.61565,1.52781-.09594,2.69504-1.188,4.2428-1.41261,2.59998-.37733,5.14707-1.1302,7.70932-1.75413,2.52377-.61457,5.04796-1.23108,7.55491-1.90989,2.44796-.66283,4.95166-1.22067,7.27637-2.19383,1.10347-.46193,2.68737-.95747,2.73915-2.7675,.00901-.31443,.57526-.61039,.87958-.91935,.51104-.5189,1.0929-.98745,1.51544-1.57105,3.12416-4.31513,6.22418-8.64785,9.3102-12.99033,.47728-.6716,.84418-1.42165,1.5222-2.57958Zm63.14095,4.68674c.7312,.12633,1.47283,.39938,2.19138,.34818,1.45259-.10345,2.89128-.39267,4.33813-.58746,2.06089-.2775,4.12395-.53896,6.28556-.82022-.48398-.85959-.6829-1.4585-1.73282-1.14273-1.22063,.36717-2.55393,.35773-3.83755,.51793-.75719,.09452-1.5178,.17351-2.26799,.30888-.90063,.16251-1.93037,.74933-2.6534,.47963-.99735-.37199-1.48691,.27911-2.32331,.89577Zm-49.64566-40.52223c-.44502,.68082-.80575,1.23267-1.44081,2.20419,2.30567-.06036,3.45102-1.53645,5.19223-1.79261-1.19118-1.2117-1.80734-.58096-2.33774,.39347-.41737-.23767-.77376-.44063-1.41368-.80505Zm73.10574,37.31037c1.05112,.13441,1.5827-.09044,1.87553-1.07511-.99309-.31422-1.54685-.11383-1.87553,1.07511ZM44.35961,313.46037c.2322-.05195,.46439-.10394,.69658-.15589-.13337-.5127-.26674-1.02541-.40011-1.53808-.18475,.04039-.36952,.08079-.55427,.12118l.2578,1.57279Zm173.75025-123.22921c-.1369-.04646-.27379-.09291-.41069-.13939l-.5016,1.38764c.14451,.04919,.28903,.09836,.43354,.14755,.15958-.46525,.31917-.93054,.47875-1.39579Zm-3.73964,2.9225c1.13854,.15769,1.8333,.25121,1.78825-1.05821-.58548,.34646-1.03991,.61538-1.78825,1.05821Zm-91.34931-59.39037c-.18096-.05503-.36194-.11005-.5429-.16508-.07071,.39187-.1414,.78373-.21212,1.1756,.11236,.03188,.22469,.06376,.33703,.09565,.13934-.36872,.27868-.73744,.41799-1.10617Z"/>
      <path class="cls-1" d="M34.59481,306.2898c-.06877,.81563-.11965,1.41921-.16811,1.99392q-.60188-.67259-.43429-3.2809c.94195,.55229,1.79502,1.05247,2.64809,1.55267l-.22835,.48883c-.4892-.2031-.97838-.40622-1.81733-.75453Z"/>
      <path class="cls-1" d="M43.26343,316.80996c.0561-.44683,.1122-.89366,.21353-1.70076,.9695,.67144,1.67717,1.16155,2.38486,1.65167-.06099,.18172-.12197,.36344-.18297,.54516-.68569-.80402-1.38329-1.12314-2.11508-.04973-.10011-.14878-.20022-.29756-.30033-.44635Z"/>
      <path class="cls-1" d="M57.23502,228.09229c1.25268-1.13186,2.70478-1.76958,4.40993-1.7802,.00003-.00003-.05232-.05512-.05232-.05512-1.28893,1.03125-2.77474,1.56946-4.40018,1.75805l.04257,.07727Z"/>
      <path class="cls-1" d="M57.24636,327.69736c.44781,.98681,.72482,1.59722,1.05111,2.31627q-1.49463-.39592-1.05111-2.31627Z"/>
      <path class="cls-1" d="M52.70683,327.69323c.29963,.15699,.59926,.31395,.8989,.47091-.06307,.1171-.12613,.23424-.1892,.35134l-.88775-.49173c.05936-.11016,.1187-.22034,.17806-.33053Z"/>
      <path class="cls-1" d="M30.39152,306.40213c-.16716-.27187-.33433-.54374-.50149-.81563l.27236-.22394c.21256,.24325,.42513,.48652,.63771,.7298-.13619,.10326-.27237,.2065-.40857,.30977Z"/>
    </g>
    <g>
      <path class="cls-1" d="M514.93136,132.3404c.79647-1.59741,.81262-2.32359-.21442-3.33816-2.7088-2.67598-4.75912-5.84216-6.84012-8.98875-.72125-1.09058-1.48123-2.16593-2.08698-3.31992-.76539-1.45815-1.44384-2.16443-3.39964-1.34968-3.16695-5.36623-5.05209-11.24298-6.9158-17.14962-1.42438-4.51436-3.15508-8.93168-4.72581-13.40049-.28951-.82376-.44963-1.69204-.69647-2.53184-1.77444-6.0364-3.55721-12.07044-5.33074-18.10711-.08163-.27772-.13888-.57378-.14164-.8619-.03961-4.11863-1.49536-7.9943-2.08087-12.02195-.19227-1.3227-.78805-2.61611-1.36203-3.84697-.85681-1.83747,.71742-3.9982,2.63985-3.50097,1.61185,.41687,2.21822-.29451,2.6686-1.24545,2.41183,1.53481,4.77599,3.05948,7.1627,4.54794,.91007,.56755,2.01922,.89661,2.7742,1.61232,1.02967,.97611,2.02581,2.11079,2.64444,3.37003,1.05621,2.15011,1.81085,4.4487,2.68426,6.68802,.13156,.33731,.34537,.70483,.30962,1.03549-.3861,3.57344,1.43223,6.35349,3.24802,9.12925,.66547,1.01731,1.41376,1.98038,2.23195,3.11795,1.51652-2.82978,2.48089-5.6353,4.8972-7.73375-.17779-1.41534-.02092-2.5298,2.37636-3.51154-.4067-1.25076,.168-2.13267,1.10985-2.99538,.73664-.67473,1.11063-1.74917,1.85422-2.41205,1.21497-1.08313,2.36327-2.49418,4.25465-1.89766,1.61086-2.39805,3.33137-4.473,5.67184-5.99826,.90411-.58917,1.82523-1.32565,2.38724-2.21679,.53826-.85348,.62099-1.99443,.8832-2.93481,.0605,.23378,.16693,.64518,.2731,1.05561q1.57283-.38667,1.61375-2.63102c.52488,.081,1.09263,.32573,1.56519,.2032,.63938-.16587,1.32073-.5035,1.76974-.97267,.41874-.43752,.55703-1.14348,.86118-1.82653,.28436,.13583,.53209,.25417,.93466,.44643,.53171-1.57097,2.10229-1.8836,3.29221-2.72168,1.42027-1.00025,3.24394-1.69794,3.61323-3.47533,4.44778-2.42342,8.19818-5.6374,12.46611-8.42276,.02349,.53429,.03784,.86024,.07369,1.67573,.4602-.55532,.88421-.83159,.89998-1.12953,.05076-.95776-.00735-.96082,.81511-1.87427,.16988,.45066,.30364,.80552,.52048,1.38069,1.0442-.6632,2.0769-1.31911,3.10962-1.97501-.09466-.18867-.18932-.37733-.28398-.56594-.74903,.32219-1.49807,.64443-2.37469,1.02149,1.18357-1.70513,12.04171-8.20233,20.20683-12.04957,7.04001-3.31713,14.33759-5.96881,22.18732-7.9994-.50074-.41483-.72385-.65805-.99778-.80884-.23588-.12982-.52973-.15417-.84064-.23652,.12145-.16367,.17313-.31398,.26417-.3437,1.01733-.33211,2.0238-.72441,3.06588-.94827,2.54533-.54685,5.08526-.17971,7.62917,.1377,3.68834,.4601,7.39031,.81212,11.07748,1.28091,1.57294,.20004,3.11978,.59786,4.68449,.87155,2.96951,.51938,5.64789,1.77133,8.28378,3.16902,1.02728,.5447,2.11165,1.0584,3.23198,1.33665,3.53753,.87847,6.5943,2.70489,9.67887,4.54301,3.73492,2.22569,7.14041,4.80919,10.07162,8.04151,1.8861,2.07989,3.27435,4.39795,4.11258,7.0661,.32552,1.03619,.62989,2.08681,1.06056,3.08024,.5917,1.36481,.66065,2.72217,.69178,4.21234,.03998,1.91364,1.01014,3.71367,2.62304,5.01089-.53504,.32535-1.32255,.53987-1.38581,.88663-.35223,1.93081-1.45047,3.60182-1.58377,5.65247-.13784,2.12023-.43579,4.34034-1.79165,6.19438-.3256,.4453-.46247,1.03946-.63887,1.58051-.24397,.74839-.31485,1.58196-.68484,2.25536-1.2535,2.28143-2.32787,4.74616-3.99258,6.69472-1.99704,2.33754-3.16752,5.06716-4.66379,7.64733-.14296,.24655-.27664,.55575-.50157,.68852-2.13117,1.25833-2.96353,3.73733-4.88985,5.19339-.21104,.15954-.16725,.67216-.21863,1.02439-.25492,1.74708-1.22443,2.89367-2.85613,3.55032-.42115,.16952-.89427,.46869-1.10926,.84291-.61637,1.07304-1.1427,2.20225-1.62917,3.34154-.09061,.21216,.16878,.57388,.21936,.72511-.4503,.37599-1.05941,.69555-1.38217,1.19889-.46912,.7316-.73176,1.5957-1.19354,2.65897,.20828,.17515,.6097,.51262,1.04726,.88057-.01526,.16345,.04634,.44728-.06801,.58558-1.42132,1.7179-2.88321,3.40221-4.30493,5.11979-2.01686,2.43662-4.52976,4.34383-6.81237,6.4971-.98499,.92922-1.94319,2.02222-2.50773,3.23044-.86113,1.8431-2.45335,2.63516-4.02178,3.57918-.42407,.25524-.64306,.82853-1.03355,1.16633-1.81836,1.57316-3.77724,3.01276-4.50777,5.49283-.07999,.27144-.49165,.48784-.79376,.64421-1.90948,.98898-1.91361,.98104-1.80442,2.98969-1.32113,.62919-3.05607,.93367-3.82409,1.96112-.84919,1.13607-2.63897,1.11934-2.78402,3.19128-.44869-.84312-.67776-1.27351-.90685-1.70395-.14819-.00542-.2964-.01078-.44459-.0162-.22963,.75311-.45923,1.50622-.69033,2.26426-.42509,.12504-1.26316,.11158-1.5986,.51557-1.39887,1.68485-3.48127,2.22-5.20972,3.33387-.58242,.37529-1.18928,.6529-.80224,1.50128,.43686,.95749-.14001,1.64971-.53488,2.54412-.4543-.27192-.78223-.46826-1.27667-.76421-.03915,.37953-.14733,.65478-.07656,.87161,.35768,1.09552,.20844,1.74424-1.15774,1.51244-.19029-.03224-.5747,.05-.57937,.10423-.1178,1.36588-1.20022,1.17759-2.2829,1.03254,.1934,.78964,.30874,1.26058,.4455,1.81912,.52852,.0361,1.02508,.08175,1.52271,.10214,3.16537,.12939,6.3305,.26999,9.49698,.36483,.64432,.01937,1.29271-.18786,1.94153-.20524,.85587-.02301,1.71407,.06056,2.57118,.05879,1.83397-.00381,3.67343,.04817,5.50011-.07666,1.53832-.10514,3.02209-.28769,4.40021,.675,.36138,.25245,.91835,.32439,1.38163,.3135,1.6717-.03921,3.34574-.26248,5.01149-.20433,2.24978,.07853,4.49651,.31698,6.73784,.55087,4.35543,.45447,8.70895,.93083,13.05708,1.44962,1.15267,.13744,2.27327,.53944,3.42568,.68439,2.21559,.27868,4.46398,.34,6.66037,.71593,2.284,.39096,4.54202,.97798,6.77678,1.60299,3.77279,1.05512,7.50643,2.25042,11.28007,3.30227,2.01771,.56235,4.15554,.75214,6.11273,1.45981,2.94025,1.06312,5.84781,2.28148,8.62475,3.71421,2.98369,1.53942,5.79914,3.40479,8.69117,5.12258,.50275,.29869,.99022,.70526,1.53776,.83068,1.5613,.35764,2.55039,1.2645,3.19849,2.70602,.22365,.49739,.77113,.85594,1.18995,1.25774,2.95334,2.83294,5.99168,5.58322,8.8355,8.52189,1.46192,1.51072,2.62382,3.32378,3.83683,5.05928,.72254,1.03361,.91916,2.18358-.11874,3.19139-1.90262,1.84745-1.10065,3.63395,.08233,5.42234,.20085,.30363,.4163,.59754,.69165,.99123-.25068,.62458-.51316,1.27861-.81307,2.02587,.89599,1.1858,1.7857,2.44928,1.37809,4.11927-2.05906,.55758-4.09737,1.20281-6.17891,1.64419-1.72257,.36532-3.19951,1.80228-5.24833,.98936-.60836-.2414-1.80324,.28689-2.39051,.82944-2.08073,1.92223-4.49334,1.37554-6.8003,1.01232-2.78544-.43859-5.10317-2.09759-7.38784-3.62285-2.53709-1.69392-4.73976-3.92905-7.37253-5.42888-3.01686-1.71849-6.0289-3.47302-9.47847-4.46061-4.80146-1.37468-9.5981-1.21016-14.4618-1.04912-1.78452,.05906-3.56574,.41392-5.40931-.15181-1.02178-.3135-2.28837,.17847-3.44587,.29477-.27243,.02741-.54995,.00413-.88266-.12022,1.07576-.41864,1.16066-2.05607,2.63752-1.97963,.1834,.00955,.45194-.49412,.57988-.80209,.20673-.49766,.32949-1.03029,.52386-1.66624-1.01237-.85948-2.27925-.61449-3.47966-.5601-2.74355,.12435-5.48461,.30486-8.22669,.46263-.01689-.15358-.03379-.30711-.05068-.46064,4.00102-.57839,8.00202-1.15683,12.00304-1.73528,.02649-.17939,.05299-.35877,.07948-.5381-.85225-.28995-1.69613-.608-2.55844-.86426-2.15086-.63922-4.38814-1.06183-6.44828-1.91536-3.38492-1.40242-6.91046-2.27874-10.42509-3.20764-1.61721-.42738-3.28355-.72157-4.94638-.91281-3.62699-.4174-7.26546-.73621-10.90103-1.07578-.33982-.0317-.69261,.07553-1.13039,.1295,.25532,2.85789,1.34133,5.31001,2.68507,7.65296,.76217,1.32892,1.56819,2.66037,2.54313,3.83383,2.20216,2.6505,3.48559,5.74055,4.50241,8.95769,.96432,3.05111,2.46099,5.9547,2.72929,9.20076,.08064,.97589-.1151,1.97614-.20211,2.96356-.02448,.27793-.19713,.56273-.15856,.82317,.43172,2.91684,.19182,5.79688-.33748,8.67934-.17012,.92649-.13135,1.89471-.15208,2.84458-.03162,1.44721,.2513,2.93991-.67596,4.24292,.2731,3.37029-1.20829,6.52129-1.19073,9.88348,.01201,2.29725,.00386,4.75098-.77875,6.84133-.5271,1.40799-.16661,3.09472-1.33022,4.2728-.13234,.13395-.16098,.40206-.17873,.61294-.52123,6.17824-.74303,12.35518-.27146,18.55456,.49688,6.53272-.20214,12.9708-1.63757,19.36528-.56344,2.51011-.99022,5.04828,.05712,7.72115,.52635,1.34335-.2134,3.14563-.21389,4.74047-.00113,3.71109-1.44819,7.10284-2.19921,10.64721-.57988,2.73649-.93037,5.52356-1.56288,8.24632-.45856,1.97389-1.21019,3.87986-1.8348,5.81491-.1118,.34627-.37956,.70424-.33874,1.02691,.1642,1.29872-.54453,2.17923-1.25366,3.12058-.50431,.66953-1.13452,1.3852-.21901,2.32541,.15489,.15911-.44612,1.50579-.6578,1.49527-1.10521-.05482-.91508,.84323-1.3148,1.34727-1.2583,1.58647-1.42271,3.99439-3.7139,4.84593-.47017,.17488-.67692,1.04761-1.01438,1.59291-.82734,1.33697-1.37396,2.95841-3.43933,3.23828,.18533,.55092,.35231,1.04724,.53496,1.59017-.86097,1.00293-2.50695,1.37586-2.45925,3.10449,.00654,.23695-.49251,.49369-.76587,.7316-1.35779,1.1821-2.71826,2.36103-4.26023,3.6994-.25277,0-.87153-.10579-1.43642,.02366-.97013,.22214-1.97516,.46445-2.83899,.93217-.9756,.52823-1.81101,1.31514-2.70856,1.98799-.9711,.728-1.85389,1.66184-2.93751,2.13026-1.46125,.63155-2.66482,1.3565-3.07725,3.20722-.45617-.39579-.74241-.64416-1.17761-1.02176-.61002,1.82277-1.69876,2.5489-3.61366,1.08162-1.50306,1.39399-2.96197,2.74706-4.42086,4.10007-.09541-.0449-.1908-.08985-.28621-.13475,.31828-.67704,.53928-1.42484,.97121-2.01927,2.20454-3.03378,3.28816-6.51351,4.03664-10.10841,.78786-3.78384,1.73335-7.56703,2.09972-11.39936,.63903-6.68464,1.95456-13.26633,2.521-19.97269,.79344-9.39452,1.80222-18.7716,2.47603-28.18232,.50608-7.06851,1.42226-14.10677,2.04756-21.16809,.21885-2.47143,.12035-4.97141,.15685-7.4585,.1041-7.09313,.08678-14.19067,.34821-21.27796,.15312-4.1506,.74474-8.28511,1.14463-12.42637,.15438-1.59891,.37961-3.19295,.4762-4.79502,.28114-4.6629,.68368-9.32714,.72517-13.99369,.0616-6.93118-.2669-13.86607-.19514-20.79698,.04594-4.44097-.83452-8.71254-1.67556-13.00937-.14349-.73315-.58283-1.40832-.98067-2.33105-1.25278,1.35693-2.45984,2.28969-2.85015,3.89434-.13258,.54513-.57687,1.01006-.85254,1.52558-.71372,1.33461-1.34283,2.72072-2.1419,4.00125-.55201,.88459-1.33068,1.62767-2.18609,2.64599-.14631,.4026-.28889,1.20468-.69339,1.83978-2.27156,3.56615-4.74837,7.00988-6.86249,10.6647-1.15005,1.9881-2.77182,3.7333-3.38781,6.02455-.01888,.07011-.03556,.15267-.08225,.20186-2.14759,2.2648-2.42336,5.52973-4.26892,7.96625-.99708,1.31637-1.8602,2.7344-2.77983,4.10924-.1218,.18207-.22582,.37663-.32963,.57002-2.07357,3.86511-4.44647,7.60822-6.09353,11.64746-.84211,2.06519-2.8184,3.74215-2.51226,6.26755,.01574,.12971-.04567,.35464-.13709,.3989-2.27156,1.09911-1.43371,3.43923-2.08229,5.18174-.22574,.60645-.40377,1.23902-.70082,1.80898-1.07155,2.05623-2.18285,4.09175-3.28452,6.13216-.1037,.19205-.22885,.37771-.37133,.54282-2.54699,2.95208-3.07822,6.78184-4.33706,10.27278-.43324,1.20147-.20005,2.78343,.12797,4.09143,.76298,3.04274,1.744,6.03243,2.68362,9.02883,.83013,2.64733,1.72705,5.27358,2.58434,7.91244,.08839,.27198,.17779,.57474,.14583,.84908-.10997,.94435-.89714,1.71661-1.07147,2.45427-.22193,.93893-.32118,1.715-1.12253,2.06857,0,1.3161,.28138,2.55088-.07214,3.56411-.42879,1.22882-.2477,2.25793,.1012,3.37276,.12091,.38634,.20812,.78326,.35253,1.33493-1.60756-.27707-.32786-1.60471-1.01363-2.07163-.97016,.54481-1.9474,1.09359-3.15835,1.77358q-.7374,3.20754-3.82425,3.41648c-.45969,1.61077-.93474,3.2754-1.40003,4.9058-.66311,.03251-1.28394-.06947-1.80509,.11303-1.65425,.57973-2.94199-.0979-4.25232-.97493-1.26195-.84457-2.59325-1.58556-3.82591-2.33083-.50731,.30679-.86526,.5233-1.32355,.80048-.99078-1.64253-2.80906-2.32466-3.80446-4.0255-.96284-1.64521-1.71252-3.19112-1.50949-4.61505-.89735-1.2646-1.80249-2.097-2.14002-3.11725-.53895-1.62901-1.61343-2.87001-2.4719-4.26835-1.08448-1.7665-1.75725-3.64329-2.05081-5.72419-.37414-2.65195-1.07552-5.25636-1.50517-7.90252-.18412-1.13398-.17436-2.3406-.01325-3.48037,.27838-1.9697,.54815-3.86843-.37012-5.78503-.32434-.67688-.2262-1.58041-.23368-2.38126-.05551-5.92799,.23537-11.80431,1.15948-17.70022,.96289-6.14299,1.86768-12.28459,3.31924-18.33156,1.16053-4.83451,2.42449-9.64407,3.60406-14.47418,.20161-.82553,.21003-1.69832,.33598-2.7955-1.68546,.61288-3.058,1.13956-3.92272,2.51762-.18098,.28839-.45038,.57324-.74759,.72816-1.67725,.8744-3.19999,1.91836-4.29287,3.50961-.15143,.22048-.43373,.37433-.68532,.49862-1.12572,.55591-2.07722,1.25865-2.82888,2.32477-.43265,.61363-1.26192,.95798-1.93474,1.38906-.81347,.52126-1.65038,1.00604-2.68791,1.63421-.16535,0-1.11593-.0457-1.12138,.00665-.1421,1.37087-1.53057,1.19701-2.14826,1.33134-2.35305,.51182-3.87217,2.23331-5.73086,3.4418-1.81348,1.17915-3.55458,2.47068-5.31041,3.73647-.34121,.24596-.56156,.67189-.91599,.88368-.30576,.18266-.72302,.17874-1.18885,.2782,.37554-1.1085,.82189-1.99202,.94707-2.91899,.12201-.90358-.60919-1.2417-1.38887-.67254-.78234,.57109-1.46645,1.1608-2.52433,.55554-.1476-.08444-.86638,.37336-.90103,.63568-.09552,.72334,.03151,1.47618,.06457,2.10472-3.0377,.63493-6.1027,1.3565-9.20044,1.88655-1.40566,.24049-2.24994,1.14262-2.70333,2.18546-1.01393,2.33191-1.98291,4.61226-4.33888,5.93255-.11628,.06512-.2383,.21694-.2578,.3437-.51892,3.37539-3.43671,5.12966-5.17123,7.6814-.15977,.23507-.26952,.5042-.51664,.97498,.59154,.03439,1.02929,.05987,1.52892,.08894-.06372,.20868-.06963,.44364-.18794,.58338-2.02278,2.38893-4.02244,4.79932-6.11136,7.12945-.83654,.93314-1.27773,1.94862-1.25889,3.1554,.01975,1.26482-.36718,2.18487-1.48194,2.94645-.94663,.64684-1.6342,1.66329-2.47578,2.47535-2.9926,2.8876-6.04118,5.71845-8.98629,8.65337-1.22168,1.2175-2.64896,2.29784-3.30141,4.01923-.13609,.35904-.54117,.66336-.89011,.887-2.79626,1.79214-5.81834,2.97478-9.10417,3.57521-6.23256,1.13892-12.44337,2.39655-18.66943,3.57178-.54618,.1031-1.3014,.1781-1.67823-.10643-1.07297-.81035-2.02123-.51745-3.06945-.06051-.66676,.29075-1.38231,.47979-2.08829,.6683-2.21691,.59202-4.06434-.08851-5.51455-1.78715-2.12372-2.48742-3.37745-5.3681-3.74469-8.63926-.08768-.781-.15932-1.76977-.64519-2.25702-1.00482-1.00765-.84012-2.32107-1.31735-3.44346-.44813-1.05389-.25891-1.84342,.83844-2.33207,1.2118-.53955,1.64326-1.37661,.97943-2.62491-.06638-.12483-.14479-.37401-.09862-.4092,1.58136-1.2049,.63472-3.8459,2.70966-4.76713,.26149-.11609,.57305-.26591,.71089-.49202,2.03269-3.33323,5.2095-3.27191,8.50142-2.91936,.71769,.07687,1.44398,.07333,2.22392,.10949,.96474-1.58293,1.92343-3.07611,2.80232-4.61489,1.73089-3.0303,3.53243-6.02889,5.08173-9.1513,1.02543-2.06658,1.66308-4.32575,2.47214-6.49951,.02501-.06727-.00046-.16603,.0403-.21297,1.53696-1.77133,1.64428-4.15328,2.62411-6.16965,.72613-1.49425,1.16849-3.12466,1.77487-4.67974,.33783-.86646,.81329-1.68153,1.12213-2.55662,1.42486-4.0373,2.59203-8.1209,2.77642-12.45475,.09139-2.14834,.56463-4.28036,.89733-6.64918-2.31036-.21924-4.31164-.40802-6.31264-.59979-.58095-.05563-1.16198-.11238-1.74141-.18175-2.57599-.30829-5.15118-.62324-7.72753-.92842-.13766-.01631-.33668,.10423-.41729,.04286-2.32854-1.77138-5.59827-1.52204-7.78217-3.67735-.57375-.56616-1.62248-.61519-2.35748-1.05979-3.00854-1.8202-6.01264-3.65241-8.94439-5.59201-.81912-.54197-1.36702-1.48454-2.07139-2.21228-.72719-.75123-1.49337-1.4647-2.38018-2.01519-.19178-.50227-.2676-1.10453-.59772-1.4875-.88325-1.02465-2.16928-1.77165-2.08134-3.38751-1.60969-.51783-1.19105-2.35154-2.13974-3.29921-1.24005-1.23875-1.25693-2.83557-1.22057-4.41732,.00859-.37288,.25724-.82156,.53513-1.09155,.76884-.74683,1.65265-1.37688,2.40551-2.13782,.31814-.32154,.5454-.8399,.60152-1.29502,.2148-1.7422,1.36648-2.69121,2.80365-3.33054,.67014-.2981,1.11437-.56804,1.58762-1.22968,.59264-.82848,1.75829-1.30913,2.75594-1.76698,.89105-.40898,1.93654-.33061,2.73709-1.16874,.31465-.32943,1.26235-.05397,2.21782-.05397,.69304-.73621,1.71958-1.36127,3.20806-1.0018,.9883,.23872,1.98897-.02768,2.89949-.65118,.57158-.39139,1.31181-.53993,1.98128-.78395,1.11462-.40635,2.213-.7198,3.30309-1.33697,1.71249-.96967,3.70395-1.50514,5.46664-2.49166,.609-.3408,1.37305-.44578,1.9134-.85857,.84868-.64845,1.70215-1.16853,2.78812-1.22287,.38837-1.4073,1.75131-1.13677,2.69261-1.40714,.89672-.25754,1.1762-1.58674,2.56085-1.14256,.53702,.17214,1.51288-.97267,2.26858-1.54436,1.93611-1.4647,3.88658-2.91239,5.7787-4.43239,.87416-.7022,1.94685-1.4228,2.34714-2.37895,.45076-1.07674,.41686-2.44563,.29396-3.65702-.39798-3.92234-1.09472-7.81905-1.3793-11.74713-.46465-6.41368-.68013-12.84512-1.03042-19.26749-.18641-3.41798-.47364-6.83065-.64625-10.24917-.22849-4.52514-.46239-9.05216-.55167-13.58122-.05318-2.69797-.89325-4.9095-3.14066-6.4603-.66924-.46182-1.4613-.74554-2.35072-1.18714-.11653-1.13194-.21169-2.50566-.41569-3.86296-.11528-.76706-.42954-1.5023-.61566-2.26131-.11314-.46123-.37544-1.21413-.18861-1.3661,1.01484-.82569-.22654-1.24111-.25509-2.03354,.91037-.15551,1.58828-.62211,1.80945-1.6892,.21877-1.0555,.71837-2.04942,1.01578-3.0929,.2801-.9827,.94415-1.29609,1.87061-1.57429,2.66208-.79919,4.85905,.49755,7.05748,1.51147,2.13158,.98319,4.11657,2.2899,6.14507,3.48987,4.58007,2.70935,8.35839,6.33198,11.77022,10.3739,1.31934,1.56303,2.60263,3.17219,4.06005,4.59922,2.5047,2.4525,2.06081,5.44637,1.8078,8.43971-.07278,.86093-.15844,1.72085-.22818,2.58199-.02255,.27857,.09219,.62479-.03435,.82987-1.60266,2.59739-.96166,5.31838-.49262,8.0341,.09953,.5763,.21484,1.15249,.26861,1.73377,.19819,2.14227,.4404,4.28423,.52091,6.43176,.02775,.74002-.36889,1.49597-.62105,2.42707,.19037,.04565,.47052,.11281,.8613,.20653,0,1.23875-.01718,2.63172,.01078,4.02389,.00807,.40212,.00666,.98405,.24939,1.16944,.86062,.6573,.76046,1.46523,.67941,2.36677-.064,.71164,.01858,1.44635,.11515,2.16014,.12255,.90589,.7214,1.40966,1.5963,1.5693,1.00627,.18362,2.01538,.35882,3.02923,.49224,1.88566,.2481,3.7107,.57571,5.44071,1.5118,1.12173,.60704,2.46391,.87102,3.74056,1.11424,3.01147,.57388,5.94982,1.28424,8.69761,2.74116,.92267,.48923,2.11157,.47625,3.31605,.72071,.13443,1.80314,1.35991,2.75816,2.8912,3.40543,1.31708,.55672,2.3036,1.43863,3.20916,2.55362,.80304,.98871,1.9695,1.67257,2.89142,2.57674,1.09609,1.07503,1.13479,1.57134,.35883,2.87789-.32756,.55157-.69586,.94574-.56352,1.75062,.30723,1.86907,.15824,1.94964-1.77374,2.55512-.20528,.06437-.39844,.16764-.69637,.29542,.05707,.46933,.11469,.94354,.19158,1.57628-.6795-.0479-1.38673-.09779-2.18794-.15428-.25846-.61304-.50669-1.20189-.81452-1.93199-.46607,.48816-1.02109,.86839-1.29426,1.39501-.69486,1.33944,.47693,2.058,1.26482,3.104-.9899,.14232-1.8883,.27144-2.7867,.40056-.02108,.09103-.04218,.18207-.06326,.27316,2.15802,.50281,4.31603,1.00566,6.50805,1.51641-.10957,.95985-.24851,1.86788-.30935,2.78112-.09697,1.45547-.75652,2.62866-1.77355,3.60617-2.46431,2.3686-5.00913,4.65582-7.42059,7.0764-3.14234,3.15432-6.15167,6.44125-9.29626,9.59327-.91441,.91656-2.00683,1.7621-3.17527,2.29344-1.75459,.7979-3.21185,1.96058-4.47912,3.30705-.98152,1.04284-1.68432,2.36023-1.51733,3.97314,.08924,.86206-.06428,1.75223-.1405,2.62695-.03138,.36011-.02745,.89886-.24446,1.03892-1.48407,.95819-1.2477,2.65667-1.85332,3.98462-.67904,1.48878-.71824,2.80403,.62341,4.05345-1.91789,1.73458-1.78538,3.66947-1.19409,5.82333,.21291,.77553-.37792,1.79359-.67561,2.67609-.10776,.31945-.46497,.54535-.64975,.84956-1.17138,1.92866-1.14793,2.03617,.81115,3.38032-.63603,.08283-1.04017,.13545-1.55367,.20235,.05521,.63101-.81386,1.65148,.83184,1.59071,.05071-.00188,.13393,.8767,.23669,1.58357,.63817-.4821,1.25459-.83266,1.72669-1.32238,4.10168-4.25521,8.39859-8.32201,12.12783-12.9347,2.52682-3.12552,5.30703-6.04584,7.84002-9.16664,2.57767-3.17578,4.9932-6.48331,7.47602-9.73591,1.64116-2.15005,3.25298-4.32323,4.93469-6.44093,.30088-.379,.87858-.538,1.46262-.87628-.31405-1.89616,1.1498-3.19906,2.06625-4.70785,1.69369-2.78847,3.52793-5.49111,5.27566-8.24718,1.21381-1.91413,2.38081-3.85797,3.73114-6.05255,.20927,.48049,.39959,.91747,.58991,1.3544,.19211-.05423,.38422-.10841,.57634-.16265,.67666-1.15453,1.34631-2.31318,2.0326-3.46197,.4153-.69512,.50358-1.68651,1.81455-1.46582,.38326,.06448,.99076-.71368,1.36774-1.20388,.79835-1.03812,1.51263-2.14088,2.26156-3.21671-.2481,1.59666-.64708,3.10411-1.65784,4.45208-.72557,.96752-1.21296,2.07656-1.41266,3.36327-.19973,1.28676-1.28804,2.34585-1.28311,3.7671,.00051,.14666-.29726,.29547-.45829,.44144-.57843,.52421-1.39941,.94526-1.67522,1.59725-.34362,.81233-.22534,1.81633-.33172,2.73461-.04666,.40281-.15562,.79844-.31021,1.56276-.30437-.87107-.47757-1.36674-.65075-1.86241-.62823,.89231-1.0117,1.75062-1.09628,2.63752-.13599,1.42613-.62174,2.61638-1.45253,3.79542-1.00038,1.41969-1.72866,3.02976-2.59831,4.54386-.34604,.60253-.63241,1.3463-1.16225,1.71323-.99242,.68723-1.53467,1.43798-1.47492,2.69084,.01668,.34965-.54217,.7132-.80511,1.09257-.52732,.76078-1.68538,1.00298-1.44087,2.44574,.10898,.64298-1.01441,1.49484-1.85617,2.62464v1.22062c-.18619-.36285-.33142-.64587-.60838-1.18559-.43121,.76942-.91184,1.24964-.9457,1.75958-.09431,1.42006,.22872,2.93047-1.55958,3.64055-.18436,.07322-.15915,.67028-.23437,1.02358-.19407,.91157-.08471,2.21673-.64772,2.65286-1.21513,.94129-1.43682,2.28727-2.13445,3.43016-.48728,.79828-1.00017,1.90726-1.61113,2.26732-1.01682,.59931-1.35363,1.36905-1.34929,2.25251,.00998,2.03005-2.32141,2.6793-2.50674,4.54354-.00673,.06759-.23716,.11061-.3614,.16914-1.26632,.59668-1.64207,1.62676-1.18206,3.33709,.19761-.07939,.41866-.11721,.57486-.23855,2.42379-1.8821,4.6426-3.99905,6.94159-6.02573,3.46502-3.0546,7.10657-5.90835,10.58725-8.94595,2.66753-2.32799,5.25471-4.75463,7.78569-7.23138,5.67152-5.54996,11.40555-11.04423,16.87868-16.78581,3.31265-3.47517,6.1924-7.3642,9.23991-11.08913,.23228-.28399,.25124-.74259,.42737-1.30543-2.55206,.39289-4.90991,.28029-6.88759-1.04043-1.98025-1.32249-3.787-2.92982-5.55133-4.54199-1.11111-1.01527-1.858-2.46012-3.0358-3.3631-1.2258-.93963-2.13367-2.8257-4.23135-2.05349Zm9.60306-40.95727c.38514,.75697,.71975,1.54602,1.17351,2.25938,.29361,.4615,.76354,.81008,1.1508,1.21284,1.27734,1.32871,2.53176,2.68032,3.83822,3.97964,.66212,.65853,1.42952,1.20978,2.12742,1.83398,1.80592,1.61522,3.63289,3.20909,5.38678,4.87941,1.19099,1.1342,2.27266,2.38324,3.53302,3.71844,.34236,.08696,.92704,.17831,1.46793,.38457,1.21572,.46348,2.1589,.1664,3.1735-.65392,1.58377-1.28059,3.31906-2.37466,4.9984-3.53589,3.05964-2.11551,6.1315-4.21347,9.18081-6.34367,.39712-.27755,.91996-.66057,.99515-1.06682,.45105-2.43716,1.5366-4.74278,1.4738-7.28808-.04738-1.92099-.00939-3.84397-.00939-6.02251-1.05933,.58311-1.85832,1.02283-2.65728,1.4626,1.05007-.82091,1.96459-1.64698,2.66211-3.16178-3.07184,.65757-5.08497,2.71997-7.52474,3.91757-2.48426,1.21944-4.73681,2.90198-7.1476,4.28262-2.4637,1.411-5.04337,2.62207-7.48556,4.06718-2.40923,1.4257-4.70994,3.0348-6.92014,4.47354-3.38242-1.66962-4.40351-4.95494-6.78531-7.37863-.64761,.04603-.72635,.10241-1.18343-.53639-.43282-.605-.87652-.69367-1.49179-.43452-.18165-.53177-.36328-1.0636-.54866-1.60626,1.16378-.37749,1.18499-1.31809,1.0268-2.17371-.22292-1.20576,.31871-1.87078,1.18426-2.585,2.11452-1.74488,4.68055-2.75247,6.81639-4.51763,2.69804-2.22977,5.76798-4.00925,8.67715-5.98356,.34995-.23748,.68344-.50297,1.0486-.71384,2.31173-1.3345,4.67041-2.59262,6.93545-4.00168,2.40481-1.49602,4.71206-3.14799,7.08155-4.70195,2.69786-1.76918,5.43237-3.48295,8.11194-5.27905,.41294-.2768,.74692-.82606,.89647-1.31669,1.09462-3.59093,.71385-7.27193,.30758-10.88437-.39238-3.48895-1.22068-6.93108-1.91136-10.38296-.26253-1.31219-1.49364-1.73377-2.47955-.79704-3.3345,3.16843-7.39892,5.36821-10.88405,8.3771-2.3759,2.05124-4.72678,4.15425-6.98431,6.31455-2.82124,2.69985-5.29199,5.76893-7.87684,8.71136-.76679,.8729-1.57801,1.77369-2.0773,2.80317-2.09374,4.31684-4.09611,8.67858-6.08639,13.04467-.47835,1.04938-.46379,2.6101-1.23425,3.17852-1.47302,1.08672-1.16517,3.58047-3.35499,3.9328-.08801,.01411-.16398,.23099-.20898,.36558-.94873,2.83879-.90771,5.60146,.71849,8.20421,.07742,.12386,.58041-.01829,.8858-.03777Zm68.62634,6.88044c1.74325,.47003,3.03408-.14629,4.36656-.76797,.67411-.31451,1.61732-.69861,2.19508-.46016,2.39749,.98925,4.08552,.15053,5.52982-1.70921,.26913-.34654,.57328-.6668,.8319-1.02068,2.23718-3.0613,4.5352-6.08103,6.68475-9.20295,3.43809-4.99335,7.02695-9.90832,10.08964-15.12788,3.39377-5.78374,6.36016-11.82684,9.33428-17.84522,1.81048-3.66367,3.18508-7.52545,3.7324-11.62332,.15741-1.17834,.09252-2.20096-.73262-3.27148-1.00725-1.30693-1.7226-2.86255-2.42578-4.37505-1.25685-2.70344-2.26574-5.5307-3.6452-8.16639-1.5137-2.89222-2.76779-5.98394-5.2493-8.27904-1.06026-.98067-2.10256-1.98123-3.13826-2.98786-2.67742-2.60238-6.01147-2.45636-9.36099-2.25621-.63171,1.11472-1.45079-.15873-2.21809,.19087-1.76186,.80284-3.34166,2.25638-5.52856,1.75834-.0982-.02242-.2816,.11265-.35282,.22176-.69969,1.07122-1.83888,1.02803-2.90796,1.19095-.32593,.04967-.65158,.18228-.94699,.33549-.88617,.45946-1.74421,.97418-2.63706,1.41953-1.97929,.98743-3.91669,2.10226-5.98559,2.84737-.98113,.35335-1.93847,1.54742-3.08101,.67983-.58103,.6441-1.0132,1.37291-1.65014,1.78522-2.49797,1.61699-5.06292,3.13024-7.59752,4.6909-.71162,.43822-1.40442,.90701-1.94402,1.25688,2.20851,8.00122,4.33392,15.70139,6.46333,23.41605,.33936-.03734,.55992-.02468,.75555-.08851,4.22084-1.37704,8.2823-3.15518,12.64417-4.20891,5.78487-1.39748,11.4211-2.12591,17.234-.27273,1.18349,.37744,1.90114,.8965,2.43924,1.88693,.27693,.50978,.5131,1.05255,.85944,1.5111,.4547,.60205,.36594,1.14965,.19549,1.83908-.61629,2.49337-2.54385,4.52788-2.32669,7.34875,.09914,1.28756-.47749,2.62722-.75952,4.00093-.40742,.99295-.90787,2.07163-1.29346,3.18989-.43437,1.25967-.70774,2.57566-1.15635,3.82943-.50407,1.40885-1.12575,2.77554-1.66929,4.09518-.08793-.15315-.23403-.40764-.42584-.74168-1.00119,1.1093-1.81589,2.12414-2.75186,3.01099-.65746,.62291-.28954,.98796,.17846,1.53781,.31751-.48419,.60567-.92364,.9918-1.51239,.08428,1.09251,.24687,1.88376-.67513,2.56574-.92776,.68621-.89092,2.31329-2.32396,2.62373-.16581,1.64891-1.48654,2.34832-2.62132,3.04435v1.85683c-.42759-.08578-.76858-.15412-1.02803-.20615-.84276,1.14761-1.91587,2.13165-2.35764,3.34551-.43668,1.19986-1.16796,1.47757-2.11079,1.51121v1.92164c.643-.22895,1.15535-.41134,2.16207-.76979-1.13661,1.47296-1.76181,3.10712-2.78949,3.4204-1.51539,.46204-1.69825,1.88907-2.99667,2.56091Zm-59.24641,137.52215c.75126-.42132,1.09177-.56342,1.37637-.77929,3.06677-2.32708,7.95158-7.93701,9.98908-10.9739,.16001-.23855,.3569-.57839,.58529-.62324,1.00709-.19762,1.04702-1.11692,1.42612-1.77723,.21748-.37878,.34231-.81367,.57813-1.17856,1.72654-2.67147,3.52643-5.29724,5.1933-8.00503,1.63767-2.66026,3.14025-5.40356,4.71273-8.10422,1.46355-2.5136,3.15135-4.92221,4.36197-7.55142,1.71257-3.71935,4.19402-6.90844,6.4127-10.28399,.55083-.83808,1.0265-1.72551,1.57514-2.5651,1.249-1.91128,2.60395-3.75852,3.76182-5.72264,1.14157-1.9365,2.06569-3.99986,3.14046-5.97755,.51624-.94993,1.19504-1.81016,1.73842-2.74684,1.24578-2.14753,2.46434-4.3111,3.66772-6.48272,.22901-.41322,.33727-.89339,.53775-1.4426-1.00111-.29177-1.85531-.46906-2.65423-.78588-3.71774-1.47451-7.44925-2.92043-11.11829-4.50964-2.61124-1.13103-5.15136-2.43372-7.68363-3.73684-1.43033-.7361-1.36382-.7714-2.69719,.38844-.50568,.43993-1.19142,.67007-1.78629,1.01119-.278,.15948-.57862,.31425-.79422,.54191-.90191,.95256-1.63706,2.51124-2.69239,2.76353-1.51729,.36269-1.09647,1.49012-1.52311,2.20053-1.65366,.22504-2.42556,1.34271-3.05315,2.63328-.48122,.98957-.97158,1.98327-2.36903,1.50321-.26326,.94778-.41179,1.74998-.71919,2.48565-.17541,.41971-.54137,.9083-.939,1.06199-2.2832,.88309-3.92497,2.62496-5.66771,4.19968-1.06244,.95996-1.92785,2.15397-2.79772,3.3064-.76671,1.01575-1.46819,2.09019-2.10007,3.19504-.42212,.73803-.69554,1.56614-.98821,2.37112-.1347,.37047-.21053,.7809-.22,1.17539-.0698,2.91802-.03567,5.84071-.18675,8.75406-.31048,5.98818-.77636,11.96863-1.0542,17.95804-.11845,2.55362,.35966,5.15626,.05471,7.67458-.40107,3.3122-.32223,6.58362,.09453,9.83885,.42316,3.30506,1.17096,6.56866,1.83813,10.18378Zm62.74332-167.50551c-3.23976,.91731-6.52286,1.54972-9.48601,3.1135-.33443,.17649-.69242,.64727-.72179,1.00743-.17503,2.14769-.25674,4.303-.36974,6.45579,.15629,.05965,.31257,.11925,.46886,.1789,3.87453-3.03974,6.70151-7.11132,10.10868-10.75563Zm-13.61519,67.87149c.08466-.94607,.18133-1.69531,.20254-2.44676,.00724-.25594-.12424-.5542-.2798-.77011-.94707-1.31428-3.33767-1.53465-4.46771-.34134-1.38509,1.46266-2.4198,3.1673-3.2385,5.06979,.34513,.13926,.53638,.28227,.72906,.28426,2.4741,.02537,4.94968,.07532,7.42155,.00349,.49669-.01443,.99706-.48376,1.46398-.79152,.58843-.38801,1.10886-.98351,.59851-1.62643-.68282-.86029-1.24758-.13872-1.76403,.38549-.08855,.08985-.26138,.09672-.66561,.23314Zm-99.73596-3.66228c.69218,.8177,1.16801,1.37983,1.95515,2.3097,.10188-1.23869,.16328-1.98537,.23113-2.8103-.72291,.16555-1.21497,.2782-2.18628,.50061Zm82.98836-112.61024q-2.88809,.64829-2.8495,1.90265c.84316-.56299,1.67162-1.11617,2.8495-1.90265Zm-9.61247,6.3301c-.18037-.18555-.36071-.37111-.54105-.55666-.36819,.46638-.7364,.93276-1.10459,1.39914,.0857,.09667,.17138,.19333,.25709,.29l1.38855-1.13248Zm-73.41209,107.44067c-.64118,1.22126-.49412,1.69118,.78398,2.15461-.29487-.8104-.46309-1.2727-.78398-2.15461Zm-2.35557-6.24057h1.98661c-.7316-.57973-1.11972-1.15474-1.98661,0Z"/>
      <path class="cls-1" d="M477.98259,160.43034c.06377,1.88757-1.43306,2.16974-2.51851,2.80687,.4223-1.20946,.80859-2.44998,2.51851-2.80687Z"/>
      <path class="cls-1" d="M471.77729,166.53739c-.11027-1.75319,1.57441-1.37634,2.37909-2.10435-.79304,.70145-1.58608,1.4029-2.37909,2.10435Z"/>
      <path class="cls-1" d="M567.25205,15.19048c-.11354,.61047-.11089,.91254-.23016,1.15447-.13765,.27916-.35802,.53542-.59838,.73374-.06162,.05085-.49369-.18792-.48355-.23485,.0772-.3577,.16685-.73723,.3643-1.03619,.13974-.21152,.45373-.30797,.9478-.61717Z"/>
      <path class="cls-1" d="M590.37315,5.33195c.10938-.49964,.21877-.99933,.32815-1.49898,.18592,.03541,.37181,.07086,.5577,.10632-.10185,.4983-.2037,.9966-.30557,1.4949-.19343-.03406-.38685-.06813-.58028-.10225Z"/>
      <path class="cls-1" d="M577.38334,10.22857c.17353-1.3168,1.25988-.70461,1.8492-1.14278l.1938,.45302c-.69706,.21216-1.39415,.42427-2.09122,.63643l.04822,.05332Z"/>
      <path class="cls-1" d="M594.78438,4.60528c-.50302-1.00422-1.07029-1.651,.2754-1.84444-.0775,.51906-.1443,.9664-.2754,1.84444Z"/>
      <path class="cls-1" d="M490.04819,138.34574c-.36173-.45614-.57963-.7309-.83477-1.0526q1.16155-.08433,.83477,1.0526Z"/>
      <path class="cls-1" d="M586.98866,6.90372c-.1491-.32589-.32166-.64502-.42037-.98555-.01378-.04742,.33585-.20031,.51723-.30443,.13513,.35416,.27028,.70832,.40541,1.06253-.16741,.0758-.33483,.1516-.50227,.22745Z"/>
      <path class="cls-1" d="M523.35882,49.64068c.01832,.36735,.0366,.73465,.05489,1.10201-.11931,.01599-.23864,.03197-.35797,.04796l-.17642-1.16032c.15983,.00343,.31968,.00692,.4795,.01035Z"/>
      <path class="cls-1" d="M593.03502,4.79079c-.28929-.43682-.47738-.72076-.74525-1.12524,.37948-.10573,.68795-.19167,1.1449-.31902-.1499,.54175-.25095,.90691-.39964,1.44426Z"/>
      <path class="cls-1" d="M461.61239,185.86271c.03183,.66953,.05361,1.12765,.07989,1.68061q-.67186-.66138-.07989-1.68061Z"/>
      <path class="cls-1" d="M534.69864,38.79691c.09691-.33839,.19386-.67683,.29077-1.01527,.11493,.03712,.22984,.0743,.34475,.11142l-.41117,.97267c-.07479-.02291-.14955-.04587-.22435-.06883Z"/>
      <path class="cls-1" d="M577.33513,10.17525c-.44325,.27546-.88649,.55092-1.32974,.82633,.17854-.92928,.7068-1.0283,1.37439-.77693,.00357,.00392-.04465-.04941-.04465-.04941Z"/>
      <path class="cls-1" d="M582.79804,8.45467c-.75182-1.06575-.01888-1.06263,.60417-1.14444-.18707,.35437-.37414,.70874-.60417,1.14444Z"/>
      <path class="cls-1" d="M584.87159,6.82996c.04875,.2966,.0975,.59314,.14626,.88969-.10499,.02312-.20995,.04629-.3149,.06942l-.25156-.95883c.14006-.00011,.28012-.00016,.42021-.00027Z"/>
      <path class="cls-1" d="M566.29487,19.87919c-1.17788,.78648-2.00634,1.33965-2.8495,1.90265q-.03859-1.25436,2.8495-1.90265Z"/>
      <path class="cls-1" d="M556.6824,26.20929l-1.38855,1.13248c-.0857-.09667-.17138-.19333-.25709-.29,.36819-.46638,.7364-.93276,1.10459-1.39914,.18034,.18555,.36068,.37111,.54105,.55666Z"/>
      <path class="cls-1" d="M483.27031,133.64996c.32088,.88191,.4891,1.34421,.78398,2.15461-1.27809-.46343-1.42515-.93335-.78398-2.15461Z"/>
      <path class="cls-1" d="M480.91474,127.40939c.86689-1.15474,1.255-.57973,1.98661,0h-1.98661Z"/>
      <path class="cls-1" d="M600.61122,88.60807l.72034-.77972c.08262,.07687,.16524,.1538,.24786,.23072-.24282,.25733-.48567,.51466-.72849,.77204-.07991-.07435-.15983-.1487-.23971-.22305Z"/>
    </g>
  </g>
</svg>